<svg id="svg" version="1.1" width="400" height="548" xmlns="http://www.w3.org/2000/svg" xmlns:xlink="http://www.w3.org/1999/xlink" style="display: block;"><g id="svgg"><path id="path0" d="M150.000 12.000 L 150.000 14.000 148.000 14.000 L 146.000 14.000 146.000 16.000 L 146.000 18.000 144.000 18.000 L 142.000 18.000 142.000 20.000 L 142.000 22.000 140.000 22.000 L 138.000 22.000 138.000 24.000 L 138.000 26.000 136.000 26.000 L 134.000 26.000 134.000 28.000 L 134.000 30.000 132.000 30.000 L 130.000 30.000 130.000 32.000 L 130.000 34.000 128.000 34.000 L 126.000 34.000 126.000 36.000 L 126.000 38.000 124.000 38.000 L 122.000 38.000 122.000 40.000 L 122.000 42.000 120.000 42.000 L 118.000 42.000 118.000 44.000 L 118.000 46.000 116.000 46.000 L 114.000 46.000 114.000 52.000 L 114.000 58.000 116.000 58.000 L 118.000 58.000 118.000 60.000 L 118.000 62.000 120.000 62.000 L 122.000 62.000 122.000 66.000 L 122.000 70.000 124.000 70.000 L 126.000 70.000 126.000 72.000 L 126.000 74.000 128.000 74.000 L 130.000 74.000 130.000 76.000 L 130.000 78.000 132.000 78.000 L 134.000 78.000 134.000 80.000 L 134.000 82.000 136.000 82.000 L 138.000 82.000 138.000 86.000 L 138.000 90.000 140.000 90.000 L 142.000 90.000 142.000 92.000 L 142.000 94.000 220.000 94.000 L 298.000 94.000 298.000 92.000 L 298.000 90.000 300.000 90.000 L 302.000 90.000 302.000 88.000 L 302.000 86.000 304.000 86.000 L 306.000 86.000 306.000 84.000 L 306.000 82.000 308.000 82.000 L 310.000 82.000 310.000 80.000 L 310.000 78.000 312.000 78.000 L 314.000 78.000 314.000 76.000 L 314.000 74.000 316.000 74.000 L 318.000 74.000 318.000 72.000 L 318.000 70.000 320.000 70.000 L 322.000 70.000 322.000 68.000 L 322.000 66.000 324.000 66.000 L 326.000 66.000 326.000 64.000 L 326.000 62.000 328.000 62.000 L 330.000 62.000 330.000 60.000 L 330.000 58.000 332.000 58.000 L 334.000 58.000 334.000 56.000 L 334.000 54.000 336.000 54.000 L 338.000 54.000 338.000 50.000 L 338.000 46.000 336.000 46.000 L 334.000 46.000 334.000 44.000 L 334.000 42.000 332.000 42.000 L 330.000 42.000 330.000 40.000 L 330.000 38.000 328.000 38.000 L 326.000 38.000 326.000 34.000 L 326.000 30.000 324.000 30.000 L 322.000 30.000 322.000 28.000 L 322.000 26.000 320.000 26.000 L 318.000 26.000 318.000 24.000 L 318.000 22.000 316.000 22.000 L 314.000 22.000 314.000 20.000 L 314.000 18.000 312.000 18.000 L 310.000 18.000 310.000 14.000 L 310.000 10.000 230.000 10.000 L 150.000 10.000 150.000 12.000 M94.000 64.000 L 94.000 66.000 92.000 66.000 L 90.000 66.000 90.000 68.000 L 90.000 70.000 88.000 70.000 L 86.000 70.000 86.000 72.000 L 86.000 74.000 84.000 74.000 L 82.000 74.000 82.000 76.000 L 82.000 78.000 80.000 78.000 L 78.000 78.000 78.000 80.000 L 78.000 82.000 76.000 82.000 L 74.000 82.000 74.000 84.000 L 74.000 86.000 72.000 86.000 L 70.000 86.000 70.000 88.000 L 70.000 90.000 68.000 90.000 L 66.000 90.000 66.000 92.000 L 66.000 94.000 64.000 94.000 L 62.000 94.000 62.000 96.000 L 62.000 98.000 60.000 98.000 L 58.000 98.000 58.000 106.000 L 58.000 114.000 56.000 114.000 L 54.000 114.000 54.000 130.000 L 54.000 146.000 52.000 146.000 L 50.000 146.000 50.000 162.000 L 50.000 178.000 48.000 178.000 L 46.000 178.000 46.000 196.000 L 46.000 214.000 44.000 214.000 L 42.000 214.000 42.000 218.000 L 42.000 222.000 44.000 222.000 L 46.000 222.000 46.000 226.000 L 46.000 230.000 48.000 230.000 L 50.000 230.000 50.000 232.000 L 50.000 234.000 52.000 234.000 L 54.000 234.000 54.000 236.000 L 54.000 238.000 56.000 238.000 L 58.000 238.000 58.000 240.000 L 58.000 242.000 60.000 242.000 L 62.000 242.000 62.000 246.000 L 62.000 250.000 64.000 250.000 L 66.000 250.000 66.000 252.000 L 66.000 254.000 68.000 254.000 L 70.000 254.000 70.000 256.000 L 70.000 258.000 72.000 258.000 L 74.000 258.000 74.000 260.000 L 74.000 262.000 78.000 262.000 L 82.000 262.000 82.000 260.000 L 82.000 258.000 84.000 258.000 L 86.000 258.000 86.000 256.000 L 86.000 254.000 88.000 254.000 L 90.000 254.000 90.000 252.000 L 90.000 250.000 92.000 250.000 L 94.000 250.000 94.000 248.000 L 94.000 246.000 96.000 246.000 L 98.000 246.000 98.000 244.000 L 98.000 242.000 100.000 242.000 L 102.000 242.000 102.000 240.000 L 102.000 238.000 104.000 238.000 L 106.000 238.000 106.000 236.000 L 106.000 234.000 108.000 234.000 L 110.000 234.000 110.000 232.000 L 110.000 230.000 114.000 230.000 L 118.000 230.000 118.000 228.000 L 118.000 226.000 120.000 226.000 L 122.000 226.000 122.000 216.000 L 122.000 206.000 124.000 206.000 L 126.000 206.000 126.000 190.000 L 126.000 174.000 128.000 174.000 L 130.000 174.000 130.000 158.000 L 130.000 142.000 132.000 142.000 L 134.000 142.000 134.000 124.000 L 134.000 106.000 136.000 106.000 L 138.000 106.000 138.000 102.000 L 138.000 98.000 136.000 98.000 L 134.000 98.000 134.000 96.000 L 134.000 94.000 132.000 94.000 L 130.000 94.000 130.000 92.000 L 130.000 90.000 128.000 90.000 L 126.000 90.000 126.000 86.000 L 126.000 82.000 124.000 82.000 L 122.000 82.000 122.000 80.000 L 122.000 78.000 120.000 78.000 L 118.000 78.000 118.000 76.000 L 118.000 74.000 116.000 74.000 L 114.000 74.000 114.000 72.000 L 114.000 70.000 112.000 70.000 L 110.000 70.000 110.000 68.000 L 110.000 66.000 108.000 66.000 L 106.000 66.000 106.000 64.000 L 106.000 62.000 100.000 62.000 L 94.000 62.000 94.000 64.000 M338.000 64.000 L 338.000 66.000 336.000 66.000 L 334.000 66.000 334.000 68.000 L 334.000 70.000 332.000 70.000 L 330.000 70.000 330.000 72.000 L 330.000 74.000 328.000 74.000 L 326.000 74.000 326.000 76.000 L 326.000 78.000 324.000 78.000 L 322.000 78.000 322.000 80.000 L 322.000 82.000 320.000 82.000 L 318.000 82.000 318.000 84.000 L 318.000 86.000 316.000 86.000 L 314.000 86.000 314.000 88.000 L 314.000 90.000 312.000 90.000 L 310.000 90.000 310.000 92.000 L 310.000 94.000 308.000 94.000 L 306.000 94.000 306.000 96.000 L 306.000 98.000 304.000 98.000 L 302.000 98.000 302.000 104.000 L 302.000 110.000 300.000 110.000 L 298.000 110.000 298.000 126.000 L 298.000 142.000 296.000 142.000 L 294.000 142.000 294.000 160.000 L 294.000 178.000 292.000 178.000 L 290.000 178.000 290.000 194.000 L 290.000 210.000 288.000 210.000 L 286.000 210.000 286.000 216.000 L 286.000 222.000 288.000 222.000 L 290.000 222.000 290.000 226.000 L 290.000 230.000 292.000 230.000 L 294.000 230.000 294.000 232.000 L 294.000 234.000 296.000 234.000 L 298.000 234.000 298.000 236.000 L 298.000 238.000 300.000 238.000 L 302.000 238.000 302.000 240.000 L 302.000 242.000 304.000 242.000 L 306.000 242.000 306.000 244.000 L 306.000 246.000 308.000 246.000 L 310.000 246.000 310.000 250.000 L 310.000 254.000 312.000 254.000 L 314.000 254.000 314.000 256.000 L 314.000 258.000 316.000 258.000 L 318.000 258.000 318.000 260.000 L 318.000 262.000 322.000 262.000 L 326.000 262.000 326.000 260.000 L 326.000 258.000 328.000 258.000 L 330.000 258.000 330.000 256.000 L 330.000 254.000 332.000 254.000 L 334.000 254.000 334.000 252.000 L 334.000 250.000 336.000 250.000 L 338.000 250.000 338.000 248.000 L 338.000 246.000 340.000 246.000 L 342.000 246.000 342.000 244.000 L 342.000 242.000 344.000 242.000 L 346.000 242.000 346.000 240.000 L 346.000 238.000 348.000 238.000 L 350.000 238.000 350.000 236.000 L 350.000 234.000 354.000 234.000 L 358.000 234.000 358.000 232.000 L 358.000 230.000 360.000 230.000 L 362.000 230.000 362.000 228.000 L 362.000 226.000 364.000 226.000 L 366.000 226.000 366.000 218.000 L 366.000 210.000 368.000 210.000 L 370.000 210.000 370.000 194.000 L 370.000 178.000 372.000 178.000 L 374.000 178.000 374.000 160.000 L 374.000 142.000 376.000 142.000 L 378.000 142.000 378.000 126.000 L 378.000 110.000 380.000 110.000 L 382.000 110.000 382.000 104.000 L 382.000 98.000 380.000 98.000 L 378.000 98.000 378.000 96.000 L 378.000 94.000 376.000 94.000 L 374.000 94.000 374.000 92.000 L 374.000 90.000 372.000 90.000 L 370.000 90.000 370.000 86.000 L 370.000 82.000 368.000 82.000 L 366.000 82.000 366.000 80.000 L 366.000 78.000 364.000 78.000 L 362.000 78.000 362.000 76.000 L 362.000 74.000 360.000 74.000 L 358.000 74.000 358.000 72.000 L 358.000 70.000 356.000 70.000 L 354.000 70.000 354.000 68.000 L 354.000 66.000 352.000 66.000 L 350.000 66.000 350.000 64.000 L 350.000 62.000 344.000 62.000 L 338.000 62.000 338.000 64.000 M70.000 284.000 L 70.000 286.000 68.000 286.000 L 66.000 286.000 66.000 288.000 L 66.000 290.000 64.000 290.000 L 62.000 290.000 62.000 292.000 L 62.000 294.000 60.000 294.000 L 58.000 294.000 58.000 296.000 L 58.000 298.000 56.000 298.000 L 54.000 298.000 54.000 300.000 L 54.000 302.000 52.000 302.000 L 50.000 302.000 50.000 304.000 L 50.000 306.000 46.000 306.000 L 42.000 306.000 42.000 308.000 L 42.000 310.000 40.000 310.000 L 38.000 310.000 38.000 312.000 L 38.000 314.000 36.000 314.000 L 34.000 314.000 34.000 316.000 L 34.000 318.000 32.000 318.000 L 30.000 318.000 30.000 332.000 L 30.000 346.000 28.000 346.000 L 26.000 346.000 26.000 362.000 L 26.000 378.000 24.000 378.000 L 22.000 378.000 22.000 396.000 L 22.000 414.000 20.000 414.000 L 18.000 414.000 18.000 432.000 L 18.000 450.000 20.000 450.000 L 22.000 450.000 22.000 452.000 L 22.000 454.000 24.000 454.000 L 26.000 454.000 26.000 456.000 L 26.000 458.000 28.000 458.000 L 30.000 458.000 30.000 460.000 L 30.000 462.000 32.000 462.000 L 34.000 462.000 34.000 464.000 L 34.000 466.000 36.000 466.000 L 38.000 466.000 38.000 470.000 L 38.000 474.000 40.000 474.000 L 42.000 474.000 42.000 476.000 L 42.000 478.000 44.000 478.000 L 46.000 478.000 46.000 480.000 L 46.000 482.000 52.000 482.000 L 58.000 482.000 58.000 480.000 L 58.000 478.000 60.000 478.000 L 62.000 478.000 62.000 476.000 L 62.000 474.000 64.000 474.000 L 66.000 474.000 66.000 472.000 L 66.000 470.000 68.000 470.000 L 70.000 470.000 70.000 468.000 L 70.000 466.000 72.000 466.000 L 74.000 466.000 74.000 464.000 L 74.000 462.000 76.000 462.000 L 78.000 462.000 78.000 460.000 L 78.000 458.000 80.000 458.000 L 82.000 458.000 82.000 456.000 L 82.000 454.000 84.000 454.000 L 86.000 454.000 86.000 452.000 L 86.000 450.000 88.000 450.000 L 90.000 450.000 90.000 448.000 L 90.000 446.000 92.000 446.000 L 94.000 446.000 94.000 442.000 L 94.000 438.000 96.000 438.000 L 98.000 438.000 98.000 422.000 L 98.000 406.000 100.000 406.000 L 102.000 406.000 102.000 390.000 L 102.000 374.000 104.000 374.000 L 106.000 374.000 106.000 356.000 L 106.000 338.000 108.000 338.000 L 110.000 338.000 110.000 328.000 L 110.000 318.000 108.000 318.000 L 106.000 318.000 106.000 316.000 L 106.000 314.000 104.000 314.000 L 102.000 314.000 102.000 310.000 L 102.000 306.000 100.000 306.000 L 98.000 306.000 98.000 304.000 L 98.000 302.000 96.000 302.000 L 94.000 302.000 94.000 300.000 L 94.000 298.000 92.000 298.000 L 90.000 298.000 90.000 296.000 L 90.000 294.000 88.000 294.000 L 86.000 294.000 86.000 292.000 L 86.000 290.000 84.000 290.000 L 82.000 290.000 82.000 288.000 L 82.000 286.000 80.000 286.000 L 78.000 286.000 78.000 284.000 L 78.000 282.000 74.000 282.000 L 70.000 282.000 70.000 284.000 M314.000 284.000 L 314.000 286.000 312.000 286.000 L 310.000 286.000 310.000 288.000 L 310.000 290.000 308.000 290.000 L 306.000 290.000 306.000 292.000 L 306.000 294.000 304.000 294.000 L 302.000 294.000 302.000 296.000 L 302.000 298.000 300.000 298.000 L 298.000 298.000 298.000 300.000 L 298.000 302.000 294.000 302.000 L 290.000 302.000 290.000 304.000 L 290.000 306.000 288.000 306.000 L 286.000 306.000 286.000 308.000 L 286.000 310.000 284.000 310.000 L 282.000 310.000 282.000 312.000 L 282.000 314.000 280.000 314.000 L 278.000 314.000 278.000 316.000 L 278.000 318.000 276.000 318.000 L 274.000 318.000 274.000 330.000 L 274.000 342.000 272.000 342.000 L 270.000 342.000 270.000 358.000 L 270.000 374.000 268.000 374.000 L 266.000 374.000 266.000 392.000 L 266.000 410.000 264.000 410.000 L 262.000 410.000 262.000 428.000 L 262.000 446.000 264.000 446.000 L 266.000 446.000 266.000 450.000 L 266.000 454.000 268.000 454.000 L 270.000 454.000 270.000 456.000 L 270.000 458.000 272.000 458.000 L 274.000 458.000 274.000 460.000 L 274.000 462.000 276.000 462.000 L 278.000 462.000 278.000 464.000 L 278.000 466.000 280.000 466.000 L 282.000 466.000 282.000 470.000 L 282.000 474.000 284.000 474.000 L 286.000 474.000 286.000 476.000 L 286.000 478.000 288.000 478.000 L 290.000 478.000 290.000 480.000 L 290.000 482.000 296.000 482.000 L 302.000 482.000 302.000 480.000 L 302.000 478.000 304.000 478.000 L 306.000 478.000 306.000 476.000 L 306.000 474.000 308.000 474.000 L 310.000 474.000 310.000 472.000 L 310.000 470.000 312.000 470.000 L 314.000 470.000 314.000 468.000 L 314.000 466.000 316.000 466.000 L 318.000 466.000 318.000 464.000 L 318.000 462.000 320.000 462.000 L 322.000 462.000 322.000 460.000 L 322.000 458.000 324.000 458.000 L 326.000 458.000 326.000 456.000 L 326.000 454.000 328.000 454.000 L 330.000 454.000 330.000 452.000 L 330.000 450.000 332.000 450.000 L 334.000 450.000 334.000 448.000 L 334.000 446.000 336.000 446.000 L 338.000 446.000 338.000 444.000 L 338.000 442.000 340.000 442.000 L 342.000 442.000 342.000 426.000 L 342.000 410.000 344.000 410.000 L 346.000 410.000 346.000 392.000 L 346.000 374.000 348.000 374.000 L 350.000 374.000 350.000 358.000 L 350.000 342.000 352.000 342.000 L 354.000 342.000 354.000 330.000 L 354.000 318.000 352.000 318.000 L 350.000 318.000 350.000 316.000 L 350.000 314.000 348.000 314.000 L 346.000 314.000 346.000 310.000 L 346.000 306.000 344.000 306.000 L 342.000 306.000 342.000 304.000 L 342.000 302.000 340.000 302.000 L 338.000 302.000 338.000 300.000 L 338.000 298.000 336.000 298.000 L 334.000 298.000 334.000 296.000 L 334.000 294.000 332.000 294.000 L 330.000 294.000 330.000 292.000 L 330.000 290.000 328.000 290.000 L 326.000 290.000 326.000 288.000 L 326.000 286.000 324.000 286.000 L 322.000 286.000 322.000 284.000 L 322.000 282.000 318.000 282.000 L 314.000 282.000 314.000 284.000 M98.000 452.000 L 98.000 454.000 96.000 454.000 L 94.000 454.000 94.000 456.000 L 94.000 458.000 92.000 458.000 L 90.000 458.000 90.000 460.000 L 90.000 462.000 88.000 462.000 L 86.000 462.000 86.000 464.000 L 86.000 466.000 84.000 466.000 L 82.000 466.000 82.000 468.000 L 82.000 470.000 80.000 470.000 L 78.000 470.000 78.000 472.000 L 78.000 474.000 76.000 474.000 L 74.000 474.000 74.000 476.000 L 74.000 478.000 72.000 478.000 L 70.000 478.000 70.000 480.000 L 70.000 482.000 68.000 482.000 L 66.000 482.000 66.000 484.000 L 66.000 486.000 64.000 486.000 L 62.000 486.000 62.000 494.000 L 62.000 502.000 64.000 502.000 L 66.000 502.000 66.000 504.000 L 66.000 506.000 68.000 506.000 L 70.000 506.000 70.000 508.000 L 70.000 510.000 72.000 510.000 L 74.000 510.000 74.000 512.000 L 74.000 514.000 76.000 514.000 L 78.000 514.000 78.000 518.000 L 78.000 522.000 80.000 522.000 L 82.000 522.000 82.000 524.000 L 82.000 526.000 84.000 526.000 L 86.000 526.000 86.000 528.000 L 86.000 530.000 88.000 530.000 L 90.000 530.000 90.000 532.000 L 90.000 534.000 168.000 534.000 L 246.000 534.000 246.000 532.000 L 246.000 530.000 248.000 530.000 L 250.000 530.000 250.000 528.000 L 250.000 526.000 252.000 526.000 L 254.000 526.000 254.000 524.000 L 254.000 522.000 256.000 522.000 L 258.000 522.000 258.000 520.000 L 258.000 518.000 260.000 518.000 L 262.000 518.000 262.000 516.000 L 262.000 514.000 264.000 514.000 L 266.000 514.000 266.000 512.000 L 266.000 510.000 268.000 510.000 L 270.000 510.000 270.000 508.000 L 270.000 506.000 272.000 506.000 L 274.000 506.000 274.000 504.000 L 274.000 502.000 276.000 502.000 L 278.000 502.000 278.000 500.000 L 278.000 498.000 280.000 498.000 L 282.000 498.000 282.000 490.000 L 282.000 482.000 280.000 482.000 L 278.000 482.000 278.000 480.000 L 278.000 478.000 276.000 478.000 L 274.000 478.000 274.000 476.000 L 274.000 474.000 272.000 474.000 L 270.000 474.000 270.000 472.000 L 270.000 470.000 268.000 470.000 L 266.000 470.000 266.000 466.000 L 266.000 462.000 264.000 462.000 L 262.000 462.000 262.000 460.000 L 262.000 458.000 260.000 458.000 L 258.000 458.000 258.000 456.000 L 258.000 454.000 256.000 454.000 L 254.000 454.000 254.000 452.000 L 254.000 450.000 176.000 450.000 L 98.000 450.000 98.000 452.000 " stroke="none" fill="#000000" fill-rule="evenodd"></path><path id="path1" d="M150.000 12.000 L 150.000 14.000 148.000 14.000 L 146.000 14.000 146.000 16.000 L 146.000 18.000 144.000 18.000 L 142.000 18.000 142.000 20.000 L 142.000 22.000 140.000 22.000 L 138.000 22.000 138.000 24.000 L 138.000 26.000 136.000 26.000 L 134.000 26.000 134.000 28.000 L 134.000 30.000 132.000 30.000 L 130.000 30.000 130.000 32.000 L 130.000 34.000 128.000 34.000 L 126.000 34.000 126.000 36.000 L 126.000 38.000 124.000 38.000 L 122.000 38.000 122.000 40.000 L 122.000 42.000 120.000 42.000 L 118.000 42.000 118.000 44.000 L 118.000 46.000 116.000 46.000 L 114.000 46.000 114.000 52.000 L 114.000 58.000 116.000 58.000 L 118.000 58.000 118.000 60.000 L 118.000 62.000 120.000 62.000 L 122.000 62.000 122.000 66.000 L 122.000 70.000 124.000 70.000 L 126.000 70.000 126.000 72.000 L 126.000 74.000 128.000 74.000 L 130.000 74.000 130.000 76.000 L 130.000 78.000 132.000 78.000 L 134.000 78.000 134.000 80.000 L 134.000 82.000 136.000 82.000 L 138.000 82.000 138.000 86.000 L 138.000 90.000 140.000 90.000 L 142.000 90.000 142.000 92.000 L 142.000 94.000 220.000 94.000 L 298.000 94.000 298.000 92.000 L 298.000 90.000 300.000 90.000 L 302.000 90.000 302.000 88.000 L 302.000 86.000 304.000 86.000 L 306.000 86.000 306.000 84.000 L 306.000 82.000 308.000 82.000 L 310.000 82.000 310.000 80.000 L 310.000 78.000 312.000 78.000 L 314.000 78.000 314.000 76.000 L 314.000 74.000 316.000 74.000 L 318.000 74.000 318.000 72.000 L 318.000 70.000 320.000 70.000 L 322.000 70.000 322.000 68.000 L 322.000 66.000 324.000 66.000 L 326.000 66.000 326.000 64.000 L 326.000 62.000 328.000 62.000 L 330.000 62.000 330.000 60.000 L 330.000 58.000 332.000 58.000 L 334.000 58.000 334.000 56.000 L 334.000 54.000 336.000 54.000 L 338.000 54.000 338.000 50.000 L 338.000 46.000 336.000 46.000 L 334.000 46.000 334.000 44.000 L 334.000 42.000 332.000 42.000 L 330.000 42.000 330.000 40.000 L 330.000 38.000 328.000 38.000 L 326.000 38.000 326.000 34.000 L 326.000 30.000 324.000 30.000 L 322.000 30.000 322.000 28.000 L 322.000 26.000 320.000 26.000 L 318.000 26.000 318.000 24.000 L 318.000 22.000 316.000 22.000 L 314.000 22.000 314.000 20.000 L 314.000 18.000 312.000 18.000 L 310.000 18.000 310.000 14.000 L 310.000 10.000 230.000 10.000 L 150.000 10.000 150.000 12.000 M94.000 64.000 L 94.000 66.000 92.000 66.000 L 90.000 66.000 90.000 68.000 L 90.000 70.000 88.000 70.000 L 86.000 70.000 86.000 72.000 L 86.000 74.000 84.000 74.000 L 82.000 74.000 82.000 76.000 L 82.000 78.000 80.000 78.000 L 78.000 78.000 78.000 80.000 L 78.000 82.000 76.000 82.000 L 74.000 82.000 74.000 84.000 L 74.000 86.000 72.000 86.000 L 70.000 86.000 70.000 88.000 L 70.000 90.000 68.000 90.000 L 66.000 90.000 66.000 92.000 L 66.000 94.000 64.000 94.000 L 62.000 94.000 62.000 96.000 L 62.000 98.000 60.000 98.000 L 58.000 98.000 58.000 106.000 L 58.000 114.000 56.000 114.000 L 54.000 114.000 54.000 130.000 L 54.000 146.000 52.000 146.000 L 50.000 146.000 50.000 162.000 L 50.000 178.000 48.000 178.000 L 46.000 178.000 46.000 196.000 L 46.000 214.000 44.000 214.000 L 42.000 214.000 42.000 218.000 L 42.000 222.000 44.000 222.000 L 46.000 222.000 46.000 226.000 L 46.000 230.000 48.000 230.000 L 50.000 230.000 50.000 232.000 L 50.000 234.000 52.000 234.000 L 54.000 234.000 54.000 236.000 L 54.000 238.000 56.000 238.000 L 58.000 238.000 58.000 240.000 L 58.000 242.000 60.000 242.000 L 62.000 242.000 62.000 246.000 L 62.000 250.000 64.000 250.000 L 66.000 250.000 66.000 252.000 L 66.000 254.000 68.000 254.000 L 70.000 254.000 70.000 256.000 L 70.000 258.000 72.000 258.000 L 74.000 258.000 74.000 260.000 L 74.000 262.000 78.000 262.000 L 82.000 262.000 82.000 260.000 L 82.000 258.000 84.000 258.000 L 86.000 258.000 86.000 256.000 L 86.000 254.000 88.000 254.000 L 90.000 254.000 90.000 252.000 L 90.000 250.000 92.000 250.000 L 94.000 250.000 94.000 248.000 L 94.000 246.000 96.000 246.000 L 98.000 246.000 98.000 244.000 L 98.000 242.000 100.000 242.000 L 102.000 242.000 102.000 240.000 L 102.000 238.000 104.000 238.000 L 106.000 238.000 106.000 236.000 L 106.000 234.000 108.000 234.000 L 110.000 234.000 110.000 232.000 L 110.000 230.000 114.000 230.000 L 118.000 230.000 118.000 228.000 L 118.000 226.000 120.000 226.000 L 122.000 226.000 122.000 216.000 L 122.000 206.000 124.000 206.000 L 126.000 206.000 126.000 190.000 L 126.000 174.000 128.000 174.000 L 130.000 174.000 130.000 158.000 L 130.000 142.000 132.000 142.000 L 134.000 142.000 134.000 124.000 L 134.000 106.000 136.000 106.000 L 138.000 106.000 138.000 102.000 L 138.000 98.000 136.000 98.000 L 134.000 98.000 134.000 96.000 L 134.000 94.000 132.000 94.000 L 130.000 94.000 130.000 92.000 L 130.000 90.000 128.000 90.000 L 126.000 90.000 126.000 86.000 L 126.000 82.000 124.000 82.000 L 122.000 82.000 122.000 80.000 L 122.000 78.000 120.000 78.000 L 118.000 78.000 118.000 76.000 L 118.000 74.000 116.000 74.000 L 114.000 74.000 114.000 72.000 L 114.000 70.000 112.000 70.000 L 110.000 70.000 110.000 68.000 L 110.000 66.000 108.000 66.000 L 106.000 66.000 106.000 64.000 L 106.000 62.000 100.000 62.000 L 94.000 62.000 94.000 64.000 M338.000 64.000 L 338.000 66.000 336.000 66.000 L 334.000 66.000 334.000 68.000 L 334.000 70.000 332.000 70.000 L 330.000 70.000 330.000 72.000 L 330.000 74.000 328.000 74.000 L 326.000 74.000 326.000 76.000 L 326.000 78.000 324.000 78.000 L 322.000 78.000 322.000 80.000 L 322.000 82.000 320.000 82.000 L 318.000 82.000 318.000 84.000 L 318.000 86.000 316.000 86.000 L 314.000 86.000 314.000 88.000 L 314.000 90.000 312.000 90.000 L 310.000 90.000 310.000 92.000 L 310.000 94.000 308.000 94.000 L 306.000 94.000 306.000 96.000 L 306.000 98.000 304.000 98.000 L 302.000 98.000 302.000 104.000 L 302.000 110.000 300.000 110.000 L 298.000 110.000 298.000 126.000 L 298.000 142.000 296.000 142.000 L 294.000 142.000 294.000 160.000 L 294.000 178.000 292.000 178.000 L 290.000 178.000 290.000 194.000 L 290.000 210.000 288.000 210.000 L 286.000 210.000 286.000 216.000 L 286.000 222.000 288.000 222.000 L 290.000 222.000 290.000 226.000 L 290.000 230.000 292.000 230.000 L 294.000 230.000 294.000 232.000 L 294.000 234.000 296.000 234.000 L 298.000 234.000 298.000 236.000 L 298.000 238.000 300.000 238.000 L 302.000 238.000 302.000 240.000 L 302.000 242.000 304.000 242.000 L 306.000 242.000 306.000 244.000 L 306.000 246.000 308.000 246.000 L 310.000 246.000 310.000 250.000 L 310.000 254.000 312.000 254.000 L 314.000 254.000 314.000 256.000 L 314.000 258.000 316.000 258.000 L 318.000 258.000 318.000 260.000 L 318.000 262.000 322.000 262.000 L 326.000 262.000 326.000 260.000 L 326.000 258.000 328.000 258.000 L 330.000 258.000 330.000 256.000 L 330.000 254.000 332.000 254.000 L 334.000 254.000 334.000 252.000 L 334.000 250.000 336.000 250.000 L 338.000 250.000 338.000 248.000 L 338.000 246.000 340.000 246.000 L 342.000 246.000 342.000 244.000 L 342.000 242.000 344.000 242.000 L 346.000 242.000 346.000 240.000 L 346.000 238.000 348.000 238.000 L 350.000 238.000 350.000 236.000 L 350.000 234.000 354.000 234.000 L 358.000 234.000 358.000 232.000 L 358.000 230.000 360.000 230.000 L 362.000 230.000 362.000 228.000 L 362.000 226.000 364.000 226.000 L 366.000 226.000 366.000 218.000 L 366.000 210.000 368.000 210.000 L 370.000 210.000 370.000 194.000 L 370.000 178.000 372.000 178.000 L 374.000 178.000 374.000 160.000 L 374.000 142.000 376.000 142.000 L 378.000 142.000 378.000 126.000 L 378.000 110.000 380.000 110.000 L 382.000 110.000 382.000 104.000 L 382.000 98.000 380.000 98.000 L 378.000 98.000 378.000 96.000 L 378.000 94.000 376.000 94.000 L 374.000 94.000 374.000 92.000 L 374.000 90.000 372.000 90.000 L 370.000 90.000 370.000 86.000 L 370.000 82.000 368.000 82.000 L 366.000 82.000 366.000 80.000 L 366.000 78.000 364.000 78.000 L 362.000 78.000 362.000 76.000 L 362.000 74.000 360.000 74.000 L 358.000 74.000 358.000 72.000 L 358.000 70.000 356.000 70.000 L 354.000 70.000 354.000 68.000 L 354.000 66.000 352.000 66.000 L 350.000 66.000 350.000 64.000 L 350.000 62.000 344.000 62.000 L 338.000 62.000 338.000 64.000 M70.000 284.000 L 70.000 286.000 68.000 286.000 L 66.000 286.000 66.000 288.000 L 66.000 290.000 64.000 290.000 L 62.000 290.000 62.000 292.000 L 62.000 294.000 60.000 294.000 L 58.000 294.000 58.000 296.000 L 58.000 298.000 56.000 298.000 L 54.000 298.000 54.000 300.000 L 54.000 302.000 52.000 302.000 L 50.000 302.000 50.000 304.000 L 50.000 306.000 46.000 306.000 L 42.000 306.000 42.000 308.000 L 42.000 310.000 40.000 310.000 L 38.000 310.000 38.000 312.000 L 38.000 314.000 36.000 314.000 L 34.000 314.000 34.000 316.000 L 34.000 318.000 32.000 318.000 L 30.000 318.000 30.000 332.000 L 30.000 346.000 28.000 346.000 L 26.000 346.000 26.000 362.000 L 26.000 378.000 24.000 378.000 L 22.000 378.000 22.000 396.000 L 22.000 414.000 20.000 414.000 L 18.000 414.000 18.000 432.000 L 18.000 450.000 20.000 450.000 L 22.000 450.000 22.000 452.000 L 22.000 454.000 24.000 454.000 L 26.000 454.000 26.000 456.000 L 26.000 458.000 28.000 458.000 L 30.000 458.000 30.000 460.000 L 30.000 462.000 32.000 462.000 L 34.000 462.000 34.000 464.000 L 34.000 466.000 36.000 466.000 L 38.000 466.000 38.000 470.000 L 38.000 474.000 40.000 474.000 L 42.000 474.000 42.000 476.000 L 42.000 478.000 44.000 478.000 L 46.000 478.000 46.000 480.000 L 46.000 482.000 52.000 482.000 L 58.000 482.000 58.000 480.000 L 58.000 478.000 60.000 478.000 L 62.000 478.000 62.000 476.000 L 62.000 474.000 64.000 474.000 L 66.000 474.000 66.000 472.000 L 66.000 470.000 68.000 470.000 L 70.000 470.000 70.000 468.000 L 70.000 466.000 72.000 466.000 L 74.000 466.000 74.000 464.000 L 74.000 462.000 76.000 462.000 L 78.000 462.000 78.000 460.000 L 78.000 458.000 80.000 458.000 L 82.000 458.000 82.000 456.000 L 82.000 454.000 84.000 454.000 L 86.000 454.000 86.000 452.000 L 86.000 450.000 88.000 450.000 L 90.000 450.000 90.000 448.000 L 90.000 446.000 92.000 446.000 L 94.000 446.000 94.000 442.000 L 94.000 438.000 96.000 438.000 L 98.000 438.000 98.000 422.000 L 98.000 406.000 100.000 406.000 L 102.000 406.000 102.000 390.000 L 102.000 374.000 104.000 374.000 L 106.000 374.000 106.000 356.000 L 106.000 338.000 108.000 338.000 L 110.000 338.000 110.000 328.000 L 110.000 318.000 108.000 318.000 L 106.000 318.000 106.000 316.000 L 106.000 314.000 104.000 314.000 L 102.000 314.000 102.000 310.000 L 102.000 306.000 100.000 306.000 L 98.000 306.000 98.000 304.000 L 98.000 302.000 96.000 302.000 L 94.000 302.000 94.000 300.000 L 94.000 298.000 92.000 298.000 L 90.000 298.000 90.000 296.000 L 90.000 294.000 88.000 294.000 L 86.000 294.000 86.000 292.000 L 86.000 290.000 84.000 290.000 L 82.000 290.000 82.000 288.000 L 82.000 286.000 80.000 286.000 L 78.000 286.000 78.000 284.000 L 78.000 282.000 74.000 282.000 L 70.000 282.000 70.000 284.000 M314.000 284.000 L 314.000 286.000 312.000 286.000 L 310.000 286.000 310.000 288.000 L 310.000 290.000 308.000 290.000 L 306.000 290.000 306.000 292.000 L 306.000 294.000 304.000 294.000 L 302.000 294.000 302.000 296.000 L 302.000 298.000 300.000 298.000 L 298.000 298.000 298.000 300.000 L 298.000 302.000 294.000 302.000 L 290.000 302.000 290.000 304.000 L 290.000 306.000 288.000 306.000 L 286.000 306.000 286.000 308.000 L 286.000 310.000 284.000 310.000 L 282.000 310.000 282.000 312.000 L 282.000 314.000 280.000 314.000 L 278.000 314.000 278.000 316.000 L 278.000 318.000 276.000 318.000 L 274.000 318.000 274.000 330.000 L 274.000 342.000 272.000 342.000 L 270.000 342.000 270.000 358.000 L 270.000 374.000 268.000 374.000 L 266.000 374.000 266.000 392.000 L 266.000 410.000 264.000 410.000 L 262.000 410.000 262.000 428.000 L 262.000 446.000 264.000 446.000 L 266.000 446.000 266.000 450.000 L 266.000 454.000 268.000 454.000 L 270.000 454.000 270.000 456.000 L 270.000 458.000 272.000 458.000 L 274.000 458.000 274.000 460.000 L 274.000 462.000 276.000 462.000 L 278.000 462.000 278.000 464.000 L 278.000 466.000 280.000 466.000 L 282.000 466.000 282.000 470.000 L 282.000 474.000 284.000 474.000 L 286.000 474.000 286.000 476.000 L 286.000 478.000 288.000 478.000 L 290.000 478.000 290.000 480.000 L 290.000 482.000 296.000 482.000 L 302.000 482.000 302.000 480.000 L 302.000 478.000 304.000 478.000 L 306.000 478.000 306.000 476.000 L 306.000 474.000 308.000 474.000 L 310.000 474.000 310.000 472.000 L 310.000 470.000 312.000 470.000 L 314.000 470.000 314.000 468.000 L 314.000 466.000 316.000 466.000 L 318.000 466.000 318.000 464.000 L 318.000 462.000 320.000 462.000 L 322.000 462.000 322.000 460.000 L 322.000 458.000 324.000 458.000 L 326.000 458.000 326.000 456.000 L 326.000 454.000 328.000 454.000 L 330.000 454.000 330.000 452.000 L 330.000 450.000 332.000 450.000 L 334.000 450.000 334.000 448.000 L 334.000 446.000 336.000 446.000 L 338.000 446.000 338.000 444.000 L 338.000 442.000 340.000 442.000 L 342.000 442.000 342.000 426.000 L 342.000 410.000 344.000 410.000 L 346.000 410.000 346.000 392.000 L 346.000 374.000 348.000 374.000 L 350.000 374.000 350.000 358.000 L 350.000 342.000 352.000 342.000 L 354.000 342.000 354.000 330.000 L 354.000 318.000 352.000 318.000 L 350.000 318.000 350.000 316.000 L 350.000 314.000 348.000 314.000 L 346.000 314.000 346.000 310.000 L 346.000 306.000 344.000 306.000 L 342.000 306.000 342.000 304.000 L 342.000 302.000 340.000 302.000 L 338.000 302.000 338.000 300.000 L 338.000 298.000 336.000 298.000 L 334.000 298.000 334.000 296.000 L 334.000 294.000 332.000 294.000 L 330.000 294.000 330.000 292.000 L 330.000 290.000 328.000 290.000 L 326.000 290.000 326.000 288.000 L 326.000 286.000 324.000 286.000 L 322.000 286.000 322.000 284.000 L 322.000 282.000 318.000 282.000 L 314.000 282.000 314.000 284.000 M98.000 452.000 L 98.000 454.000 96.000 454.000 L 94.000 454.000 94.000 456.000 L 94.000 458.000 92.000 458.000 L 90.000 458.000 90.000 460.000 L 90.000 462.000 88.000 462.000 L 86.000 462.000 86.000 464.000 L 86.000 466.000 84.000 466.000 L 82.000 466.000 82.000 468.000 L 82.000 470.000 80.000 470.000 L 78.000 470.000 78.000 472.000 L 78.000 474.000 76.000 474.000 L 74.000 474.000 74.000 476.000 L 74.000 478.000 72.000 478.000 L 70.000 478.000 70.000 480.000 L 70.000 482.000 68.000 482.000 L 66.000 482.000 66.000 484.000 L 66.000 486.000 64.000 486.000 L 62.000 486.000 62.000 494.000 L 62.000 502.000 64.000 502.000 L 66.000 502.000 66.000 504.000 L 66.000 506.000 68.000 506.000 L 70.000 506.000 70.000 508.000 L 70.000 510.000 72.000 510.000 L 74.000 510.000 74.000 512.000 L 74.000 514.000 76.000 514.000 L 78.000 514.000 78.000 518.000 L 78.000 522.000 80.000 522.000 L 82.000 522.000 82.000 524.000 L 82.000 526.000 84.000 526.000 L 86.000 526.000 86.000 528.000 L 86.000 530.000 88.000 530.000 L 90.000 530.000 90.000 532.000 L 90.000 534.000 168.000 534.000 L 246.000 534.000 246.000 532.000 L 246.000 530.000 248.000 530.000 L 250.000 530.000 250.000 528.000 L 250.000 526.000 252.000 526.000 L 254.000 526.000 254.000 524.000 L 254.000 522.000 256.000 522.000 L 258.000 522.000 258.000 520.000 L 258.000 518.000 260.000 518.000 L 262.000 518.000 262.000 516.000 L 262.000 514.000 264.000 514.000 L 266.000 514.000 266.000 512.000 L 266.000 510.000 268.000 510.000 L 270.000 510.000 270.000 508.000 L 270.000 506.000 272.000 506.000 L 274.000 506.000 274.000 504.000 L 274.000 502.000 276.000 502.000 L 278.000 502.000 278.000 500.000 L 278.000 498.000 280.000 498.000 L 282.000 498.000 282.000 490.000 L 282.000 482.000 280.000 482.000 L 278.000 482.000 278.000 480.000 L 278.000 478.000 276.000 478.000 L 274.000 478.000 274.000 476.000 L 274.000 474.000 272.000 474.000 L 270.000 474.000 270.000 472.000 L 270.000 470.000 268.000 470.000 L 266.000 470.000 266.000 466.000 L 266.000 462.000 264.000 462.000 L 262.000 462.000 262.000 460.000 L 262.000 458.000 260.000 458.000 L 258.000 458.000 258.000 456.000 L 258.000 454.000 256.000 454.000 L 254.000 454.000 254.000 452.000 L 254.000 450.000 176.000 450.000 L 98.000 450.000 98.000 452.000 " stroke="none" fill="#000000" fill-rule="evenodd"></path><path id="path2" d="M150.000 12.000 L 150.000 14.000 148.000 14.000 L 146.000 14.000 146.000 16.000 L 146.000 18.000 144.000 18.000 L 142.000 18.000 142.000 20.000 L 142.000 22.000 140.000 22.000 L 138.000 22.000 138.000 24.000 L 138.000 26.000 136.000 26.000 L 134.000 26.000 134.000 28.000 L 134.000 30.000 132.000 30.000 L 130.000 30.000 130.000 32.000 L 130.000 34.000 128.000 34.000 L 126.000 34.000 126.000 36.000 L 126.000 38.000 124.000 38.000 L 122.000 38.000 122.000 40.000 L 122.000 42.000 120.000 42.000 L 118.000 42.000 118.000 44.000 L 118.000 46.000 116.000 46.000 L 114.000 46.000 114.000 52.000 L 114.000 58.000 116.000 58.000 L 118.000 58.000 118.000 60.000 L 118.000 62.000 120.000 62.000 L 122.000 62.000 122.000 66.000 L 122.000 70.000 124.000 70.000 L 126.000 70.000 126.000 72.000 L 126.000 74.000 128.000 74.000 L 130.000 74.000 130.000 76.000 L 130.000 78.000 132.000 78.000 L 134.000 78.000 134.000 80.000 L 134.000 82.000 136.000 82.000 L 138.000 82.000 138.000 86.000 L 138.000 90.000 140.000 90.000 L 142.000 90.000 142.000 92.000 L 142.000 94.000 220.000 94.000 L 298.000 94.000 298.000 92.000 L 298.000 90.000 300.000 90.000 L 302.000 90.000 302.000 88.000 L 302.000 86.000 304.000 86.000 L 306.000 86.000 306.000 84.000 L 306.000 82.000 308.000 82.000 L 310.000 82.000 310.000 80.000 L 310.000 78.000 312.000 78.000 L 314.000 78.000 314.000 76.000 L 314.000 74.000 316.000 74.000 L 318.000 74.000 318.000 72.000 L 318.000 70.000 320.000 70.000 L 322.000 70.000 322.000 68.000 L 322.000 66.000 324.000 66.000 L 326.000 66.000 326.000 64.000 L 326.000 62.000 328.000 62.000 L 330.000 62.000 330.000 60.000 L 330.000 58.000 332.000 58.000 L 334.000 58.000 334.000 56.000 L 334.000 54.000 336.000 54.000 L 338.000 54.000 338.000 50.000 L 338.000 46.000 336.000 46.000 L 334.000 46.000 334.000 44.000 L 334.000 42.000 332.000 42.000 L 330.000 42.000 330.000 40.000 L 330.000 38.000 328.000 38.000 L 326.000 38.000 326.000 34.000 L 326.000 30.000 324.000 30.000 L 322.000 30.000 322.000 28.000 L 322.000 26.000 320.000 26.000 L 318.000 26.000 318.000 24.000 L 318.000 22.000 316.000 22.000 L 314.000 22.000 314.000 20.000 L 314.000 18.000 312.000 18.000 L 310.000 18.000 310.000 14.000 L 310.000 10.000 230.000 10.000 L 150.000 10.000 150.000 12.000 M94.000 64.000 L 94.000 66.000 92.000 66.000 L 90.000 66.000 90.000 68.000 L 90.000 70.000 88.000 70.000 L 86.000 70.000 86.000 72.000 L 86.000 74.000 84.000 74.000 L 82.000 74.000 82.000 76.000 L 82.000 78.000 80.000 78.000 L 78.000 78.000 78.000 80.000 L 78.000 82.000 76.000 82.000 L 74.000 82.000 74.000 84.000 L 74.000 86.000 72.000 86.000 L 70.000 86.000 70.000 88.000 L 70.000 90.000 68.000 90.000 L 66.000 90.000 66.000 92.000 L 66.000 94.000 64.000 94.000 L 62.000 94.000 62.000 96.000 L 62.000 98.000 60.000 98.000 L 58.000 98.000 58.000 106.000 L 58.000 114.000 56.000 114.000 L 54.000 114.000 54.000 130.000 L 54.000 146.000 52.000 146.000 L 50.000 146.000 50.000 162.000 L 50.000 178.000 48.000 178.000 L 46.000 178.000 46.000 196.000 L 46.000 214.000 44.000 214.000 L 42.000 214.000 42.000 218.000 L 42.000 222.000 44.000 222.000 L 46.000 222.000 46.000 226.000 L 46.000 230.000 48.000 230.000 L 50.000 230.000 50.000 232.000 L 50.000 234.000 52.000 234.000 L 54.000 234.000 54.000 236.000 L 54.000 238.000 56.000 238.000 L 58.000 238.000 58.000 240.000 L 58.000 242.000 60.000 242.000 L 62.000 242.000 62.000 246.000 L 62.000 250.000 64.000 250.000 L 66.000 250.000 66.000 252.000 L 66.000 254.000 68.000 254.000 L 70.000 254.000 70.000 256.000 L 70.000 258.000 72.000 258.000 L 74.000 258.000 74.000 260.000 L 74.000 262.000 78.000 262.000 L 82.000 262.000 82.000 260.000 L 82.000 258.000 84.000 258.000 L 86.000 258.000 86.000 256.000 L 86.000 254.000 88.000 254.000 L 90.000 254.000 90.000 252.000 L 90.000 250.000 92.000 250.000 L 94.000 250.000 94.000 248.000 L 94.000 246.000 96.000 246.000 L 98.000 246.000 98.000 244.000 L 98.000 242.000 100.000 242.000 L 102.000 242.000 102.000 240.000 L 102.000 238.000 104.000 238.000 L 106.000 238.000 106.000 236.000 L 106.000 234.000 108.000 234.000 L 110.000 234.000 110.000 232.000 L 110.000 230.000 114.000 230.000 L 118.000 230.000 118.000 228.000 L 118.000 226.000 120.000 226.000 L 122.000 226.000 122.000 216.000 L 122.000 206.000 124.000 206.000 L 126.000 206.000 126.000 190.000 L 126.000 174.000 128.000 174.000 L 130.000 174.000 130.000 158.000 L 130.000 142.000 132.000 142.000 L 134.000 142.000 134.000 124.000 L 134.000 106.000 136.000 106.000 L 138.000 106.000 138.000 102.000 L 138.000 98.000 136.000 98.000 L 134.000 98.000 134.000 96.000 L 134.000 94.000 132.000 94.000 L 130.000 94.000 130.000 92.000 L 130.000 90.000 128.000 90.000 L 126.000 90.000 126.000 86.000 L 126.000 82.000 124.000 82.000 L 122.000 82.000 122.000 80.000 L 122.000 78.000 120.000 78.000 L 118.000 78.000 118.000 76.000 L 118.000 74.000 116.000 74.000 L 114.000 74.000 114.000 72.000 L 114.000 70.000 112.000 70.000 L 110.000 70.000 110.000 68.000 L 110.000 66.000 108.000 66.000 L 106.000 66.000 106.000 64.000 L 106.000 62.000 100.000 62.000 L 94.000 62.000 94.000 64.000 M338.000 64.000 L 338.000 66.000 336.000 66.000 L 334.000 66.000 334.000 68.000 L 334.000 70.000 332.000 70.000 L 330.000 70.000 330.000 72.000 L 330.000 74.000 328.000 74.000 L 326.000 74.000 326.000 76.000 L 326.000 78.000 324.000 78.000 L 322.000 78.000 322.000 80.000 L 322.000 82.000 320.000 82.000 L 318.000 82.000 318.000 84.000 L 318.000 86.000 316.000 86.000 L 314.000 86.000 314.000 88.000 L 314.000 90.000 312.000 90.000 L 310.000 90.000 310.000 92.000 L 310.000 94.000 308.000 94.000 L 306.000 94.000 306.000 96.000 L 306.000 98.000 304.000 98.000 L 302.000 98.000 302.000 104.000 L 302.000 110.000 300.000 110.000 L 298.000 110.000 298.000 126.000 L 298.000 142.000 296.000 142.000 L 294.000 142.000 294.000 160.000 L 294.000 178.000 292.000 178.000 L 290.000 178.000 290.000 194.000 L 290.000 210.000 288.000 210.000 L 286.000 210.000 286.000 216.000 L 286.000 222.000 288.000 222.000 L 290.000 222.000 290.000 226.000 L 290.000 230.000 292.000 230.000 L 294.000 230.000 294.000 232.000 L 294.000 234.000 296.000 234.000 L 298.000 234.000 298.000 236.000 L 298.000 238.000 300.000 238.000 L 302.000 238.000 302.000 240.000 L 302.000 242.000 304.000 242.000 L 306.000 242.000 306.000 244.000 L 306.000 246.000 308.000 246.000 L 310.000 246.000 310.000 250.000 L 310.000 254.000 312.000 254.000 L 314.000 254.000 314.000 256.000 L 314.000 258.000 316.000 258.000 L 318.000 258.000 318.000 260.000 L 318.000 262.000 322.000 262.000 L 326.000 262.000 326.000 260.000 L 326.000 258.000 328.000 258.000 L 330.000 258.000 330.000 256.000 L 330.000 254.000 332.000 254.000 L 334.000 254.000 334.000 252.000 L 334.000 250.000 336.000 250.000 L 338.000 250.000 338.000 248.000 L 338.000 246.000 340.000 246.000 L 342.000 246.000 342.000 244.000 L 342.000 242.000 344.000 242.000 L 346.000 242.000 346.000 240.000 L 346.000 238.000 348.000 238.000 L 350.000 238.000 350.000 236.000 L 350.000 234.000 354.000 234.000 L 358.000 234.000 358.000 232.000 L 358.000 230.000 360.000 230.000 L 362.000 230.000 362.000 228.000 L 362.000 226.000 364.000 226.000 L 366.000 226.000 366.000 218.000 L 366.000 210.000 368.000 210.000 L 370.000 210.000 370.000 194.000 L 370.000 178.000 372.000 178.000 L 374.000 178.000 374.000 160.000 L 374.000 142.000 376.000 142.000 L 378.000 142.000 378.000 126.000 L 378.000 110.000 380.000 110.000 L 382.000 110.000 382.000 104.000 L 382.000 98.000 380.000 98.000 L 378.000 98.000 378.000 96.000 L 378.000 94.000 376.000 94.000 L 374.000 94.000 374.000 92.000 L 374.000 90.000 372.000 90.000 L 370.000 90.000 370.000 86.000 L 370.000 82.000 368.000 82.000 L 366.000 82.000 366.000 80.000 L 366.000 78.000 364.000 78.000 L 362.000 78.000 362.000 76.000 L 362.000 74.000 360.000 74.000 L 358.000 74.000 358.000 72.000 L 358.000 70.000 356.000 70.000 L 354.000 70.000 354.000 68.000 L 354.000 66.000 352.000 66.000 L 350.000 66.000 350.000 64.000 L 350.000 62.000 344.000 62.000 L 338.000 62.000 338.000 64.000 M70.000 284.000 L 70.000 286.000 68.000 286.000 L 66.000 286.000 66.000 288.000 L 66.000 290.000 64.000 290.000 L 62.000 290.000 62.000 292.000 L 62.000 294.000 60.000 294.000 L 58.000 294.000 58.000 296.000 L 58.000 298.000 56.000 298.000 L 54.000 298.000 54.000 300.000 L 54.000 302.000 52.000 302.000 L 50.000 302.000 50.000 304.000 L 50.000 306.000 46.000 306.000 L 42.000 306.000 42.000 308.000 L 42.000 310.000 40.000 310.000 L 38.000 310.000 38.000 312.000 L 38.000 314.000 36.000 314.000 L 34.000 314.000 34.000 316.000 L 34.000 318.000 32.000 318.000 L 30.000 318.000 30.000 332.000 L 30.000 346.000 28.000 346.000 L 26.000 346.000 26.000 362.000 L 26.000 378.000 24.000 378.000 L 22.000 378.000 22.000 396.000 L 22.000 414.000 20.000 414.000 L 18.000 414.000 18.000 432.000 L 18.000 450.000 20.000 450.000 L 22.000 450.000 22.000 452.000 L 22.000 454.000 24.000 454.000 L 26.000 454.000 26.000 456.000 L 26.000 458.000 28.000 458.000 L 30.000 458.000 30.000 460.000 L 30.000 462.000 32.000 462.000 L 34.000 462.000 34.000 464.000 L 34.000 466.000 36.000 466.000 L 38.000 466.000 38.000 470.000 L 38.000 474.000 40.000 474.000 L 42.000 474.000 42.000 476.000 L 42.000 478.000 44.000 478.000 L 46.000 478.000 46.000 480.000 L 46.000 482.000 52.000 482.000 L 58.000 482.000 58.000 480.000 L 58.000 478.000 60.000 478.000 L 62.000 478.000 62.000 476.000 L 62.000 474.000 64.000 474.000 L 66.000 474.000 66.000 472.000 L 66.000 470.000 68.000 470.000 L 70.000 470.000 70.000 468.000 L 70.000 466.000 72.000 466.000 L 74.000 466.000 74.000 464.000 L 74.000 462.000 76.000 462.000 L 78.000 462.000 78.000 460.000 L 78.000 458.000 80.000 458.000 L 82.000 458.000 82.000 456.000 L 82.000 454.000 84.000 454.000 L 86.000 454.000 86.000 452.000 L 86.000 450.000 88.000 450.000 L 90.000 450.000 90.000 448.000 L 90.000 446.000 92.000 446.000 L 94.000 446.000 94.000 442.000 L 94.000 438.000 96.000 438.000 L 98.000 438.000 98.000 422.000 L 98.000 406.000 100.000 406.000 L 102.000 406.000 102.000 390.000 L 102.000 374.000 104.000 374.000 L 106.000 374.000 106.000 356.000 L 106.000 338.000 108.000 338.000 L 110.000 338.000 110.000 328.000 L 110.000 318.000 108.000 318.000 L 106.000 318.000 106.000 316.000 L 106.000 314.000 104.000 314.000 L 102.000 314.000 102.000 310.000 L 102.000 306.000 100.000 306.000 L 98.000 306.000 98.000 304.000 L 98.000 302.000 96.000 302.000 L 94.000 302.000 94.000 300.000 L 94.000 298.000 92.000 298.000 L 90.000 298.000 90.000 296.000 L 90.000 294.000 88.000 294.000 L 86.000 294.000 86.000 292.000 L 86.000 290.000 84.000 290.000 L 82.000 290.000 82.000 288.000 L 82.000 286.000 80.000 286.000 L 78.000 286.000 78.000 284.000 L 78.000 282.000 74.000 282.000 L 70.000 282.000 70.000 284.000 M314.000 284.000 L 314.000 286.000 312.000 286.000 L 310.000 286.000 310.000 288.000 L 310.000 290.000 308.000 290.000 L 306.000 290.000 306.000 292.000 L 306.000 294.000 304.000 294.000 L 302.000 294.000 302.000 296.000 L 302.000 298.000 300.000 298.000 L 298.000 298.000 298.000 300.000 L 298.000 302.000 294.000 302.000 L 290.000 302.000 290.000 304.000 L 290.000 306.000 288.000 306.000 L 286.000 306.000 286.000 308.000 L 286.000 310.000 284.000 310.000 L 282.000 310.000 282.000 312.000 L 282.000 314.000 280.000 314.000 L 278.000 314.000 278.000 316.000 L 278.000 318.000 276.000 318.000 L 274.000 318.000 274.000 330.000 L 274.000 342.000 272.000 342.000 L 270.000 342.000 270.000 358.000 L 270.000 374.000 268.000 374.000 L 266.000 374.000 266.000 392.000 L 266.000 410.000 264.000 410.000 L 262.000 410.000 262.000 428.000 L 262.000 446.000 264.000 446.000 L 266.000 446.000 266.000 450.000 L 266.000 454.000 268.000 454.000 L 270.000 454.000 270.000 456.000 L 270.000 458.000 272.000 458.000 L 274.000 458.000 274.000 460.000 L 274.000 462.000 276.000 462.000 L 278.000 462.000 278.000 464.000 L 278.000 466.000 280.000 466.000 L 282.000 466.000 282.000 470.000 L 282.000 474.000 284.000 474.000 L 286.000 474.000 286.000 476.000 L 286.000 478.000 288.000 478.000 L 290.000 478.000 290.000 480.000 L 290.000 482.000 296.000 482.000 L 302.000 482.000 302.000 480.000 L 302.000 478.000 304.000 478.000 L 306.000 478.000 306.000 476.000 L 306.000 474.000 308.000 474.000 L 310.000 474.000 310.000 472.000 L 310.000 470.000 312.000 470.000 L 314.000 470.000 314.000 468.000 L 314.000 466.000 316.000 466.000 L 318.000 466.000 318.000 464.000 L 318.000 462.000 320.000 462.000 L 322.000 462.000 322.000 460.000 L 322.000 458.000 324.000 458.000 L 326.000 458.000 326.000 456.000 L 326.000 454.000 328.000 454.000 L 330.000 454.000 330.000 452.000 L 330.000 450.000 332.000 450.000 L 334.000 450.000 334.000 448.000 L 334.000 446.000 336.000 446.000 L 338.000 446.000 338.000 444.000 L 338.000 442.000 340.000 442.000 L 342.000 442.000 342.000 426.000 L 342.000 410.000 344.000 410.000 L 346.000 410.000 346.000 392.000 L 346.000 374.000 348.000 374.000 L 350.000 374.000 350.000 358.000 L 350.000 342.000 352.000 342.000 L 354.000 342.000 354.000 330.000 L 354.000 318.000 352.000 318.000 L 350.000 318.000 350.000 316.000 L 350.000 314.000 348.000 314.000 L 346.000 314.000 346.000 310.000 L 346.000 306.000 344.000 306.000 L 342.000 306.000 342.000 304.000 L 342.000 302.000 340.000 302.000 L 338.000 302.000 338.000 300.000 L 338.000 298.000 336.000 298.000 L 334.000 298.000 334.000 296.000 L 334.000 294.000 332.000 294.000 L 330.000 294.000 330.000 292.000 L 330.000 290.000 328.000 290.000 L 326.000 290.000 326.000 288.000 L 326.000 286.000 324.000 286.000 L 322.000 286.000 322.000 284.000 L 322.000 282.000 318.000 282.000 L 314.000 282.000 314.000 284.000 M98.000 452.000 L 98.000 454.000 96.000 454.000 L 94.000 454.000 94.000 456.000 L 94.000 458.000 92.000 458.000 L 90.000 458.000 90.000 460.000 L 90.000 462.000 88.000 462.000 L 86.000 462.000 86.000 464.000 L 86.000 466.000 84.000 466.000 L 82.000 466.000 82.000 468.000 L 82.000 470.000 80.000 470.000 L 78.000 470.000 78.000 472.000 L 78.000 474.000 76.000 474.000 L 74.000 474.000 74.000 476.000 L 74.000 478.000 72.000 478.000 L 70.000 478.000 70.000 480.000 L 70.000 482.000 68.000 482.000 L 66.000 482.000 66.000 484.000 L 66.000 486.000 64.000 486.000 L 62.000 486.000 62.000 494.000 L 62.000 502.000 64.000 502.000 L 66.000 502.000 66.000 504.000 L 66.000 506.000 68.000 506.000 L 70.000 506.000 70.000 508.000 L 70.000 510.000 72.000 510.000 L 74.000 510.000 74.000 512.000 L 74.000 514.000 76.000 514.000 L 78.000 514.000 78.000 518.000 L 78.000 522.000 80.000 522.000 L 82.000 522.000 82.000 524.000 L 82.000 526.000 84.000 526.000 L 86.000 526.000 86.000 528.000 L 86.000 530.000 88.000 530.000 L 90.000 530.000 90.000 532.000 L 90.000 534.000 168.000 534.000 L 246.000 534.000 246.000 532.000 L 246.000 530.000 248.000 530.000 L 250.000 530.000 250.000 528.000 L 250.000 526.000 252.000 526.000 L 254.000 526.000 254.000 524.000 L 254.000 522.000 256.000 522.000 L 258.000 522.000 258.000 520.000 L 258.000 518.000 260.000 518.000 L 262.000 518.000 262.000 516.000 L 262.000 514.000 264.000 514.000 L 266.000 514.000 266.000 512.000 L 266.000 510.000 268.000 510.000 L 270.000 510.000 270.000 508.000 L 270.000 506.000 272.000 506.000 L 274.000 506.000 274.000 504.000 L 274.000 502.000 276.000 502.000 L 278.000 502.000 278.000 500.000 L 278.000 498.000 280.000 498.000 L 282.000 498.000 282.000 490.000 L 282.000 482.000 280.000 482.000 L 278.000 482.000 278.000 480.000 L 278.000 478.000 276.000 478.000 L 274.000 478.000 274.000 476.000 L 274.000 474.000 272.000 474.000 L 270.000 474.000 270.000 472.000 L 270.000 470.000 268.000 470.000 L 266.000 470.000 266.000 466.000 L 266.000 462.000 264.000 462.000 L 262.000 462.000 262.000 460.000 L 262.000 458.000 260.000 458.000 L 258.000 458.000 258.000 456.000 L 258.000 454.000 256.000 454.000 L 254.000 454.000 254.000 452.000 L 254.000 450.000 176.000 450.000 L 98.000 450.000 98.000 452.000 " stroke="none" fill="#000000" fill-rule="evenodd"></path><path id="path3" d="M150.000 12.000 L 150.000 14.000 148.000 14.000 L 146.000 14.000 146.000 16.000 L 146.000 18.000 144.000 18.000 L 142.000 18.000 142.000 20.000 L 142.000 22.000 140.000 22.000 L 138.000 22.000 138.000 24.000 L 138.000 26.000 136.000 26.000 L 134.000 26.000 134.000 28.000 L 134.000 30.000 132.000 30.000 L 130.000 30.000 130.000 32.000 L 130.000 34.000 128.000 34.000 L 126.000 34.000 126.000 36.000 L 126.000 38.000 124.000 38.000 L 122.000 38.000 122.000 40.000 L 122.000 42.000 120.000 42.000 L 118.000 42.000 118.000 44.000 L 118.000 46.000 116.000 46.000 L 114.000 46.000 114.000 52.000 L 114.000 58.000 116.000 58.000 L 118.000 58.000 118.000 60.000 L 118.000 62.000 120.000 62.000 L 122.000 62.000 122.000 66.000 L 122.000 70.000 124.000 70.000 L 126.000 70.000 126.000 72.000 L 126.000 74.000 128.000 74.000 L 130.000 74.000 130.000 76.000 L 130.000 78.000 132.000 78.000 L 134.000 78.000 134.000 80.000 L 134.000 82.000 136.000 82.000 L 138.000 82.000 138.000 86.000 L 138.000 90.000 140.000 90.000 L 142.000 90.000 142.000 92.000 L 142.000 94.000 220.000 94.000 L 298.000 94.000 298.000 92.000 L 298.000 90.000 300.000 90.000 L 302.000 90.000 302.000 88.000 L 302.000 86.000 304.000 86.000 L 306.000 86.000 306.000 84.000 L 306.000 82.000 308.000 82.000 L 310.000 82.000 310.000 80.000 L 310.000 78.000 312.000 78.000 L 314.000 78.000 314.000 76.000 L 314.000 74.000 316.000 74.000 L 318.000 74.000 318.000 72.000 L 318.000 70.000 320.000 70.000 L 322.000 70.000 322.000 68.000 L 322.000 66.000 324.000 66.000 L 326.000 66.000 326.000 64.000 L 326.000 62.000 328.000 62.000 L 330.000 62.000 330.000 60.000 L 330.000 58.000 332.000 58.000 L 334.000 58.000 334.000 56.000 L 334.000 54.000 336.000 54.000 L 338.000 54.000 338.000 50.000 L 338.000 46.000 336.000 46.000 L 334.000 46.000 334.000 44.000 L 334.000 42.000 332.000 42.000 L 330.000 42.000 330.000 40.000 L 330.000 38.000 328.000 38.000 L 326.000 38.000 326.000 34.000 L 326.000 30.000 324.000 30.000 L 322.000 30.000 322.000 28.000 L 322.000 26.000 320.000 26.000 L 318.000 26.000 318.000 24.000 L 318.000 22.000 316.000 22.000 L 314.000 22.000 314.000 20.000 L 314.000 18.000 312.000 18.000 L 310.000 18.000 310.000 14.000 L 310.000 10.000 230.000 10.000 L 150.000 10.000 150.000 12.000 M94.000 64.000 L 94.000 66.000 92.000 66.000 L 90.000 66.000 90.000 68.000 L 90.000 70.000 88.000 70.000 L 86.000 70.000 86.000 72.000 L 86.000 74.000 84.000 74.000 L 82.000 74.000 82.000 76.000 L 82.000 78.000 80.000 78.000 L 78.000 78.000 78.000 80.000 L 78.000 82.000 76.000 82.000 L 74.000 82.000 74.000 84.000 L 74.000 86.000 72.000 86.000 L 70.000 86.000 70.000 88.000 L 70.000 90.000 68.000 90.000 L 66.000 90.000 66.000 92.000 L 66.000 94.000 64.000 94.000 L 62.000 94.000 62.000 96.000 L 62.000 98.000 60.000 98.000 L 58.000 98.000 58.000 106.000 L 58.000 114.000 56.000 114.000 L 54.000 114.000 54.000 130.000 L 54.000 146.000 52.000 146.000 L 50.000 146.000 50.000 162.000 L 50.000 178.000 48.000 178.000 L 46.000 178.000 46.000 196.000 L 46.000 214.000 44.000 214.000 L 42.000 214.000 42.000 218.000 L 42.000 222.000 44.000 222.000 L 46.000 222.000 46.000 226.000 L 46.000 230.000 48.000 230.000 L 50.000 230.000 50.000 232.000 L 50.000 234.000 52.000 234.000 L 54.000 234.000 54.000 236.000 L 54.000 238.000 56.000 238.000 L 58.000 238.000 58.000 240.000 L 58.000 242.000 60.000 242.000 L 62.000 242.000 62.000 246.000 L 62.000 250.000 64.000 250.000 L 66.000 250.000 66.000 252.000 L 66.000 254.000 68.000 254.000 L 70.000 254.000 70.000 256.000 L 70.000 258.000 72.000 258.000 L 74.000 258.000 74.000 260.000 L 74.000 262.000 78.000 262.000 L 82.000 262.000 82.000 260.000 L 82.000 258.000 84.000 258.000 L 86.000 258.000 86.000 256.000 L 86.000 254.000 88.000 254.000 L 90.000 254.000 90.000 252.000 L 90.000 250.000 92.000 250.000 L 94.000 250.000 94.000 248.000 L 94.000 246.000 96.000 246.000 L 98.000 246.000 98.000 244.000 L 98.000 242.000 100.000 242.000 L 102.000 242.000 102.000 240.000 L 102.000 238.000 104.000 238.000 L 106.000 238.000 106.000 236.000 L 106.000 234.000 108.000 234.000 L 110.000 234.000 110.000 232.000 L 110.000 230.000 114.000 230.000 L 118.000 230.000 118.000 228.000 L 118.000 226.000 120.000 226.000 L 122.000 226.000 122.000 216.000 L 122.000 206.000 124.000 206.000 L 126.000 206.000 126.000 190.000 L 126.000 174.000 128.000 174.000 L 130.000 174.000 130.000 158.000 L 130.000 142.000 132.000 142.000 L 134.000 142.000 134.000 124.000 L 134.000 106.000 136.000 106.000 L 138.000 106.000 138.000 102.000 L 138.000 98.000 136.000 98.000 L 134.000 98.000 134.000 96.000 L 134.000 94.000 132.000 94.000 L 130.000 94.000 130.000 92.000 L 130.000 90.000 128.000 90.000 L 126.000 90.000 126.000 86.000 L 126.000 82.000 124.000 82.000 L 122.000 82.000 122.000 80.000 L 122.000 78.000 120.000 78.000 L 118.000 78.000 118.000 76.000 L 118.000 74.000 116.000 74.000 L 114.000 74.000 114.000 72.000 L 114.000 70.000 112.000 70.000 L 110.000 70.000 110.000 68.000 L 110.000 66.000 108.000 66.000 L 106.000 66.000 106.000 64.000 L 106.000 62.000 100.000 62.000 L 94.000 62.000 94.000 64.000 M338.000 64.000 L 338.000 66.000 336.000 66.000 L 334.000 66.000 334.000 68.000 L 334.000 70.000 332.000 70.000 L 330.000 70.000 330.000 72.000 L 330.000 74.000 328.000 74.000 L 326.000 74.000 326.000 76.000 L 326.000 78.000 324.000 78.000 L 322.000 78.000 322.000 80.000 L 322.000 82.000 320.000 82.000 L 318.000 82.000 318.000 84.000 L 318.000 86.000 316.000 86.000 L 314.000 86.000 314.000 88.000 L 314.000 90.000 312.000 90.000 L 310.000 90.000 310.000 92.000 L 310.000 94.000 308.000 94.000 L 306.000 94.000 306.000 96.000 L 306.000 98.000 304.000 98.000 L 302.000 98.000 302.000 104.000 L 302.000 110.000 300.000 110.000 L 298.000 110.000 298.000 126.000 L 298.000 142.000 296.000 142.000 L 294.000 142.000 294.000 160.000 L 294.000 178.000 292.000 178.000 L 290.000 178.000 290.000 194.000 L 290.000 210.000 288.000 210.000 L 286.000 210.000 286.000 216.000 L 286.000 222.000 288.000 222.000 L 290.000 222.000 290.000 226.000 L 290.000 230.000 292.000 230.000 L 294.000 230.000 294.000 232.000 L 294.000 234.000 296.000 234.000 L 298.000 234.000 298.000 236.000 L 298.000 238.000 300.000 238.000 L 302.000 238.000 302.000 240.000 L 302.000 242.000 304.000 242.000 L 306.000 242.000 306.000 244.000 L 306.000 246.000 308.000 246.000 L 310.000 246.000 310.000 250.000 L 310.000 254.000 312.000 254.000 L 314.000 254.000 314.000 256.000 L 314.000 258.000 316.000 258.000 L 318.000 258.000 318.000 260.000 L 318.000 262.000 322.000 262.000 L 326.000 262.000 326.000 260.000 L 326.000 258.000 328.000 258.000 L 330.000 258.000 330.000 256.000 L 330.000 254.000 332.000 254.000 L 334.000 254.000 334.000 252.000 L 334.000 250.000 336.000 250.000 L 338.000 250.000 338.000 248.000 L 338.000 246.000 340.000 246.000 L 342.000 246.000 342.000 244.000 L 342.000 242.000 344.000 242.000 L 346.000 242.000 346.000 240.000 L 346.000 238.000 348.000 238.000 L 350.000 238.000 350.000 236.000 L 350.000 234.000 354.000 234.000 L 358.000 234.000 358.000 232.000 L 358.000 230.000 360.000 230.000 L 362.000 230.000 362.000 228.000 L 362.000 226.000 364.000 226.000 L 366.000 226.000 366.000 218.000 L 366.000 210.000 368.000 210.000 L 370.000 210.000 370.000 194.000 L 370.000 178.000 372.000 178.000 L 374.000 178.000 374.000 160.000 L 374.000 142.000 376.000 142.000 L 378.000 142.000 378.000 126.000 L 378.000 110.000 380.000 110.000 L 382.000 110.000 382.000 104.000 L 382.000 98.000 380.000 98.000 L 378.000 98.000 378.000 96.000 L 378.000 94.000 376.000 94.000 L 374.000 94.000 374.000 92.000 L 374.000 90.000 372.000 90.000 L 370.000 90.000 370.000 86.000 L 370.000 82.000 368.000 82.000 L 366.000 82.000 366.000 80.000 L 366.000 78.000 364.000 78.000 L 362.000 78.000 362.000 76.000 L 362.000 74.000 360.000 74.000 L 358.000 74.000 358.000 72.000 L 358.000 70.000 356.000 70.000 L 354.000 70.000 354.000 68.000 L 354.000 66.000 352.000 66.000 L 350.000 66.000 350.000 64.000 L 350.000 62.000 344.000 62.000 L 338.000 62.000 338.000 64.000 M70.000 284.000 L 70.000 286.000 68.000 286.000 L 66.000 286.000 66.000 288.000 L 66.000 290.000 64.000 290.000 L 62.000 290.000 62.000 292.000 L 62.000 294.000 60.000 294.000 L 58.000 294.000 58.000 296.000 L 58.000 298.000 56.000 298.000 L 54.000 298.000 54.000 300.000 L 54.000 302.000 52.000 302.000 L 50.000 302.000 50.000 304.000 L 50.000 306.000 46.000 306.000 L 42.000 306.000 42.000 308.000 L 42.000 310.000 40.000 310.000 L 38.000 310.000 38.000 312.000 L 38.000 314.000 36.000 314.000 L 34.000 314.000 34.000 316.000 L 34.000 318.000 32.000 318.000 L 30.000 318.000 30.000 332.000 L 30.000 346.000 28.000 346.000 L 26.000 346.000 26.000 362.000 L 26.000 378.000 24.000 378.000 L 22.000 378.000 22.000 396.000 L 22.000 414.000 20.000 414.000 L 18.000 414.000 18.000 432.000 L 18.000 450.000 20.000 450.000 L 22.000 450.000 22.000 452.000 L 22.000 454.000 24.000 454.000 L 26.000 454.000 26.000 456.000 L 26.000 458.000 28.000 458.000 L 30.000 458.000 30.000 460.000 L 30.000 462.000 32.000 462.000 L 34.000 462.000 34.000 464.000 L 34.000 466.000 36.000 466.000 L 38.000 466.000 38.000 470.000 L 38.000 474.000 40.000 474.000 L 42.000 474.000 42.000 476.000 L 42.000 478.000 44.000 478.000 L 46.000 478.000 46.000 480.000 L 46.000 482.000 52.000 482.000 L 58.000 482.000 58.000 480.000 L 58.000 478.000 60.000 478.000 L 62.000 478.000 62.000 476.000 L 62.000 474.000 64.000 474.000 L 66.000 474.000 66.000 472.000 L 66.000 470.000 68.000 470.000 L 70.000 470.000 70.000 468.000 L 70.000 466.000 72.000 466.000 L 74.000 466.000 74.000 464.000 L 74.000 462.000 76.000 462.000 L 78.000 462.000 78.000 460.000 L 78.000 458.000 80.000 458.000 L 82.000 458.000 82.000 456.000 L 82.000 454.000 84.000 454.000 L 86.000 454.000 86.000 452.000 L 86.000 450.000 88.000 450.000 L 90.000 450.000 90.000 448.000 L 90.000 446.000 92.000 446.000 L 94.000 446.000 94.000 442.000 L 94.000 438.000 96.000 438.000 L 98.000 438.000 98.000 422.000 L 98.000 406.000 100.000 406.000 L 102.000 406.000 102.000 390.000 L 102.000 374.000 104.000 374.000 L 106.000 374.000 106.000 356.000 L 106.000 338.000 108.000 338.000 L 110.000 338.000 110.000 328.000 L 110.000 318.000 108.000 318.000 L 106.000 318.000 106.000 316.000 L 106.000 314.000 104.000 314.000 L 102.000 314.000 102.000 310.000 L 102.000 306.000 100.000 306.000 L 98.000 306.000 98.000 304.000 L 98.000 302.000 96.000 302.000 L 94.000 302.000 94.000 300.000 L 94.000 298.000 92.000 298.000 L 90.000 298.000 90.000 296.000 L 90.000 294.000 88.000 294.000 L 86.000 294.000 86.000 292.000 L 86.000 290.000 84.000 290.000 L 82.000 290.000 82.000 288.000 L 82.000 286.000 80.000 286.000 L 78.000 286.000 78.000 284.000 L 78.000 282.000 74.000 282.000 L 70.000 282.000 70.000 284.000 M314.000 284.000 L 314.000 286.000 312.000 286.000 L 310.000 286.000 310.000 288.000 L 310.000 290.000 308.000 290.000 L 306.000 290.000 306.000 292.000 L 306.000 294.000 304.000 294.000 L 302.000 294.000 302.000 296.000 L 302.000 298.000 300.000 298.000 L 298.000 298.000 298.000 300.000 L 298.000 302.000 294.000 302.000 L 290.000 302.000 290.000 304.000 L 290.000 306.000 288.000 306.000 L 286.000 306.000 286.000 308.000 L 286.000 310.000 284.000 310.000 L 282.000 310.000 282.000 312.000 L 282.000 314.000 280.000 314.000 L 278.000 314.000 278.000 316.000 L 278.000 318.000 276.000 318.000 L 274.000 318.000 274.000 330.000 L 274.000 342.000 272.000 342.000 L 270.000 342.000 270.000 358.000 L 270.000 374.000 268.000 374.000 L 266.000 374.000 266.000 392.000 L 266.000 410.000 264.000 410.000 L 262.000 410.000 262.000 428.000 L 262.000 446.000 264.000 446.000 L 266.000 446.000 266.000 450.000 L 266.000 454.000 268.000 454.000 L 270.000 454.000 270.000 456.000 L 270.000 458.000 272.000 458.000 L 274.000 458.000 274.000 460.000 L 274.000 462.000 276.000 462.000 L 278.000 462.000 278.000 464.000 L 278.000 466.000 280.000 466.000 L 282.000 466.000 282.000 470.000 L 282.000 474.000 284.000 474.000 L 286.000 474.000 286.000 476.000 L 286.000 478.000 288.000 478.000 L 290.000 478.000 290.000 480.000 L 290.000 482.000 296.000 482.000 L 302.000 482.000 302.000 480.000 L 302.000 478.000 304.000 478.000 L 306.000 478.000 306.000 476.000 L 306.000 474.000 308.000 474.000 L 310.000 474.000 310.000 472.000 L 310.000 470.000 312.000 470.000 L 314.000 470.000 314.000 468.000 L 314.000 466.000 316.000 466.000 L 318.000 466.000 318.000 464.000 L 318.000 462.000 320.000 462.000 L 322.000 462.000 322.000 460.000 L 322.000 458.000 324.000 458.000 L 326.000 458.000 326.000 456.000 L 326.000 454.000 328.000 454.000 L 330.000 454.000 330.000 452.000 L 330.000 450.000 332.000 450.000 L 334.000 450.000 334.000 448.000 L 334.000 446.000 336.000 446.000 L 338.000 446.000 338.000 444.000 L 338.000 442.000 340.000 442.000 L 342.000 442.000 342.000 426.000 L 342.000 410.000 344.000 410.000 L 346.000 410.000 346.000 392.000 L 346.000 374.000 348.000 374.000 L 350.000 374.000 350.000 358.000 L 350.000 342.000 352.000 342.000 L 354.000 342.000 354.000 330.000 L 354.000 318.000 352.000 318.000 L 350.000 318.000 350.000 316.000 L 350.000 314.000 348.000 314.000 L 346.000 314.000 346.000 310.000 L 346.000 306.000 344.000 306.000 L 342.000 306.000 342.000 304.000 L 342.000 302.000 340.000 302.000 L 338.000 302.000 338.000 300.000 L 338.000 298.000 336.000 298.000 L 334.000 298.000 334.000 296.000 L 334.000 294.000 332.000 294.000 L 330.000 294.000 330.000 292.000 L 330.000 290.000 328.000 290.000 L 326.000 290.000 326.000 288.000 L 326.000 286.000 324.000 286.000 L 322.000 286.000 322.000 284.000 L 322.000 282.000 318.000 282.000 L 314.000 282.000 314.000 284.000 M98.000 452.000 L 98.000 454.000 96.000 454.000 L 94.000 454.000 94.000 456.000 L 94.000 458.000 92.000 458.000 L 90.000 458.000 90.000 460.000 L 90.000 462.000 88.000 462.000 L 86.000 462.000 86.000 464.000 L 86.000 466.000 84.000 466.000 L 82.000 466.000 82.000 468.000 L 82.000 470.000 80.000 470.000 L 78.000 470.000 78.000 472.000 L 78.000 474.000 76.000 474.000 L 74.000 474.000 74.000 476.000 L 74.000 478.000 72.000 478.000 L 70.000 478.000 70.000 480.000 L 70.000 482.000 68.000 482.000 L 66.000 482.000 66.000 484.000 L 66.000 486.000 64.000 486.000 L 62.000 486.000 62.000 494.000 L 62.000 502.000 64.000 502.000 L 66.000 502.000 66.000 504.000 L 66.000 506.000 68.000 506.000 L 70.000 506.000 70.000 508.000 L 70.000 510.000 72.000 510.000 L 74.000 510.000 74.000 512.000 L 74.000 514.000 76.000 514.000 L 78.000 514.000 78.000 518.000 L 78.000 522.000 80.000 522.000 L 82.000 522.000 82.000 524.000 L 82.000 526.000 84.000 526.000 L 86.000 526.000 86.000 528.000 L 86.000 530.000 88.000 530.000 L 90.000 530.000 90.000 532.000 L 90.000 534.000 168.000 534.000 L 246.000 534.000 246.000 532.000 L 246.000 530.000 248.000 530.000 L 250.000 530.000 250.000 528.000 L 250.000 526.000 252.000 526.000 L 254.000 526.000 254.000 524.000 L 254.000 522.000 256.000 522.000 L 258.000 522.000 258.000 520.000 L 258.000 518.000 260.000 518.000 L 262.000 518.000 262.000 516.000 L 262.000 514.000 264.000 514.000 L 266.000 514.000 266.000 512.000 L 266.000 510.000 268.000 510.000 L 270.000 510.000 270.000 508.000 L 270.000 506.000 272.000 506.000 L 274.000 506.000 274.000 504.000 L 274.000 502.000 276.000 502.000 L 278.000 502.000 278.000 500.000 L 278.000 498.000 280.000 498.000 L 282.000 498.000 282.000 490.000 L 282.000 482.000 280.000 482.000 L 278.000 482.000 278.000 480.000 L 278.000 478.000 276.000 478.000 L 274.000 478.000 274.000 476.000 L 274.000 474.000 272.000 474.000 L 270.000 474.000 270.000 472.000 L 270.000 470.000 268.000 470.000 L 266.000 470.000 266.000 466.000 L 266.000 462.000 264.000 462.000 L 262.000 462.000 262.000 460.000 L 262.000 458.000 260.000 458.000 L 258.000 458.000 258.000 456.000 L 258.000 454.000 256.000 454.000 L 254.000 454.000 254.000 452.000 L 254.000 450.000 176.000 450.000 L 98.000 450.000 98.000 452.000 " stroke="none" fill="#000000" fill-rule="evenodd"></path><path id="path4" d="M150.000 12.000 L 150.000 14.000 148.000 14.000 L 146.000 14.000 146.000 16.000 L 146.000 18.000 144.000 18.000 L 142.000 18.000 142.000 20.000 L 142.000 22.000 140.000 22.000 L 138.000 22.000 138.000 24.000 L 138.000 26.000 136.000 26.000 L 134.000 26.000 134.000 28.000 L 134.000 30.000 132.000 30.000 L 130.000 30.000 130.000 32.000 L 130.000 34.000 128.000 34.000 L 126.000 34.000 126.000 36.000 L 126.000 38.000 124.000 38.000 L 122.000 38.000 122.000 40.000 L 122.000 42.000 120.000 42.000 L 118.000 42.000 118.000 44.000 L 118.000 46.000 116.000 46.000 L 114.000 46.000 114.000 52.000 L 114.000 58.000 116.000 58.000 L 118.000 58.000 118.000 60.000 L 118.000 62.000 120.000 62.000 L 122.000 62.000 122.000 66.000 L 122.000 70.000 124.000 70.000 L 126.000 70.000 126.000 72.000 L 126.000 74.000 128.000 74.000 L 130.000 74.000 130.000 76.000 L 130.000 78.000 132.000 78.000 L 134.000 78.000 134.000 80.000 L 134.000 82.000 136.000 82.000 L 138.000 82.000 138.000 86.000 L 138.000 90.000 140.000 90.000 L 142.000 90.000 142.000 92.000 L 142.000 94.000 220.000 94.000 L 298.000 94.000 298.000 92.000 L 298.000 90.000 300.000 90.000 L 302.000 90.000 302.000 88.000 L 302.000 86.000 304.000 86.000 L 306.000 86.000 306.000 84.000 L 306.000 82.000 308.000 82.000 L 310.000 82.000 310.000 80.000 L 310.000 78.000 312.000 78.000 L 314.000 78.000 314.000 76.000 L 314.000 74.000 316.000 74.000 L 318.000 74.000 318.000 72.000 L 318.000 70.000 320.000 70.000 L 322.000 70.000 322.000 68.000 L 322.000 66.000 324.000 66.000 L 326.000 66.000 326.000 64.000 L 326.000 62.000 328.000 62.000 L 330.000 62.000 330.000 60.000 L 330.000 58.000 332.000 58.000 L 334.000 58.000 334.000 56.000 L 334.000 54.000 336.000 54.000 L 338.000 54.000 338.000 50.000 L 338.000 46.000 336.000 46.000 L 334.000 46.000 334.000 44.000 L 334.000 42.000 332.000 42.000 L 330.000 42.000 330.000 40.000 L 330.000 38.000 328.000 38.000 L 326.000 38.000 326.000 34.000 L 326.000 30.000 324.000 30.000 L 322.000 30.000 322.000 28.000 L 322.000 26.000 320.000 26.000 L 318.000 26.000 318.000 24.000 L 318.000 22.000 316.000 22.000 L 314.000 22.000 314.000 20.000 L 314.000 18.000 312.000 18.000 L 310.000 18.000 310.000 14.000 L 310.000 10.000 230.000 10.000 L 150.000 10.000 150.000 12.000 M94.000 64.000 L 94.000 66.000 92.000 66.000 L 90.000 66.000 90.000 68.000 L 90.000 70.000 88.000 70.000 L 86.000 70.000 86.000 72.000 L 86.000 74.000 84.000 74.000 L 82.000 74.000 82.000 76.000 L 82.000 78.000 80.000 78.000 L 78.000 78.000 78.000 80.000 L 78.000 82.000 76.000 82.000 L 74.000 82.000 74.000 84.000 L 74.000 86.000 72.000 86.000 L 70.000 86.000 70.000 88.000 L 70.000 90.000 68.000 90.000 L 66.000 90.000 66.000 92.000 L 66.000 94.000 64.000 94.000 L 62.000 94.000 62.000 96.000 L 62.000 98.000 60.000 98.000 L 58.000 98.000 58.000 106.000 L 58.000 114.000 56.000 114.000 L 54.000 114.000 54.000 130.000 L 54.000 146.000 52.000 146.000 L 50.000 146.000 50.000 162.000 L 50.000 178.000 48.000 178.000 L 46.000 178.000 46.000 196.000 L 46.000 214.000 44.000 214.000 L 42.000 214.000 42.000 218.000 L 42.000 222.000 44.000 222.000 L 46.000 222.000 46.000 226.000 L 46.000 230.000 48.000 230.000 L 50.000 230.000 50.000 232.000 L 50.000 234.000 52.000 234.000 L 54.000 234.000 54.000 236.000 L 54.000 238.000 56.000 238.000 L 58.000 238.000 58.000 240.000 L 58.000 242.000 60.000 242.000 L 62.000 242.000 62.000 246.000 L 62.000 250.000 64.000 250.000 L 66.000 250.000 66.000 252.000 L 66.000 254.000 68.000 254.000 L 70.000 254.000 70.000 256.000 L 70.000 258.000 72.000 258.000 L 74.000 258.000 74.000 260.000 L 74.000 262.000 78.000 262.000 L 82.000 262.000 82.000 260.000 L 82.000 258.000 84.000 258.000 L 86.000 258.000 86.000 256.000 L 86.000 254.000 88.000 254.000 L 90.000 254.000 90.000 252.000 L 90.000 250.000 92.000 250.000 L 94.000 250.000 94.000 248.000 L 94.000 246.000 96.000 246.000 L 98.000 246.000 98.000 244.000 L 98.000 242.000 100.000 242.000 L 102.000 242.000 102.000 240.000 L 102.000 238.000 104.000 238.000 L 106.000 238.000 106.000 236.000 L 106.000 234.000 108.000 234.000 L 110.000 234.000 110.000 232.000 L 110.000 230.000 114.000 230.000 L 118.000 230.000 118.000 228.000 L 118.000 226.000 120.000 226.000 L 122.000 226.000 122.000 216.000 L 122.000 206.000 124.000 206.000 L 126.000 206.000 126.000 190.000 L 126.000 174.000 128.000 174.000 L 130.000 174.000 130.000 158.000 L 130.000 142.000 132.000 142.000 L 134.000 142.000 134.000 124.000 L 134.000 106.000 136.000 106.000 L 138.000 106.000 138.000 102.000 L 138.000 98.000 136.000 98.000 L 134.000 98.000 134.000 96.000 L 134.000 94.000 132.000 94.000 L 130.000 94.000 130.000 92.000 L 130.000 90.000 128.000 90.000 L 126.000 90.000 126.000 86.000 L 126.000 82.000 124.000 82.000 L 122.000 82.000 122.000 80.000 L 122.000 78.000 120.000 78.000 L 118.000 78.000 118.000 76.000 L 118.000 74.000 116.000 74.000 L 114.000 74.000 114.000 72.000 L 114.000 70.000 112.000 70.000 L 110.000 70.000 110.000 68.000 L 110.000 66.000 108.000 66.000 L 106.000 66.000 106.000 64.000 L 106.000 62.000 100.000 62.000 L 94.000 62.000 94.000 64.000 M338.000 64.000 L 338.000 66.000 336.000 66.000 L 334.000 66.000 334.000 68.000 L 334.000 70.000 332.000 70.000 L 330.000 70.000 330.000 72.000 L 330.000 74.000 328.000 74.000 L 326.000 74.000 326.000 76.000 L 326.000 78.000 324.000 78.000 L 322.000 78.000 322.000 80.000 L 322.000 82.000 320.000 82.000 L 318.000 82.000 318.000 84.000 L 318.000 86.000 316.000 86.000 L 314.000 86.000 314.000 88.000 L 314.000 90.000 312.000 90.000 L 310.000 90.000 310.000 92.000 L 310.000 94.000 308.000 94.000 L 306.000 94.000 306.000 96.000 L 306.000 98.000 304.000 98.000 L 302.000 98.000 302.000 104.000 L 302.000 110.000 300.000 110.000 L 298.000 110.000 298.000 126.000 L 298.000 142.000 296.000 142.000 L 294.000 142.000 294.000 160.000 L 294.000 178.000 292.000 178.000 L 290.000 178.000 290.000 194.000 L 290.000 210.000 288.000 210.000 L 286.000 210.000 286.000 216.000 L 286.000 222.000 288.000 222.000 L 290.000 222.000 290.000 226.000 L 290.000 230.000 292.000 230.000 L 294.000 230.000 294.000 232.000 L 294.000 234.000 296.000 234.000 L 298.000 234.000 298.000 236.000 L 298.000 238.000 300.000 238.000 L 302.000 238.000 302.000 240.000 L 302.000 242.000 304.000 242.000 L 306.000 242.000 306.000 244.000 L 306.000 246.000 308.000 246.000 L 310.000 246.000 310.000 250.000 L 310.000 254.000 312.000 254.000 L 314.000 254.000 314.000 256.000 L 314.000 258.000 316.000 258.000 L 318.000 258.000 318.000 260.000 L 318.000 262.000 322.000 262.000 L 326.000 262.000 326.000 260.000 L 326.000 258.000 328.000 258.000 L 330.000 258.000 330.000 256.000 L 330.000 254.000 332.000 254.000 L 334.000 254.000 334.000 252.000 L 334.000 250.000 336.000 250.000 L 338.000 250.000 338.000 248.000 L 338.000 246.000 340.000 246.000 L 342.000 246.000 342.000 244.000 L 342.000 242.000 344.000 242.000 L 346.000 242.000 346.000 240.000 L 346.000 238.000 348.000 238.000 L 350.000 238.000 350.000 236.000 L 350.000 234.000 354.000 234.000 L 358.000 234.000 358.000 232.000 L 358.000 230.000 360.000 230.000 L 362.000 230.000 362.000 228.000 L 362.000 226.000 364.000 226.000 L 366.000 226.000 366.000 218.000 L 366.000 210.000 368.000 210.000 L 370.000 210.000 370.000 194.000 L 370.000 178.000 372.000 178.000 L 374.000 178.000 374.000 160.000 L 374.000 142.000 376.000 142.000 L 378.000 142.000 378.000 126.000 L 378.000 110.000 380.000 110.000 L 382.000 110.000 382.000 104.000 L 382.000 98.000 380.000 98.000 L 378.000 98.000 378.000 96.000 L 378.000 94.000 376.000 94.000 L 374.000 94.000 374.000 92.000 L 374.000 90.000 372.000 90.000 L 370.000 90.000 370.000 86.000 L 370.000 82.000 368.000 82.000 L 366.000 82.000 366.000 80.000 L 366.000 78.000 364.000 78.000 L 362.000 78.000 362.000 76.000 L 362.000 74.000 360.000 74.000 L 358.000 74.000 358.000 72.000 L 358.000 70.000 356.000 70.000 L 354.000 70.000 354.000 68.000 L 354.000 66.000 352.000 66.000 L 350.000 66.000 350.000 64.000 L 350.000 62.000 344.000 62.000 L 338.000 62.000 338.000 64.000 M70.000 284.000 L 70.000 286.000 68.000 286.000 L 66.000 286.000 66.000 288.000 L 66.000 290.000 64.000 290.000 L 62.000 290.000 62.000 292.000 L 62.000 294.000 60.000 294.000 L 58.000 294.000 58.000 296.000 L 58.000 298.000 56.000 298.000 L 54.000 298.000 54.000 300.000 L 54.000 302.000 52.000 302.000 L 50.000 302.000 50.000 304.000 L 50.000 306.000 46.000 306.000 L 42.000 306.000 42.000 308.000 L 42.000 310.000 40.000 310.000 L 38.000 310.000 38.000 312.000 L 38.000 314.000 36.000 314.000 L 34.000 314.000 34.000 316.000 L 34.000 318.000 32.000 318.000 L 30.000 318.000 30.000 332.000 L 30.000 346.000 28.000 346.000 L 26.000 346.000 26.000 362.000 L 26.000 378.000 24.000 378.000 L 22.000 378.000 22.000 396.000 L 22.000 414.000 20.000 414.000 L 18.000 414.000 18.000 432.000 L 18.000 450.000 20.000 450.000 L 22.000 450.000 22.000 452.000 L 22.000 454.000 24.000 454.000 L 26.000 454.000 26.000 456.000 L 26.000 458.000 28.000 458.000 L 30.000 458.000 30.000 460.000 L 30.000 462.000 32.000 462.000 L 34.000 462.000 34.000 464.000 L 34.000 466.000 36.000 466.000 L 38.000 466.000 38.000 470.000 L 38.000 474.000 40.000 474.000 L 42.000 474.000 42.000 476.000 L 42.000 478.000 44.000 478.000 L 46.000 478.000 46.000 480.000 L 46.000 482.000 52.000 482.000 L 58.000 482.000 58.000 480.000 L 58.000 478.000 60.000 478.000 L 62.000 478.000 62.000 476.000 L 62.000 474.000 64.000 474.000 L 66.000 474.000 66.000 472.000 L 66.000 470.000 68.000 470.000 L 70.000 470.000 70.000 468.000 L 70.000 466.000 72.000 466.000 L 74.000 466.000 74.000 464.000 L 74.000 462.000 76.000 462.000 L 78.000 462.000 78.000 460.000 L 78.000 458.000 80.000 458.000 L 82.000 458.000 82.000 456.000 L 82.000 454.000 84.000 454.000 L 86.000 454.000 86.000 452.000 L 86.000 450.000 88.000 450.000 L 90.000 450.000 90.000 448.000 L 90.000 446.000 92.000 446.000 L 94.000 446.000 94.000 442.000 L 94.000 438.000 96.000 438.000 L 98.000 438.000 98.000 422.000 L 98.000 406.000 100.000 406.000 L 102.000 406.000 102.000 390.000 L 102.000 374.000 104.000 374.000 L 106.000 374.000 106.000 356.000 L 106.000 338.000 108.000 338.000 L 110.000 338.000 110.000 328.000 L 110.000 318.000 108.000 318.000 L 106.000 318.000 106.000 316.000 L 106.000 314.000 104.000 314.000 L 102.000 314.000 102.000 310.000 L 102.000 306.000 100.000 306.000 L 98.000 306.000 98.000 304.000 L 98.000 302.000 96.000 302.000 L 94.000 302.000 94.000 300.000 L 94.000 298.000 92.000 298.000 L 90.000 298.000 90.000 296.000 L 90.000 294.000 88.000 294.000 L 86.000 294.000 86.000 292.000 L 86.000 290.000 84.000 290.000 L 82.000 290.000 82.000 288.000 L 82.000 286.000 80.000 286.000 L 78.000 286.000 78.000 284.000 L 78.000 282.000 74.000 282.000 L 70.000 282.000 70.000 284.000 M314.000 284.000 L 314.000 286.000 312.000 286.000 L 310.000 286.000 310.000 288.000 L 310.000 290.000 308.000 290.000 L 306.000 290.000 306.000 292.000 L 306.000 294.000 304.000 294.000 L 302.000 294.000 302.000 296.000 L 302.000 298.000 300.000 298.000 L 298.000 298.000 298.000 300.000 L 298.000 302.000 294.000 302.000 L 290.000 302.000 290.000 304.000 L 290.000 306.000 288.000 306.000 L 286.000 306.000 286.000 308.000 L 286.000 310.000 284.000 310.000 L 282.000 310.000 282.000 312.000 L 282.000 314.000 280.000 314.000 L 278.000 314.000 278.000 316.000 L 278.000 318.000 276.000 318.000 L 274.000 318.000 274.000 330.000 L 274.000 342.000 272.000 342.000 L 270.000 342.000 270.000 358.000 L 270.000 374.000 268.000 374.000 L 266.000 374.000 266.000 392.000 L 266.000 410.000 264.000 410.000 L 262.000 410.000 262.000 428.000 L 262.000 446.000 264.000 446.000 L 266.000 446.000 266.000 450.000 L 266.000 454.000 268.000 454.000 L 270.000 454.000 270.000 456.000 L 270.000 458.000 272.000 458.000 L 274.000 458.000 274.000 460.000 L 274.000 462.000 276.000 462.000 L 278.000 462.000 278.000 464.000 L 278.000 466.000 280.000 466.000 L 282.000 466.000 282.000 470.000 L 282.000 474.000 284.000 474.000 L 286.000 474.000 286.000 476.000 L 286.000 478.000 288.000 478.000 L 290.000 478.000 290.000 480.000 L 290.000 482.000 296.000 482.000 L 302.000 482.000 302.000 480.000 L 302.000 478.000 304.000 478.000 L 306.000 478.000 306.000 476.000 L 306.000 474.000 308.000 474.000 L 310.000 474.000 310.000 472.000 L 310.000 470.000 312.000 470.000 L 314.000 470.000 314.000 468.000 L 314.000 466.000 316.000 466.000 L 318.000 466.000 318.000 464.000 L 318.000 462.000 320.000 462.000 L 322.000 462.000 322.000 460.000 L 322.000 458.000 324.000 458.000 L 326.000 458.000 326.000 456.000 L 326.000 454.000 328.000 454.000 L 330.000 454.000 330.000 452.000 L 330.000 450.000 332.000 450.000 L 334.000 450.000 334.000 448.000 L 334.000 446.000 336.000 446.000 L 338.000 446.000 338.000 444.000 L 338.000 442.000 340.000 442.000 L 342.000 442.000 342.000 426.000 L 342.000 410.000 344.000 410.000 L 346.000 410.000 346.000 392.000 L 346.000 374.000 348.000 374.000 L 350.000 374.000 350.000 358.000 L 350.000 342.000 352.000 342.000 L 354.000 342.000 354.000 330.000 L 354.000 318.000 352.000 318.000 L 350.000 318.000 350.000 316.000 L 350.000 314.000 348.000 314.000 L 346.000 314.000 346.000 310.000 L 346.000 306.000 344.000 306.000 L 342.000 306.000 342.000 304.000 L 342.000 302.000 340.000 302.000 L 338.000 302.000 338.000 300.000 L 338.000 298.000 336.000 298.000 L 334.000 298.000 334.000 296.000 L 334.000 294.000 332.000 294.000 L 330.000 294.000 330.000 292.000 L 330.000 290.000 328.000 290.000 L 326.000 290.000 326.000 288.000 L 326.000 286.000 324.000 286.000 L 322.000 286.000 322.000 284.000 L 322.000 282.000 318.000 282.000 L 314.000 282.000 314.000 284.000 M98.000 452.000 L 98.000 454.000 96.000 454.000 L 94.000 454.000 94.000 456.000 L 94.000 458.000 92.000 458.000 L 90.000 458.000 90.000 460.000 L 90.000 462.000 88.000 462.000 L 86.000 462.000 86.000 464.000 L 86.000 466.000 84.000 466.000 L 82.000 466.000 82.000 468.000 L 82.000 470.000 80.000 470.000 L 78.000 470.000 78.000 472.000 L 78.000 474.000 76.000 474.000 L 74.000 474.000 74.000 476.000 L 74.000 478.000 72.000 478.000 L 70.000 478.000 70.000 480.000 L 70.000 482.000 68.000 482.000 L 66.000 482.000 66.000 484.000 L 66.000 486.000 64.000 486.000 L 62.000 486.000 62.000 494.000 L 62.000 502.000 64.000 502.000 L 66.000 502.000 66.000 504.000 L 66.000 506.000 68.000 506.000 L 70.000 506.000 70.000 508.000 L 70.000 510.000 72.000 510.000 L 74.000 510.000 74.000 512.000 L 74.000 514.000 76.000 514.000 L 78.000 514.000 78.000 518.000 L 78.000 522.000 80.000 522.000 L 82.000 522.000 82.000 524.000 L 82.000 526.000 84.000 526.000 L 86.000 526.000 86.000 528.000 L 86.000 530.000 88.000 530.000 L 90.000 530.000 90.000 532.000 L 90.000 534.000 168.000 534.000 L 246.000 534.000 246.000 532.000 L 246.000 530.000 248.000 530.000 L 250.000 530.000 250.000 528.000 L 250.000 526.000 252.000 526.000 L 254.000 526.000 254.000 524.000 L 254.000 522.000 256.000 522.000 L 258.000 522.000 258.000 520.000 L 258.000 518.000 260.000 518.000 L 262.000 518.000 262.000 516.000 L 262.000 514.000 264.000 514.000 L 266.000 514.000 266.000 512.000 L 266.000 510.000 268.000 510.000 L 270.000 510.000 270.000 508.000 L 270.000 506.000 272.000 506.000 L 274.000 506.000 274.000 504.000 L 274.000 502.000 276.000 502.000 L 278.000 502.000 278.000 500.000 L 278.000 498.000 280.000 498.000 L 282.000 498.000 282.000 490.000 L 282.000 482.000 280.000 482.000 L 278.000 482.000 278.000 480.000 L 278.000 478.000 276.000 478.000 L 274.000 478.000 274.000 476.000 L 274.000 474.000 272.000 474.000 L 270.000 474.000 270.000 472.000 L 270.000 470.000 268.000 470.000 L 266.000 470.000 266.000 466.000 L 266.000 462.000 264.000 462.000 L 262.000 462.000 262.000 460.000 L 262.000 458.000 260.000 458.000 L 258.000 458.000 258.000 456.000 L 258.000 454.000 256.000 454.000 L 254.000 454.000 254.000 452.000 L 254.000 450.000 176.000 450.000 L 98.000 450.000 98.000 452.000 " stroke="none" fill="#000000" fill-rule="evenodd"></path></g></svg>