<svg id="svg" version="1.1" width="400" height="548" xmlns="http://www.w3.org/2000/svg" xmlns:xlink="http://www.w3.org/1999/xlink" style="display: block;"><g id="svgg"><path id="path0" d="M154.000 12.000 L 154.000 14.000 152.000 14.000 L 150.000 14.000 150.000 16.000 L 150.000 18.000 148.000 18.000 L 146.000 18.000 146.000 20.000 L 146.000 22.000 144.000 22.000 L 142.000 22.000 142.000 24.000 L 142.000 26.000 140.000 26.000 L 138.000 26.000 138.000 28.000 L 138.000 30.000 136.000 30.000 L 134.000 30.000 134.000 32.000 L 134.000 34.000 132.000 34.000 L 130.000 34.000 130.000 36.000 L 130.000 38.000 128.000 38.000 L 126.000 38.000 126.000 40.000 L 126.000 42.000 124.000 42.000 L 122.000 42.000 122.000 44.000 L 122.000 46.000 120.000 46.000 L 118.000 46.000 118.000 54.000 L 118.000 62.000 120.000 62.000 L 122.000 62.000 122.000 64.000 L 122.000 66.000 124.000 66.000 L 126.000 66.000 126.000 68.000 L 126.000 70.000 128.000 70.000 L 130.000 70.000 130.000 72.000 L 130.000 74.000 132.000 74.000 L 134.000 74.000 134.000 78.000 L 134.000 82.000 136.000 82.000 L 138.000 82.000 138.000 84.000 L 138.000 86.000 140.000 86.000 L 142.000 86.000 142.000 88.000 L 142.000 90.000 144.000 90.000 L 146.000 90.000 146.000 92.000 L 146.000 94.000 224.000 94.000 L 302.000 94.000 302.000 92.000 L 302.000 90.000 304.000 90.000 L 306.000 90.000 306.000 88.000 L 306.000 86.000 308.000 86.000 L 310.000 86.000 310.000 84.000 L 310.000 82.000 312.000 82.000 L 314.000 82.000 314.000 80.000 L 314.000 78.000 316.000 78.000 L 318.000 78.000 318.000 76.000 L 318.000 74.000 320.000 74.000 L 322.000 74.000 322.000 72.000 L 322.000 70.000 324.000 70.000 L 326.000 70.000 326.000 68.000 L 326.000 66.000 328.000 66.000 L 330.000 66.000 330.000 64.000 L 330.000 62.000 332.000 62.000 L 334.000 62.000 334.000 60.000 L 334.000 58.000 336.000 58.000 L 338.000 58.000 338.000 50.000 L 338.000 42.000 336.000 42.000 L 334.000 42.000 334.000 40.000 L 334.000 38.000 332.000 38.000 L 330.000 38.000 330.000 36.000 L 330.000 34.000 328.000 34.000 L 326.000 34.000 326.000 32.000 L 326.000 30.000 324.000 30.000 L 322.000 30.000 322.000 26.000 L 322.000 22.000 320.000 22.000 L 318.000 22.000 318.000 20.000 L 318.000 18.000 316.000 18.000 L 314.000 18.000 314.000 16.000 L 314.000 14.000 312.000 14.000 L 310.000 14.000 310.000 12.000 L 310.000 10.000 232.000 10.000 L 154.000 10.000 154.000 12.000 M338.000 64.000 L 338.000 66.000 336.000 66.000 L 334.000 66.000 334.000 68.000 L 334.000 70.000 332.000 70.000 L 330.000 70.000 330.000 72.000 L 330.000 74.000 328.000 74.000 L 326.000 74.000 326.000 76.000 L 326.000 78.000 324.000 78.000 L 322.000 78.000 322.000 80.000 L 322.000 82.000 320.000 82.000 L 318.000 82.000 318.000 84.000 L 318.000 86.000 316.000 86.000 L 314.000 86.000 314.000 88.000 L 314.000 90.000 312.000 90.000 L 310.000 90.000 310.000 92.000 L 310.000 94.000 308.000 94.000 L 306.000 94.000 306.000 96.000 L 306.000 98.000 304.000 98.000 L 302.000 98.000 302.000 104.000 L 302.000 110.000 300.000 110.000 L 298.000 110.000 298.000 126.000 L 298.000 142.000 296.000 142.000 L 294.000 142.000 294.000 160.000 L 294.000 178.000 292.000 178.000 L 290.000 178.000 290.000 194.000 L 290.000 210.000 288.000 210.000 L 286.000 210.000 286.000 216.000 L 286.000 222.000 288.000 222.000 L 290.000 222.000 290.000 226.000 L 290.000 230.000 292.000 230.000 L 294.000 230.000 294.000 232.000 L 294.000 234.000 296.000 234.000 L 298.000 234.000 298.000 236.000 L 298.000 238.000 300.000 238.000 L 302.000 238.000 302.000 240.000 L 302.000 242.000 304.000 242.000 L 306.000 242.000 306.000 244.000 L 306.000 246.000 308.000 246.000 L 310.000 246.000 310.000 250.000 L 310.000 254.000 312.000 254.000 L 314.000 254.000 314.000 256.000 L 314.000 258.000 316.000 258.000 L 318.000 258.000 318.000 260.000 L 318.000 262.000 322.000 262.000 L 326.000 262.000 326.000 260.000 L 326.000 258.000 328.000 258.000 L 330.000 258.000 330.000 256.000 L 330.000 254.000 332.000 254.000 L 334.000 254.000 334.000 252.000 L 334.000 250.000 336.000 250.000 L 338.000 250.000 338.000 248.000 L 338.000 246.000 340.000 246.000 L 342.000 246.000 342.000 244.000 L 342.000 242.000 344.000 242.000 L 346.000 242.000 346.000 240.000 L 346.000 238.000 348.000 238.000 L 350.000 238.000 350.000 236.000 L 350.000 234.000 354.000 234.000 L 358.000 234.000 358.000 232.000 L 358.000 230.000 360.000 230.000 L 362.000 230.000 362.000 228.000 L 362.000 226.000 364.000 226.000 L 366.000 226.000 366.000 218.000 L 366.000 210.000 368.000 210.000 L 370.000 210.000 370.000 194.000 L 370.000 178.000 372.000 178.000 L 374.000 178.000 374.000 160.000 L 374.000 142.000 376.000 142.000 L 378.000 142.000 378.000 126.000 L 378.000 110.000 380.000 110.000 L 382.000 110.000 382.000 104.000 L 382.000 98.000 380.000 98.000 L 378.000 98.000 378.000 96.000 L 378.000 94.000 376.000 94.000 L 374.000 94.000 374.000 92.000 L 374.000 90.000 372.000 90.000 L 370.000 90.000 370.000 86.000 L 370.000 82.000 368.000 82.000 L 366.000 82.000 366.000 80.000 L 366.000 78.000 364.000 78.000 L 362.000 78.000 362.000 76.000 L 362.000 74.000 360.000 74.000 L 358.000 74.000 358.000 72.000 L 358.000 70.000 356.000 70.000 L 354.000 70.000 354.000 68.000 L 354.000 66.000 352.000 66.000 L 350.000 66.000 350.000 64.000 L 350.000 62.000 344.000 62.000 L 338.000 62.000 338.000 64.000 M126.000 232.000 L 126.000 234.000 124.000 234.000 L 122.000 234.000 122.000 236.000 L 122.000 238.000 120.000 238.000 L 118.000 238.000 118.000 240.000 L 118.000 242.000 116.000 242.000 L 114.000 242.000 114.000 244.000 L 114.000 246.000 112.000 246.000 L 110.000 246.000 110.000 248.000 L 110.000 250.000 108.000 250.000 L 106.000 250.000 106.000 252.000 L 106.000 254.000 104.000 254.000 L 102.000 254.000 102.000 256.000 L 102.000 258.000 100.000 258.000 L 98.000 258.000 98.000 260.000 L 98.000 262.000 96.000 262.000 L 94.000 262.000 94.000 264.000 L 94.000 266.000 92.000 266.000 L 90.000 266.000 90.000 274.000 L 90.000 282.000 92.000 282.000 L 94.000 282.000 94.000 284.000 L 94.000 286.000 96.000 286.000 L 98.000 286.000 98.000 288.000 L 98.000 290.000 100.000 290.000 L 102.000 290.000 102.000 292.000 L 102.000 294.000 104.000 294.000 L 106.000 294.000 106.000 298.000 L 106.000 302.000 108.000 302.000 L 110.000 302.000 110.000 304.000 L 110.000 306.000 112.000 306.000 L 114.000 306.000 114.000 308.000 L 114.000 310.000 116.000 310.000 L 118.000 310.000 118.000 312.000 L 118.000 314.000 196.000 314.000 L 274.000 314.000 274.000 312.000 L 274.000 310.000 276.000 310.000 L 278.000 310.000 278.000 308.000 L 278.000 306.000 280.000 306.000 L 282.000 306.000 282.000 304.000 L 282.000 302.000 284.000 302.000 L 286.000 302.000 286.000 300.000 L 286.000 298.000 288.000 298.000 L 290.000 298.000 290.000 296.000 L 290.000 294.000 292.000 294.000 L 294.000 294.000 294.000 292.000 L 294.000 290.000 296.000 290.000 L 298.000 290.000 298.000 288.000 L 298.000 286.000 300.000 286.000 L 302.000 286.000 302.000 284.000 L 302.000 282.000 304.000 282.000 L 306.000 282.000 306.000 280.000 L 306.000 278.000 308.000 278.000 L 310.000 278.000 310.000 270.000 L 310.000 262.000 308.000 262.000 L 306.000 262.000 306.000 260.000 L 306.000 258.000 304.000 258.000 L 302.000 258.000 302.000 256.000 L 302.000 254.000 300.000 254.000 L 298.000 254.000 298.000 252.000 L 298.000 250.000 296.000 250.000 L 294.000 250.000 294.000 246.000 L 294.000 242.000 292.000 242.000 L 290.000 242.000 290.000 240.000 L 290.000 238.000 288.000 238.000 L 286.000 238.000 286.000 236.000 L 286.000 234.000 284.000 234.000 L 282.000 234.000 282.000 232.000 L 282.000 230.000 204.000 230.000 L 126.000 230.000 126.000 232.000 M314.000 284.000 L 314.000 286.000 312.000 286.000 L 310.000 286.000 310.000 288.000 L 310.000 290.000 308.000 290.000 L 306.000 290.000 306.000 292.000 L 306.000 294.000 304.000 294.000 L 302.000 294.000 302.000 296.000 L 302.000 298.000 300.000 298.000 L 298.000 298.000 298.000 300.000 L 298.000 302.000 296.000 302.000 L 294.000 302.000 294.000 304.000 L 294.000 306.000 292.000 306.000 L 290.000 306.000 290.000 308.000 L 290.000 310.000 288.000 310.000 L 286.000 310.000 286.000 312.000 L 286.000 314.000 284.000 314.000 L 282.000 314.000 282.000 316.000 L 282.000 318.000 280.000 318.000 L 278.000 318.000 278.000 324.000 L 278.000 330.000 276.000 330.000 L 274.000 330.000 274.000 346.000 L 274.000 362.000 272.000 362.000 L 270.000 362.000 270.000 380.000 L 270.000 398.000 268.000 398.000 L 266.000 398.000 266.000 414.000 L 266.000 430.000 264.000 430.000 L 262.000 430.000 262.000 436.000 L 262.000 442.000 264.000 442.000 L 266.000 442.000 266.000 446.000 L 266.000 450.000 268.000 450.000 L 270.000 450.000 270.000 452.000 L 270.000 454.000 272.000 454.000 L 274.000 454.000 274.000 456.000 L 274.000 458.000 276.000 458.000 L 278.000 458.000 278.000 460.000 L 278.000 462.000 280.000 462.000 L 282.000 462.000 282.000 464.000 L 282.000 466.000 284.000 466.000 L 286.000 466.000 286.000 470.000 L 286.000 474.000 288.000 474.000 L 290.000 474.000 290.000 476.000 L 290.000 478.000 292.000 478.000 L 294.000 478.000 294.000 480.000 L 294.000 482.000 298.000 482.000 L 302.000 482.000 302.000 480.000 L 302.000 478.000 304.000 478.000 L 306.000 478.000 306.000 476.000 L 306.000 474.000 308.000 474.000 L 310.000 474.000 310.000 472.000 L 310.000 470.000 312.000 470.000 L 314.000 470.000 314.000 468.000 L 314.000 466.000 316.000 466.000 L 318.000 466.000 318.000 464.000 L 318.000 462.000 320.000 462.000 L 322.000 462.000 322.000 460.000 L 322.000 458.000 324.000 458.000 L 326.000 458.000 326.000 456.000 L 326.000 454.000 330.000 454.000 L 334.000 454.000 334.000 452.000 L 334.000 450.000 336.000 450.000 L 338.000 450.000 338.000 448.000 L 338.000 446.000 340.000 446.000 L 342.000 446.000 342.000 438.000 L 342.000 430.000 344.000 430.000 L 346.000 430.000 346.000 414.000 L 346.000 398.000 348.000 398.000 L 350.000 398.000 350.000 380.000 L 350.000 362.000 352.000 362.000 L 354.000 362.000 354.000 346.000 L 354.000 330.000 356.000 330.000 L 358.000 330.000 358.000 324.000 L 358.000 318.000 356.000 318.000 L 354.000 318.000 354.000 316.000 L 354.000 314.000 352.000 314.000 L 350.000 314.000 350.000 312.000 L 350.000 310.000 348.000 310.000 L 346.000 310.000 346.000 306.000 L 346.000 302.000 344.000 302.000 L 342.000 302.000 342.000 300.000 L 342.000 298.000 340.000 298.000 L 338.000 298.000 338.000 296.000 L 338.000 294.000 336.000 294.000 L 334.000 294.000 334.000 292.000 L 334.000 290.000 332.000 290.000 L 330.000 290.000 330.000 288.000 L 330.000 286.000 328.000 286.000 L 326.000 286.000 326.000 284.000 L 326.000 282.000 320.000 282.000 L 314.000 282.000 314.000 284.000 M98.000 452.000 L 98.000 454.000 96.000 454.000 L 94.000 454.000 94.000 456.000 L 94.000 458.000 92.000 458.000 L 90.000 458.000 90.000 460.000 L 90.000 462.000 88.000 462.000 L 86.000 462.000 86.000 464.000 L 86.000 466.000 84.000 466.000 L 82.000 466.000 82.000 468.000 L 82.000 470.000 80.000 470.000 L 78.000 470.000 78.000 472.000 L 78.000 474.000 76.000 474.000 L 74.000 474.000 74.000 476.000 L 74.000 478.000 72.000 478.000 L 70.000 478.000 70.000 480.000 L 70.000 482.000 68.000 482.000 L 66.000 482.000 66.000 484.000 L 66.000 486.000 64.000 486.000 L 62.000 486.000 62.000 494.000 L 62.000 502.000 64.000 502.000 L 66.000 502.000 66.000 504.000 L 66.000 506.000 68.000 506.000 L 70.000 506.000 70.000 508.000 L 70.000 510.000 72.000 510.000 L 74.000 510.000 74.000 512.000 L 74.000 514.000 76.000 514.000 L 78.000 514.000 78.000 518.000 L 78.000 522.000 80.000 522.000 L 82.000 522.000 82.000 524.000 L 82.000 526.000 84.000 526.000 L 86.000 526.000 86.000 528.000 L 86.000 530.000 88.000 530.000 L 90.000 530.000 90.000 532.000 L 90.000 534.000 168.000 534.000 L 246.000 534.000 246.000 532.000 L 246.000 530.000 248.000 530.000 L 250.000 530.000 250.000 528.000 L 250.000 526.000 252.000 526.000 L 254.000 526.000 254.000 524.000 L 254.000 522.000 256.000 522.000 L 258.000 522.000 258.000 520.000 L 258.000 518.000 260.000 518.000 L 262.000 518.000 262.000 516.000 L 262.000 514.000 264.000 514.000 L 266.000 514.000 266.000 512.000 L 266.000 510.000 268.000 510.000 L 270.000 510.000 270.000 508.000 L 270.000 506.000 272.000 506.000 L 274.000 506.000 274.000 504.000 L 274.000 502.000 276.000 502.000 L 278.000 502.000 278.000 500.000 L 278.000 498.000 280.000 498.000 L 282.000 498.000 282.000 490.000 L 282.000 482.000 280.000 482.000 L 278.000 482.000 278.000 480.000 L 278.000 478.000 276.000 478.000 L 274.000 478.000 274.000 476.000 L 274.000 474.000 272.000 474.000 L 270.000 474.000 270.000 472.000 L 270.000 470.000 268.000 470.000 L 266.000 470.000 266.000 466.000 L 266.000 462.000 264.000 462.000 L 262.000 462.000 262.000 460.000 L 262.000 458.000 260.000 458.000 L 258.000 458.000 258.000 456.000 L 258.000 454.000 256.000 454.000 L 254.000 454.000 254.000 452.000 L 254.000 450.000 176.000 450.000 L 98.000 450.000 98.000 452.000 " stroke="none" fill="#000000" fill-rule="evenodd"></path><path id="path1" d="M154.000 12.000 L 154.000 14.000 152.000 14.000 L 150.000 14.000 150.000 16.000 L 150.000 18.000 148.000 18.000 L 146.000 18.000 146.000 20.000 L 146.000 22.000 144.000 22.000 L 142.000 22.000 142.000 24.000 L 142.000 26.000 140.000 26.000 L 138.000 26.000 138.000 28.000 L 138.000 30.000 136.000 30.000 L 134.000 30.000 134.000 32.000 L 134.000 34.000 132.000 34.000 L 130.000 34.000 130.000 36.000 L 130.000 38.000 128.000 38.000 L 126.000 38.000 126.000 40.000 L 126.000 42.000 124.000 42.000 L 122.000 42.000 122.000 44.000 L 122.000 46.000 120.000 46.000 L 118.000 46.000 118.000 54.000 L 118.000 62.000 120.000 62.000 L 122.000 62.000 122.000 64.000 L 122.000 66.000 124.000 66.000 L 126.000 66.000 126.000 68.000 L 126.000 70.000 128.000 70.000 L 130.000 70.000 130.000 72.000 L 130.000 74.000 132.000 74.000 L 134.000 74.000 134.000 78.000 L 134.000 82.000 136.000 82.000 L 138.000 82.000 138.000 84.000 L 138.000 86.000 140.000 86.000 L 142.000 86.000 142.000 88.000 L 142.000 90.000 144.000 90.000 L 146.000 90.000 146.000 92.000 L 146.000 94.000 224.000 94.000 L 302.000 94.000 302.000 92.000 L 302.000 90.000 304.000 90.000 L 306.000 90.000 306.000 88.000 L 306.000 86.000 308.000 86.000 L 310.000 86.000 310.000 84.000 L 310.000 82.000 312.000 82.000 L 314.000 82.000 314.000 80.000 L 314.000 78.000 316.000 78.000 L 318.000 78.000 318.000 76.000 L 318.000 74.000 320.000 74.000 L 322.000 74.000 322.000 72.000 L 322.000 70.000 324.000 70.000 L 326.000 70.000 326.000 68.000 L 326.000 66.000 328.000 66.000 L 330.000 66.000 330.000 64.000 L 330.000 62.000 332.000 62.000 L 334.000 62.000 334.000 60.000 L 334.000 58.000 336.000 58.000 L 338.000 58.000 338.000 50.000 L 338.000 42.000 336.000 42.000 L 334.000 42.000 334.000 40.000 L 334.000 38.000 332.000 38.000 L 330.000 38.000 330.000 36.000 L 330.000 34.000 328.000 34.000 L 326.000 34.000 326.000 32.000 L 326.000 30.000 324.000 30.000 L 322.000 30.000 322.000 26.000 L 322.000 22.000 320.000 22.000 L 318.000 22.000 318.000 20.000 L 318.000 18.000 316.000 18.000 L 314.000 18.000 314.000 16.000 L 314.000 14.000 312.000 14.000 L 310.000 14.000 310.000 12.000 L 310.000 10.000 232.000 10.000 L 154.000 10.000 154.000 12.000 M338.000 64.000 L 338.000 66.000 336.000 66.000 L 334.000 66.000 334.000 68.000 L 334.000 70.000 332.000 70.000 L 330.000 70.000 330.000 72.000 L 330.000 74.000 328.000 74.000 L 326.000 74.000 326.000 76.000 L 326.000 78.000 324.000 78.000 L 322.000 78.000 322.000 80.000 L 322.000 82.000 320.000 82.000 L 318.000 82.000 318.000 84.000 L 318.000 86.000 316.000 86.000 L 314.000 86.000 314.000 88.000 L 314.000 90.000 312.000 90.000 L 310.000 90.000 310.000 92.000 L 310.000 94.000 308.000 94.000 L 306.000 94.000 306.000 96.000 L 306.000 98.000 304.000 98.000 L 302.000 98.000 302.000 104.000 L 302.000 110.000 300.000 110.000 L 298.000 110.000 298.000 126.000 L 298.000 142.000 296.000 142.000 L 294.000 142.000 294.000 160.000 L 294.000 178.000 292.000 178.000 L 290.000 178.000 290.000 194.000 L 290.000 210.000 288.000 210.000 L 286.000 210.000 286.000 216.000 L 286.000 222.000 288.000 222.000 L 290.000 222.000 290.000 226.000 L 290.000 230.000 292.000 230.000 L 294.000 230.000 294.000 232.000 L 294.000 234.000 296.000 234.000 L 298.000 234.000 298.000 236.000 L 298.000 238.000 300.000 238.000 L 302.000 238.000 302.000 240.000 L 302.000 242.000 304.000 242.000 L 306.000 242.000 306.000 244.000 L 306.000 246.000 308.000 246.000 L 310.000 246.000 310.000 250.000 L 310.000 254.000 312.000 254.000 L 314.000 254.000 314.000 256.000 L 314.000 258.000 316.000 258.000 L 318.000 258.000 318.000 260.000 L 318.000 262.000 322.000 262.000 L 326.000 262.000 326.000 260.000 L 326.000 258.000 328.000 258.000 L 330.000 258.000 330.000 256.000 L 330.000 254.000 332.000 254.000 L 334.000 254.000 334.000 252.000 L 334.000 250.000 336.000 250.000 L 338.000 250.000 338.000 248.000 L 338.000 246.000 340.000 246.000 L 342.000 246.000 342.000 244.000 L 342.000 242.000 344.000 242.000 L 346.000 242.000 346.000 240.000 L 346.000 238.000 348.000 238.000 L 350.000 238.000 350.000 236.000 L 350.000 234.000 354.000 234.000 L 358.000 234.000 358.000 232.000 L 358.000 230.000 360.000 230.000 L 362.000 230.000 362.000 228.000 L 362.000 226.000 364.000 226.000 L 366.000 226.000 366.000 218.000 L 366.000 210.000 368.000 210.000 L 370.000 210.000 370.000 194.000 L 370.000 178.000 372.000 178.000 L 374.000 178.000 374.000 160.000 L 374.000 142.000 376.000 142.000 L 378.000 142.000 378.000 126.000 L 378.000 110.000 380.000 110.000 L 382.000 110.000 382.000 104.000 L 382.000 98.000 380.000 98.000 L 378.000 98.000 378.000 96.000 L 378.000 94.000 376.000 94.000 L 374.000 94.000 374.000 92.000 L 374.000 90.000 372.000 90.000 L 370.000 90.000 370.000 86.000 L 370.000 82.000 368.000 82.000 L 366.000 82.000 366.000 80.000 L 366.000 78.000 364.000 78.000 L 362.000 78.000 362.000 76.000 L 362.000 74.000 360.000 74.000 L 358.000 74.000 358.000 72.000 L 358.000 70.000 356.000 70.000 L 354.000 70.000 354.000 68.000 L 354.000 66.000 352.000 66.000 L 350.000 66.000 350.000 64.000 L 350.000 62.000 344.000 62.000 L 338.000 62.000 338.000 64.000 M126.000 232.000 L 126.000 234.000 124.000 234.000 L 122.000 234.000 122.000 236.000 L 122.000 238.000 120.000 238.000 L 118.000 238.000 118.000 240.000 L 118.000 242.000 116.000 242.000 L 114.000 242.000 114.000 244.000 L 114.000 246.000 112.000 246.000 L 110.000 246.000 110.000 248.000 L 110.000 250.000 108.000 250.000 L 106.000 250.000 106.000 252.000 L 106.000 254.000 104.000 254.000 L 102.000 254.000 102.000 256.000 L 102.000 258.000 100.000 258.000 L 98.000 258.000 98.000 260.000 L 98.000 262.000 96.000 262.000 L 94.000 262.000 94.000 264.000 L 94.000 266.000 92.000 266.000 L 90.000 266.000 90.000 274.000 L 90.000 282.000 92.000 282.000 L 94.000 282.000 94.000 284.000 L 94.000 286.000 96.000 286.000 L 98.000 286.000 98.000 288.000 L 98.000 290.000 100.000 290.000 L 102.000 290.000 102.000 292.000 L 102.000 294.000 104.000 294.000 L 106.000 294.000 106.000 298.000 L 106.000 302.000 108.000 302.000 L 110.000 302.000 110.000 304.000 L 110.000 306.000 112.000 306.000 L 114.000 306.000 114.000 308.000 L 114.000 310.000 116.000 310.000 L 118.000 310.000 118.000 312.000 L 118.000 314.000 196.000 314.000 L 274.000 314.000 274.000 312.000 L 274.000 310.000 276.000 310.000 L 278.000 310.000 278.000 308.000 L 278.000 306.000 280.000 306.000 L 282.000 306.000 282.000 304.000 L 282.000 302.000 284.000 302.000 L 286.000 302.000 286.000 300.000 L 286.000 298.000 288.000 298.000 L 290.000 298.000 290.000 296.000 L 290.000 294.000 292.000 294.000 L 294.000 294.000 294.000 292.000 L 294.000 290.000 296.000 290.000 L 298.000 290.000 298.000 288.000 L 298.000 286.000 300.000 286.000 L 302.000 286.000 302.000 284.000 L 302.000 282.000 304.000 282.000 L 306.000 282.000 306.000 280.000 L 306.000 278.000 308.000 278.000 L 310.000 278.000 310.000 270.000 L 310.000 262.000 308.000 262.000 L 306.000 262.000 306.000 260.000 L 306.000 258.000 304.000 258.000 L 302.000 258.000 302.000 256.000 L 302.000 254.000 300.000 254.000 L 298.000 254.000 298.000 252.000 L 298.000 250.000 296.000 250.000 L 294.000 250.000 294.000 246.000 L 294.000 242.000 292.000 242.000 L 290.000 242.000 290.000 240.000 L 290.000 238.000 288.000 238.000 L 286.000 238.000 286.000 236.000 L 286.000 234.000 284.000 234.000 L 282.000 234.000 282.000 232.000 L 282.000 230.000 204.000 230.000 L 126.000 230.000 126.000 232.000 M314.000 284.000 L 314.000 286.000 312.000 286.000 L 310.000 286.000 310.000 288.000 L 310.000 290.000 308.000 290.000 L 306.000 290.000 306.000 292.000 L 306.000 294.000 304.000 294.000 L 302.000 294.000 302.000 296.000 L 302.000 298.000 300.000 298.000 L 298.000 298.000 298.000 300.000 L 298.000 302.000 296.000 302.000 L 294.000 302.000 294.000 304.000 L 294.000 306.000 292.000 306.000 L 290.000 306.000 290.000 308.000 L 290.000 310.000 288.000 310.000 L 286.000 310.000 286.000 312.000 L 286.000 314.000 284.000 314.000 L 282.000 314.000 282.000 316.000 L 282.000 318.000 280.000 318.000 L 278.000 318.000 278.000 324.000 L 278.000 330.000 276.000 330.000 L 274.000 330.000 274.000 346.000 L 274.000 362.000 272.000 362.000 L 270.000 362.000 270.000 380.000 L 270.000 398.000 268.000 398.000 L 266.000 398.000 266.000 414.000 L 266.000 430.000 264.000 430.000 L 262.000 430.000 262.000 436.000 L 262.000 442.000 264.000 442.000 L 266.000 442.000 266.000 446.000 L 266.000 450.000 268.000 450.000 L 270.000 450.000 270.000 452.000 L 270.000 454.000 272.000 454.000 L 274.000 454.000 274.000 456.000 L 274.000 458.000 276.000 458.000 L 278.000 458.000 278.000 460.000 L 278.000 462.000 280.000 462.000 L 282.000 462.000 282.000 464.000 L 282.000 466.000 284.000 466.000 L 286.000 466.000 286.000 470.000 L 286.000 474.000 288.000 474.000 L 290.000 474.000 290.000 476.000 L 290.000 478.000 292.000 478.000 L 294.000 478.000 294.000 480.000 L 294.000 482.000 298.000 482.000 L 302.000 482.000 302.000 480.000 L 302.000 478.000 304.000 478.000 L 306.000 478.000 306.000 476.000 L 306.000 474.000 308.000 474.000 L 310.000 474.000 310.000 472.000 L 310.000 470.000 312.000 470.000 L 314.000 470.000 314.000 468.000 L 314.000 466.000 316.000 466.000 L 318.000 466.000 318.000 464.000 L 318.000 462.000 320.000 462.000 L 322.000 462.000 322.000 460.000 L 322.000 458.000 324.000 458.000 L 326.000 458.000 326.000 456.000 L 326.000 454.000 330.000 454.000 L 334.000 454.000 334.000 452.000 L 334.000 450.000 336.000 450.000 L 338.000 450.000 338.000 448.000 L 338.000 446.000 340.000 446.000 L 342.000 446.000 342.000 438.000 L 342.000 430.000 344.000 430.000 L 346.000 430.000 346.000 414.000 L 346.000 398.000 348.000 398.000 L 350.000 398.000 350.000 380.000 L 350.000 362.000 352.000 362.000 L 354.000 362.000 354.000 346.000 L 354.000 330.000 356.000 330.000 L 358.000 330.000 358.000 324.000 L 358.000 318.000 356.000 318.000 L 354.000 318.000 354.000 316.000 L 354.000 314.000 352.000 314.000 L 350.000 314.000 350.000 312.000 L 350.000 310.000 348.000 310.000 L 346.000 310.000 346.000 306.000 L 346.000 302.000 344.000 302.000 L 342.000 302.000 342.000 300.000 L 342.000 298.000 340.000 298.000 L 338.000 298.000 338.000 296.000 L 338.000 294.000 336.000 294.000 L 334.000 294.000 334.000 292.000 L 334.000 290.000 332.000 290.000 L 330.000 290.000 330.000 288.000 L 330.000 286.000 328.000 286.000 L 326.000 286.000 326.000 284.000 L 326.000 282.000 320.000 282.000 L 314.000 282.000 314.000 284.000 M98.000 452.000 L 98.000 454.000 96.000 454.000 L 94.000 454.000 94.000 456.000 L 94.000 458.000 92.000 458.000 L 90.000 458.000 90.000 460.000 L 90.000 462.000 88.000 462.000 L 86.000 462.000 86.000 464.000 L 86.000 466.000 84.000 466.000 L 82.000 466.000 82.000 468.000 L 82.000 470.000 80.000 470.000 L 78.000 470.000 78.000 472.000 L 78.000 474.000 76.000 474.000 L 74.000 474.000 74.000 476.000 L 74.000 478.000 72.000 478.000 L 70.000 478.000 70.000 480.000 L 70.000 482.000 68.000 482.000 L 66.000 482.000 66.000 484.000 L 66.000 486.000 64.000 486.000 L 62.000 486.000 62.000 494.000 L 62.000 502.000 64.000 502.000 L 66.000 502.000 66.000 504.000 L 66.000 506.000 68.000 506.000 L 70.000 506.000 70.000 508.000 L 70.000 510.000 72.000 510.000 L 74.000 510.000 74.000 512.000 L 74.000 514.000 76.000 514.000 L 78.000 514.000 78.000 518.000 L 78.000 522.000 80.000 522.000 L 82.000 522.000 82.000 524.000 L 82.000 526.000 84.000 526.000 L 86.000 526.000 86.000 528.000 L 86.000 530.000 88.000 530.000 L 90.000 530.000 90.000 532.000 L 90.000 534.000 168.000 534.000 L 246.000 534.000 246.000 532.000 L 246.000 530.000 248.000 530.000 L 250.000 530.000 250.000 528.000 L 250.000 526.000 252.000 526.000 L 254.000 526.000 254.000 524.000 L 254.000 522.000 256.000 522.000 L 258.000 522.000 258.000 520.000 L 258.000 518.000 260.000 518.000 L 262.000 518.000 262.000 516.000 L 262.000 514.000 264.000 514.000 L 266.000 514.000 266.000 512.000 L 266.000 510.000 268.000 510.000 L 270.000 510.000 270.000 508.000 L 270.000 506.000 272.000 506.000 L 274.000 506.000 274.000 504.000 L 274.000 502.000 276.000 502.000 L 278.000 502.000 278.000 500.000 L 278.000 498.000 280.000 498.000 L 282.000 498.000 282.000 490.000 L 282.000 482.000 280.000 482.000 L 278.000 482.000 278.000 480.000 L 278.000 478.000 276.000 478.000 L 274.000 478.000 274.000 476.000 L 274.000 474.000 272.000 474.000 L 270.000 474.000 270.000 472.000 L 270.000 470.000 268.000 470.000 L 266.000 470.000 266.000 466.000 L 266.000 462.000 264.000 462.000 L 262.000 462.000 262.000 460.000 L 262.000 458.000 260.000 458.000 L 258.000 458.000 258.000 456.000 L 258.000 454.000 256.000 454.000 L 254.000 454.000 254.000 452.000 L 254.000 450.000 176.000 450.000 L 98.000 450.000 98.000 452.000 " stroke="none" fill="#000000" fill-rule="evenodd"></path><path id="path2" d="M154.000 12.000 L 154.000 14.000 152.000 14.000 L 150.000 14.000 150.000 16.000 L 150.000 18.000 148.000 18.000 L 146.000 18.000 146.000 20.000 L 146.000 22.000 144.000 22.000 L 142.000 22.000 142.000 24.000 L 142.000 26.000 140.000 26.000 L 138.000 26.000 138.000 28.000 L 138.000 30.000 136.000 30.000 L 134.000 30.000 134.000 32.000 L 134.000 34.000 132.000 34.000 L 130.000 34.000 130.000 36.000 L 130.000 38.000 128.000 38.000 L 126.000 38.000 126.000 40.000 L 126.000 42.000 124.000 42.000 L 122.000 42.000 122.000 44.000 L 122.000 46.000 120.000 46.000 L 118.000 46.000 118.000 54.000 L 118.000 62.000 120.000 62.000 L 122.000 62.000 122.000 64.000 L 122.000 66.000 124.000 66.000 L 126.000 66.000 126.000 68.000 L 126.000 70.000 128.000 70.000 L 130.000 70.000 130.000 72.000 L 130.000 74.000 132.000 74.000 L 134.000 74.000 134.000 78.000 L 134.000 82.000 136.000 82.000 L 138.000 82.000 138.000 84.000 L 138.000 86.000 140.000 86.000 L 142.000 86.000 142.000 88.000 L 142.000 90.000 144.000 90.000 L 146.000 90.000 146.000 92.000 L 146.000 94.000 224.000 94.000 L 302.000 94.000 302.000 92.000 L 302.000 90.000 304.000 90.000 L 306.000 90.000 306.000 88.000 L 306.000 86.000 308.000 86.000 L 310.000 86.000 310.000 84.000 L 310.000 82.000 312.000 82.000 L 314.000 82.000 314.000 80.000 L 314.000 78.000 316.000 78.000 L 318.000 78.000 318.000 76.000 L 318.000 74.000 320.000 74.000 L 322.000 74.000 322.000 72.000 L 322.000 70.000 324.000 70.000 L 326.000 70.000 326.000 68.000 L 326.000 66.000 328.000 66.000 L 330.000 66.000 330.000 64.000 L 330.000 62.000 332.000 62.000 L 334.000 62.000 334.000 60.000 L 334.000 58.000 336.000 58.000 L 338.000 58.000 338.000 50.000 L 338.000 42.000 336.000 42.000 L 334.000 42.000 334.000 40.000 L 334.000 38.000 332.000 38.000 L 330.000 38.000 330.000 36.000 L 330.000 34.000 328.000 34.000 L 326.000 34.000 326.000 32.000 L 326.000 30.000 324.000 30.000 L 322.000 30.000 322.000 26.000 L 322.000 22.000 320.000 22.000 L 318.000 22.000 318.000 20.000 L 318.000 18.000 316.000 18.000 L 314.000 18.000 314.000 16.000 L 314.000 14.000 312.000 14.000 L 310.000 14.000 310.000 12.000 L 310.000 10.000 232.000 10.000 L 154.000 10.000 154.000 12.000 M338.000 64.000 L 338.000 66.000 336.000 66.000 L 334.000 66.000 334.000 68.000 L 334.000 70.000 332.000 70.000 L 330.000 70.000 330.000 72.000 L 330.000 74.000 328.000 74.000 L 326.000 74.000 326.000 76.000 L 326.000 78.000 324.000 78.000 L 322.000 78.000 322.000 80.000 L 322.000 82.000 320.000 82.000 L 318.000 82.000 318.000 84.000 L 318.000 86.000 316.000 86.000 L 314.000 86.000 314.000 88.000 L 314.000 90.000 312.000 90.000 L 310.000 90.000 310.000 92.000 L 310.000 94.000 308.000 94.000 L 306.000 94.000 306.000 96.000 L 306.000 98.000 304.000 98.000 L 302.000 98.000 302.000 104.000 L 302.000 110.000 300.000 110.000 L 298.000 110.000 298.000 126.000 L 298.000 142.000 296.000 142.000 L 294.000 142.000 294.000 160.000 L 294.000 178.000 292.000 178.000 L 290.000 178.000 290.000 194.000 L 290.000 210.000 288.000 210.000 L 286.000 210.000 286.000 216.000 L 286.000 222.000 288.000 222.000 L 290.000 222.000 290.000 226.000 L 290.000 230.000 292.000 230.000 L 294.000 230.000 294.000 232.000 L 294.000 234.000 296.000 234.000 L 298.000 234.000 298.000 236.000 L 298.000 238.000 300.000 238.000 L 302.000 238.000 302.000 240.000 L 302.000 242.000 304.000 242.000 L 306.000 242.000 306.000 244.000 L 306.000 246.000 308.000 246.000 L 310.000 246.000 310.000 250.000 L 310.000 254.000 312.000 254.000 L 314.000 254.000 314.000 256.000 L 314.000 258.000 316.000 258.000 L 318.000 258.000 318.000 260.000 L 318.000 262.000 322.000 262.000 L 326.000 262.000 326.000 260.000 L 326.000 258.000 328.000 258.000 L 330.000 258.000 330.000 256.000 L 330.000 254.000 332.000 254.000 L 334.000 254.000 334.000 252.000 L 334.000 250.000 336.000 250.000 L 338.000 250.000 338.000 248.000 L 338.000 246.000 340.000 246.000 L 342.000 246.000 342.000 244.000 L 342.000 242.000 344.000 242.000 L 346.000 242.000 346.000 240.000 L 346.000 238.000 348.000 238.000 L 350.000 238.000 350.000 236.000 L 350.000 234.000 354.000 234.000 L 358.000 234.000 358.000 232.000 L 358.000 230.000 360.000 230.000 L 362.000 230.000 362.000 228.000 L 362.000 226.000 364.000 226.000 L 366.000 226.000 366.000 218.000 L 366.000 210.000 368.000 210.000 L 370.000 210.000 370.000 194.000 L 370.000 178.000 372.000 178.000 L 374.000 178.000 374.000 160.000 L 374.000 142.000 376.000 142.000 L 378.000 142.000 378.000 126.000 L 378.000 110.000 380.000 110.000 L 382.000 110.000 382.000 104.000 L 382.000 98.000 380.000 98.000 L 378.000 98.000 378.000 96.000 L 378.000 94.000 376.000 94.000 L 374.000 94.000 374.000 92.000 L 374.000 90.000 372.000 90.000 L 370.000 90.000 370.000 86.000 L 370.000 82.000 368.000 82.000 L 366.000 82.000 366.000 80.000 L 366.000 78.000 364.000 78.000 L 362.000 78.000 362.000 76.000 L 362.000 74.000 360.000 74.000 L 358.000 74.000 358.000 72.000 L 358.000 70.000 356.000 70.000 L 354.000 70.000 354.000 68.000 L 354.000 66.000 352.000 66.000 L 350.000 66.000 350.000 64.000 L 350.000 62.000 344.000 62.000 L 338.000 62.000 338.000 64.000 M126.000 232.000 L 126.000 234.000 124.000 234.000 L 122.000 234.000 122.000 236.000 L 122.000 238.000 120.000 238.000 L 118.000 238.000 118.000 240.000 L 118.000 242.000 116.000 242.000 L 114.000 242.000 114.000 244.000 L 114.000 246.000 112.000 246.000 L 110.000 246.000 110.000 248.000 L 110.000 250.000 108.000 250.000 L 106.000 250.000 106.000 252.000 L 106.000 254.000 104.000 254.000 L 102.000 254.000 102.000 256.000 L 102.000 258.000 100.000 258.000 L 98.000 258.000 98.000 260.000 L 98.000 262.000 96.000 262.000 L 94.000 262.000 94.000 264.000 L 94.000 266.000 92.000 266.000 L 90.000 266.000 90.000 274.000 L 90.000 282.000 92.000 282.000 L 94.000 282.000 94.000 284.000 L 94.000 286.000 96.000 286.000 L 98.000 286.000 98.000 288.000 L 98.000 290.000 100.000 290.000 L 102.000 290.000 102.000 292.000 L 102.000 294.000 104.000 294.000 L 106.000 294.000 106.000 298.000 L 106.000 302.000 108.000 302.000 L 110.000 302.000 110.000 304.000 L 110.000 306.000 112.000 306.000 L 114.000 306.000 114.000 308.000 L 114.000 310.000 116.000 310.000 L 118.000 310.000 118.000 312.000 L 118.000 314.000 196.000 314.000 L 274.000 314.000 274.000 312.000 L 274.000 310.000 276.000 310.000 L 278.000 310.000 278.000 308.000 L 278.000 306.000 280.000 306.000 L 282.000 306.000 282.000 304.000 L 282.000 302.000 284.000 302.000 L 286.000 302.000 286.000 300.000 L 286.000 298.000 288.000 298.000 L 290.000 298.000 290.000 296.000 L 290.000 294.000 292.000 294.000 L 294.000 294.000 294.000 292.000 L 294.000 290.000 296.000 290.000 L 298.000 290.000 298.000 288.000 L 298.000 286.000 300.000 286.000 L 302.000 286.000 302.000 284.000 L 302.000 282.000 304.000 282.000 L 306.000 282.000 306.000 280.000 L 306.000 278.000 308.000 278.000 L 310.000 278.000 310.000 270.000 L 310.000 262.000 308.000 262.000 L 306.000 262.000 306.000 260.000 L 306.000 258.000 304.000 258.000 L 302.000 258.000 302.000 256.000 L 302.000 254.000 300.000 254.000 L 298.000 254.000 298.000 252.000 L 298.000 250.000 296.000 250.000 L 294.000 250.000 294.000 246.000 L 294.000 242.000 292.000 242.000 L 290.000 242.000 290.000 240.000 L 290.000 238.000 288.000 238.000 L 286.000 238.000 286.000 236.000 L 286.000 234.000 284.000 234.000 L 282.000 234.000 282.000 232.000 L 282.000 230.000 204.000 230.000 L 126.000 230.000 126.000 232.000 M314.000 284.000 L 314.000 286.000 312.000 286.000 L 310.000 286.000 310.000 288.000 L 310.000 290.000 308.000 290.000 L 306.000 290.000 306.000 292.000 L 306.000 294.000 304.000 294.000 L 302.000 294.000 302.000 296.000 L 302.000 298.000 300.000 298.000 L 298.000 298.000 298.000 300.000 L 298.000 302.000 296.000 302.000 L 294.000 302.000 294.000 304.000 L 294.000 306.000 292.000 306.000 L 290.000 306.000 290.000 308.000 L 290.000 310.000 288.000 310.000 L 286.000 310.000 286.000 312.000 L 286.000 314.000 284.000 314.000 L 282.000 314.000 282.000 316.000 L 282.000 318.000 280.000 318.000 L 278.000 318.000 278.000 324.000 L 278.000 330.000 276.000 330.000 L 274.000 330.000 274.000 346.000 L 274.000 362.000 272.000 362.000 L 270.000 362.000 270.000 380.000 L 270.000 398.000 268.000 398.000 L 266.000 398.000 266.000 414.000 L 266.000 430.000 264.000 430.000 L 262.000 430.000 262.000 436.000 L 262.000 442.000 264.000 442.000 L 266.000 442.000 266.000 446.000 L 266.000 450.000 268.000 450.000 L 270.000 450.000 270.000 452.000 L 270.000 454.000 272.000 454.000 L 274.000 454.000 274.000 456.000 L 274.000 458.000 276.000 458.000 L 278.000 458.000 278.000 460.000 L 278.000 462.000 280.000 462.000 L 282.000 462.000 282.000 464.000 L 282.000 466.000 284.000 466.000 L 286.000 466.000 286.000 470.000 L 286.000 474.000 288.000 474.000 L 290.000 474.000 290.000 476.000 L 290.000 478.000 292.000 478.000 L 294.000 478.000 294.000 480.000 L 294.000 482.000 298.000 482.000 L 302.000 482.000 302.000 480.000 L 302.000 478.000 304.000 478.000 L 306.000 478.000 306.000 476.000 L 306.000 474.000 308.000 474.000 L 310.000 474.000 310.000 472.000 L 310.000 470.000 312.000 470.000 L 314.000 470.000 314.000 468.000 L 314.000 466.000 316.000 466.000 L 318.000 466.000 318.000 464.000 L 318.000 462.000 320.000 462.000 L 322.000 462.000 322.000 460.000 L 322.000 458.000 324.000 458.000 L 326.000 458.000 326.000 456.000 L 326.000 454.000 330.000 454.000 L 334.000 454.000 334.000 452.000 L 334.000 450.000 336.000 450.000 L 338.000 450.000 338.000 448.000 L 338.000 446.000 340.000 446.000 L 342.000 446.000 342.000 438.000 L 342.000 430.000 344.000 430.000 L 346.000 430.000 346.000 414.000 L 346.000 398.000 348.000 398.000 L 350.000 398.000 350.000 380.000 L 350.000 362.000 352.000 362.000 L 354.000 362.000 354.000 346.000 L 354.000 330.000 356.000 330.000 L 358.000 330.000 358.000 324.000 L 358.000 318.000 356.000 318.000 L 354.000 318.000 354.000 316.000 L 354.000 314.000 352.000 314.000 L 350.000 314.000 350.000 312.000 L 350.000 310.000 348.000 310.000 L 346.000 310.000 346.000 306.000 L 346.000 302.000 344.000 302.000 L 342.000 302.000 342.000 300.000 L 342.000 298.000 340.000 298.000 L 338.000 298.000 338.000 296.000 L 338.000 294.000 336.000 294.000 L 334.000 294.000 334.000 292.000 L 334.000 290.000 332.000 290.000 L 330.000 290.000 330.000 288.000 L 330.000 286.000 328.000 286.000 L 326.000 286.000 326.000 284.000 L 326.000 282.000 320.000 282.000 L 314.000 282.000 314.000 284.000 M98.000 452.000 L 98.000 454.000 96.000 454.000 L 94.000 454.000 94.000 456.000 L 94.000 458.000 92.000 458.000 L 90.000 458.000 90.000 460.000 L 90.000 462.000 88.000 462.000 L 86.000 462.000 86.000 464.000 L 86.000 466.000 84.000 466.000 L 82.000 466.000 82.000 468.000 L 82.000 470.000 80.000 470.000 L 78.000 470.000 78.000 472.000 L 78.000 474.000 76.000 474.000 L 74.000 474.000 74.000 476.000 L 74.000 478.000 72.000 478.000 L 70.000 478.000 70.000 480.000 L 70.000 482.000 68.000 482.000 L 66.000 482.000 66.000 484.000 L 66.000 486.000 64.000 486.000 L 62.000 486.000 62.000 494.000 L 62.000 502.000 64.000 502.000 L 66.000 502.000 66.000 504.000 L 66.000 506.000 68.000 506.000 L 70.000 506.000 70.000 508.000 L 70.000 510.000 72.000 510.000 L 74.000 510.000 74.000 512.000 L 74.000 514.000 76.000 514.000 L 78.000 514.000 78.000 518.000 L 78.000 522.000 80.000 522.000 L 82.000 522.000 82.000 524.000 L 82.000 526.000 84.000 526.000 L 86.000 526.000 86.000 528.000 L 86.000 530.000 88.000 530.000 L 90.000 530.000 90.000 532.000 L 90.000 534.000 168.000 534.000 L 246.000 534.000 246.000 532.000 L 246.000 530.000 248.000 530.000 L 250.000 530.000 250.000 528.000 L 250.000 526.000 252.000 526.000 L 254.000 526.000 254.000 524.000 L 254.000 522.000 256.000 522.000 L 258.000 522.000 258.000 520.000 L 258.000 518.000 260.000 518.000 L 262.000 518.000 262.000 516.000 L 262.000 514.000 264.000 514.000 L 266.000 514.000 266.000 512.000 L 266.000 510.000 268.000 510.000 L 270.000 510.000 270.000 508.000 L 270.000 506.000 272.000 506.000 L 274.000 506.000 274.000 504.000 L 274.000 502.000 276.000 502.000 L 278.000 502.000 278.000 500.000 L 278.000 498.000 280.000 498.000 L 282.000 498.000 282.000 490.000 L 282.000 482.000 280.000 482.000 L 278.000 482.000 278.000 480.000 L 278.000 478.000 276.000 478.000 L 274.000 478.000 274.000 476.000 L 274.000 474.000 272.000 474.000 L 270.000 474.000 270.000 472.000 L 270.000 470.000 268.000 470.000 L 266.000 470.000 266.000 466.000 L 266.000 462.000 264.000 462.000 L 262.000 462.000 262.000 460.000 L 262.000 458.000 260.000 458.000 L 258.000 458.000 258.000 456.000 L 258.000 454.000 256.000 454.000 L 254.000 454.000 254.000 452.000 L 254.000 450.000 176.000 450.000 L 98.000 450.000 98.000 452.000 " stroke="none" fill="#000000" fill-rule="evenodd"></path><path id="path3" d="M154.000 12.000 L 154.000 14.000 152.000 14.000 L 150.000 14.000 150.000 16.000 L 150.000 18.000 148.000 18.000 L 146.000 18.000 146.000 20.000 L 146.000 22.000 144.000 22.000 L 142.000 22.000 142.000 24.000 L 142.000 26.000 140.000 26.000 L 138.000 26.000 138.000 28.000 L 138.000 30.000 136.000 30.000 L 134.000 30.000 134.000 32.000 L 134.000 34.000 132.000 34.000 L 130.000 34.000 130.000 36.000 L 130.000 38.000 128.000 38.000 L 126.000 38.000 126.000 40.000 L 126.000 42.000 124.000 42.000 L 122.000 42.000 122.000 44.000 L 122.000 46.000 120.000 46.000 L 118.000 46.000 118.000 54.000 L 118.000 62.000 120.000 62.000 L 122.000 62.000 122.000 64.000 L 122.000 66.000 124.000 66.000 L 126.000 66.000 126.000 68.000 L 126.000 70.000 128.000 70.000 L 130.000 70.000 130.000 72.000 L 130.000 74.000 132.000 74.000 L 134.000 74.000 134.000 78.000 L 134.000 82.000 136.000 82.000 L 138.000 82.000 138.000 84.000 L 138.000 86.000 140.000 86.000 L 142.000 86.000 142.000 88.000 L 142.000 90.000 144.000 90.000 L 146.000 90.000 146.000 92.000 L 146.000 94.000 224.000 94.000 L 302.000 94.000 302.000 92.000 L 302.000 90.000 304.000 90.000 L 306.000 90.000 306.000 88.000 L 306.000 86.000 308.000 86.000 L 310.000 86.000 310.000 84.000 L 310.000 82.000 312.000 82.000 L 314.000 82.000 314.000 80.000 L 314.000 78.000 316.000 78.000 L 318.000 78.000 318.000 76.000 L 318.000 74.000 320.000 74.000 L 322.000 74.000 322.000 72.000 L 322.000 70.000 324.000 70.000 L 326.000 70.000 326.000 68.000 L 326.000 66.000 328.000 66.000 L 330.000 66.000 330.000 64.000 L 330.000 62.000 332.000 62.000 L 334.000 62.000 334.000 60.000 L 334.000 58.000 336.000 58.000 L 338.000 58.000 338.000 50.000 L 338.000 42.000 336.000 42.000 L 334.000 42.000 334.000 40.000 L 334.000 38.000 332.000 38.000 L 330.000 38.000 330.000 36.000 L 330.000 34.000 328.000 34.000 L 326.000 34.000 326.000 32.000 L 326.000 30.000 324.000 30.000 L 322.000 30.000 322.000 26.000 L 322.000 22.000 320.000 22.000 L 318.000 22.000 318.000 20.000 L 318.000 18.000 316.000 18.000 L 314.000 18.000 314.000 16.000 L 314.000 14.000 312.000 14.000 L 310.000 14.000 310.000 12.000 L 310.000 10.000 232.000 10.000 L 154.000 10.000 154.000 12.000 M338.000 64.000 L 338.000 66.000 336.000 66.000 L 334.000 66.000 334.000 68.000 L 334.000 70.000 332.000 70.000 L 330.000 70.000 330.000 72.000 L 330.000 74.000 328.000 74.000 L 326.000 74.000 326.000 76.000 L 326.000 78.000 324.000 78.000 L 322.000 78.000 322.000 80.000 L 322.000 82.000 320.000 82.000 L 318.000 82.000 318.000 84.000 L 318.000 86.000 316.000 86.000 L 314.000 86.000 314.000 88.000 L 314.000 90.000 312.000 90.000 L 310.000 90.000 310.000 92.000 L 310.000 94.000 308.000 94.000 L 306.000 94.000 306.000 96.000 L 306.000 98.000 304.000 98.000 L 302.000 98.000 302.000 104.000 L 302.000 110.000 300.000 110.000 L 298.000 110.000 298.000 126.000 L 298.000 142.000 296.000 142.000 L 294.000 142.000 294.000 160.000 L 294.000 178.000 292.000 178.000 L 290.000 178.000 290.000 194.000 L 290.000 210.000 288.000 210.000 L 286.000 210.000 286.000 216.000 L 286.000 222.000 288.000 222.000 L 290.000 222.000 290.000 226.000 L 290.000 230.000 292.000 230.000 L 294.000 230.000 294.000 232.000 L 294.000 234.000 296.000 234.000 L 298.000 234.000 298.000 236.000 L 298.000 238.000 300.000 238.000 L 302.000 238.000 302.000 240.000 L 302.000 242.000 304.000 242.000 L 306.000 242.000 306.000 244.000 L 306.000 246.000 308.000 246.000 L 310.000 246.000 310.000 250.000 L 310.000 254.000 312.000 254.000 L 314.000 254.000 314.000 256.000 L 314.000 258.000 316.000 258.000 L 318.000 258.000 318.000 260.000 L 318.000 262.000 322.000 262.000 L 326.000 262.000 326.000 260.000 L 326.000 258.000 328.000 258.000 L 330.000 258.000 330.000 256.000 L 330.000 254.000 332.000 254.000 L 334.000 254.000 334.000 252.000 L 334.000 250.000 336.000 250.000 L 338.000 250.000 338.000 248.000 L 338.000 246.000 340.000 246.000 L 342.000 246.000 342.000 244.000 L 342.000 242.000 344.000 242.000 L 346.000 242.000 346.000 240.000 L 346.000 238.000 348.000 238.000 L 350.000 238.000 350.000 236.000 L 350.000 234.000 354.000 234.000 L 358.000 234.000 358.000 232.000 L 358.000 230.000 360.000 230.000 L 362.000 230.000 362.000 228.000 L 362.000 226.000 364.000 226.000 L 366.000 226.000 366.000 218.000 L 366.000 210.000 368.000 210.000 L 370.000 210.000 370.000 194.000 L 370.000 178.000 372.000 178.000 L 374.000 178.000 374.000 160.000 L 374.000 142.000 376.000 142.000 L 378.000 142.000 378.000 126.000 L 378.000 110.000 380.000 110.000 L 382.000 110.000 382.000 104.000 L 382.000 98.000 380.000 98.000 L 378.000 98.000 378.000 96.000 L 378.000 94.000 376.000 94.000 L 374.000 94.000 374.000 92.000 L 374.000 90.000 372.000 90.000 L 370.000 90.000 370.000 86.000 L 370.000 82.000 368.000 82.000 L 366.000 82.000 366.000 80.000 L 366.000 78.000 364.000 78.000 L 362.000 78.000 362.000 76.000 L 362.000 74.000 360.000 74.000 L 358.000 74.000 358.000 72.000 L 358.000 70.000 356.000 70.000 L 354.000 70.000 354.000 68.000 L 354.000 66.000 352.000 66.000 L 350.000 66.000 350.000 64.000 L 350.000 62.000 344.000 62.000 L 338.000 62.000 338.000 64.000 M126.000 232.000 L 126.000 234.000 124.000 234.000 L 122.000 234.000 122.000 236.000 L 122.000 238.000 120.000 238.000 L 118.000 238.000 118.000 240.000 L 118.000 242.000 116.000 242.000 L 114.000 242.000 114.000 244.000 L 114.000 246.000 112.000 246.000 L 110.000 246.000 110.000 248.000 L 110.000 250.000 108.000 250.000 L 106.000 250.000 106.000 252.000 L 106.000 254.000 104.000 254.000 L 102.000 254.000 102.000 256.000 L 102.000 258.000 100.000 258.000 L 98.000 258.000 98.000 260.000 L 98.000 262.000 96.000 262.000 L 94.000 262.000 94.000 264.000 L 94.000 266.000 92.000 266.000 L 90.000 266.000 90.000 274.000 L 90.000 282.000 92.000 282.000 L 94.000 282.000 94.000 284.000 L 94.000 286.000 96.000 286.000 L 98.000 286.000 98.000 288.000 L 98.000 290.000 100.000 290.000 L 102.000 290.000 102.000 292.000 L 102.000 294.000 104.000 294.000 L 106.000 294.000 106.000 298.000 L 106.000 302.000 108.000 302.000 L 110.000 302.000 110.000 304.000 L 110.000 306.000 112.000 306.000 L 114.000 306.000 114.000 308.000 L 114.000 310.000 116.000 310.000 L 118.000 310.000 118.000 312.000 L 118.000 314.000 196.000 314.000 L 274.000 314.000 274.000 312.000 L 274.000 310.000 276.000 310.000 L 278.000 310.000 278.000 308.000 L 278.000 306.000 280.000 306.000 L 282.000 306.000 282.000 304.000 L 282.000 302.000 284.000 302.000 L 286.000 302.000 286.000 300.000 L 286.000 298.000 288.000 298.000 L 290.000 298.000 290.000 296.000 L 290.000 294.000 292.000 294.000 L 294.000 294.000 294.000 292.000 L 294.000 290.000 296.000 290.000 L 298.000 290.000 298.000 288.000 L 298.000 286.000 300.000 286.000 L 302.000 286.000 302.000 284.000 L 302.000 282.000 304.000 282.000 L 306.000 282.000 306.000 280.000 L 306.000 278.000 308.000 278.000 L 310.000 278.000 310.000 270.000 L 310.000 262.000 308.000 262.000 L 306.000 262.000 306.000 260.000 L 306.000 258.000 304.000 258.000 L 302.000 258.000 302.000 256.000 L 302.000 254.000 300.000 254.000 L 298.000 254.000 298.000 252.000 L 298.000 250.000 296.000 250.000 L 294.000 250.000 294.000 246.000 L 294.000 242.000 292.000 242.000 L 290.000 242.000 290.000 240.000 L 290.000 238.000 288.000 238.000 L 286.000 238.000 286.000 236.000 L 286.000 234.000 284.000 234.000 L 282.000 234.000 282.000 232.000 L 282.000 230.000 204.000 230.000 L 126.000 230.000 126.000 232.000 M314.000 284.000 L 314.000 286.000 312.000 286.000 L 310.000 286.000 310.000 288.000 L 310.000 290.000 308.000 290.000 L 306.000 290.000 306.000 292.000 L 306.000 294.000 304.000 294.000 L 302.000 294.000 302.000 296.000 L 302.000 298.000 300.000 298.000 L 298.000 298.000 298.000 300.000 L 298.000 302.000 296.000 302.000 L 294.000 302.000 294.000 304.000 L 294.000 306.000 292.000 306.000 L 290.000 306.000 290.000 308.000 L 290.000 310.000 288.000 310.000 L 286.000 310.000 286.000 312.000 L 286.000 314.000 284.000 314.000 L 282.000 314.000 282.000 316.000 L 282.000 318.000 280.000 318.000 L 278.000 318.000 278.000 324.000 L 278.000 330.000 276.000 330.000 L 274.000 330.000 274.000 346.000 L 274.000 362.000 272.000 362.000 L 270.000 362.000 270.000 380.000 L 270.000 398.000 268.000 398.000 L 266.000 398.000 266.000 414.000 L 266.000 430.000 264.000 430.000 L 262.000 430.000 262.000 436.000 L 262.000 442.000 264.000 442.000 L 266.000 442.000 266.000 446.000 L 266.000 450.000 268.000 450.000 L 270.000 450.000 270.000 452.000 L 270.000 454.000 272.000 454.000 L 274.000 454.000 274.000 456.000 L 274.000 458.000 276.000 458.000 L 278.000 458.000 278.000 460.000 L 278.000 462.000 280.000 462.000 L 282.000 462.000 282.000 464.000 L 282.000 466.000 284.000 466.000 L 286.000 466.000 286.000 470.000 L 286.000 474.000 288.000 474.000 L 290.000 474.000 290.000 476.000 L 290.000 478.000 292.000 478.000 L 294.000 478.000 294.000 480.000 L 294.000 482.000 298.000 482.000 L 302.000 482.000 302.000 480.000 L 302.000 478.000 304.000 478.000 L 306.000 478.000 306.000 476.000 L 306.000 474.000 308.000 474.000 L 310.000 474.000 310.000 472.000 L 310.000 470.000 312.000 470.000 L 314.000 470.000 314.000 468.000 L 314.000 466.000 316.000 466.000 L 318.000 466.000 318.000 464.000 L 318.000 462.000 320.000 462.000 L 322.000 462.000 322.000 460.000 L 322.000 458.000 324.000 458.000 L 326.000 458.000 326.000 456.000 L 326.000 454.000 330.000 454.000 L 334.000 454.000 334.000 452.000 L 334.000 450.000 336.000 450.000 L 338.000 450.000 338.000 448.000 L 338.000 446.000 340.000 446.000 L 342.000 446.000 342.000 438.000 L 342.000 430.000 344.000 430.000 L 346.000 430.000 346.000 414.000 L 346.000 398.000 348.000 398.000 L 350.000 398.000 350.000 380.000 L 350.000 362.000 352.000 362.000 L 354.000 362.000 354.000 346.000 L 354.000 330.000 356.000 330.000 L 358.000 330.000 358.000 324.000 L 358.000 318.000 356.000 318.000 L 354.000 318.000 354.000 316.000 L 354.000 314.000 352.000 314.000 L 350.000 314.000 350.000 312.000 L 350.000 310.000 348.000 310.000 L 346.000 310.000 346.000 306.000 L 346.000 302.000 344.000 302.000 L 342.000 302.000 342.000 300.000 L 342.000 298.000 340.000 298.000 L 338.000 298.000 338.000 296.000 L 338.000 294.000 336.000 294.000 L 334.000 294.000 334.000 292.000 L 334.000 290.000 332.000 290.000 L 330.000 290.000 330.000 288.000 L 330.000 286.000 328.000 286.000 L 326.000 286.000 326.000 284.000 L 326.000 282.000 320.000 282.000 L 314.000 282.000 314.000 284.000 M98.000 452.000 L 98.000 454.000 96.000 454.000 L 94.000 454.000 94.000 456.000 L 94.000 458.000 92.000 458.000 L 90.000 458.000 90.000 460.000 L 90.000 462.000 88.000 462.000 L 86.000 462.000 86.000 464.000 L 86.000 466.000 84.000 466.000 L 82.000 466.000 82.000 468.000 L 82.000 470.000 80.000 470.000 L 78.000 470.000 78.000 472.000 L 78.000 474.000 76.000 474.000 L 74.000 474.000 74.000 476.000 L 74.000 478.000 72.000 478.000 L 70.000 478.000 70.000 480.000 L 70.000 482.000 68.000 482.000 L 66.000 482.000 66.000 484.000 L 66.000 486.000 64.000 486.000 L 62.000 486.000 62.000 494.000 L 62.000 502.000 64.000 502.000 L 66.000 502.000 66.000 504.000 L 66.000 506.000 68.000 506.000 L 70.000 506.000 70.000 508.000 L 70.000 510.000 72.000 510.000 L 74.000 510.000 74.000 512.000 L 74.000 514.000 76.000 514.000 L 78.000 514.000 78.000 518.000 L 78.000 522.000 80.000 522.000 L 82.000 522.000 82.000 524.000 L 82.000 526.000 84.000 526.000 L 86.000 526.000 86.000 528.000 L 86.000 530.000 88.000 530.000 L 90.000 530.000 90.000 532.000 L 90.000 534.000 168.000 534.000 L 246.000 534.000 246.000 532.000 L 246.000 530.000 248.000 530.000 L 250.000 530.000 250.000 528.000 L 250.000 526.000 252.000 526.000 L 254.000 526.000 254.000 524.000 L 254.000 522.000 256.000 522.000 L 258.000 522.000 258.000 520.000 L 258.000 518.000 260.000 518.000 L 262.000 518.000 262.000 516.000 L 262.000 514.000 264.000 514.000 L 266.000 514.000 266.000 512.000 L 266.000 510.000 268.000 510.000 L 270.000 510.000 270.000 508.000 L 270.000 506.000 272.000 506.000 L 274.000 506.000 274.000 504.000 L 274.000 502.000 276.000 502.000 L 278.000 502.000 278.000 500.000 L 278.000 498.000 280.000 498.000 L 282.000 498.000 282.000 490.000 L 282.000 482.000 280.000 482.000 L 278.000 482.000 278.000 480.000 L 278.000 478.000 276.000 478.000 L 274.000 478.000 274.000 476.000 L 274.000 474.000 272.000 474.000 L 270.000 474.000 270.000 472.000 L 270.000 470.000 268.000 470.000 L 266.000 470.000 266.000 466.000 L 266.000 462.000 264.000 462.000 L 262.000 462.000 262.000 460.000 L 262.000 458.000 260.000 458.000 L 258.000 458.000 258.000 456.000 L 258.000 454.000 256.000 454.000 L 254.000 454.000 254.000 452.000 L 254.000 450.000 176.000 450.000 L 98.000 450.000 98.000 452.000 " stroke="none" fill="#000000" fill-rule="evenodd"></path><path id="path4" d="M154.000 12.000 L 154.000 14.000 152.000 14.000 L 150.000 14.000 150.000 16.000 L 150.000 18.000 148.000 18.000 L 146.000 18.000 146.000 20.000 L 146.000 22.000 144.000 22.000 L 142.000 22.000 142.000 24.000 L 142.000 26.000 140.000 26.000 L 138.000 26.000 138.000 28.000 L 138.000 30.000 136.000 30.000 L 134.000 30.000 134.000 32.000 L 134.000 34.000 132.000 34.000 L 130.000 34.000 130.000 36.000 L 130.000 38.000 128.000 38.000 L 126.000 38.000 126.000 40.000 L 126.000 42.000 124.000 42.000 L 122.000 42.000 122.000 44.000 L 122.000 46.000 120.000 46.000 L 118.000 46.000 118.000 54.000 L 118.000 62.000 120.000 62.000 L 122.000 62.000 122.000 64.000 L 122.000 66.000 124.000 66.000 L 126.000 66.000 126.000 68.000 L 126.000 70.000 128.000 70.000 L 130.000 70.000 130.000 72.000 L 130.000 74.000 132.000 74.000 L 134.000 74.000 134.000 78.000 L 134.000 82.000 136.000 82.000 L 138.000 82.000 138.000 84.000 L 138.000 86.000 140.000 86.000 L 142.000 86.000 142.000 88.000 L 142.000 90.000 144.000 90.000 L 146.000 90.000 146.000 92.000 L 146.000 94.000 224.000 94.000 L 302.000 94.000 302.000 92.000 L 302.000 90.000 304.000 90.000 L 306.000 90.000 306.000 88.000 L 306.000 86.000 308.000 86.000 L 310.000 86.000 310.000 84.000 L 310.000 82.000 312.000 82.000 L 314.000 82.000 314.000 80.000 L 314.000 78.000 316.000 78.000 L 318.000 78.000 318.000 76.000 L 318.000 74.000 320.000 74.000 L 322.000 74.000 322.000 72.000 L 322.000 70.000 324.000 70.000 L 326.000 70.000 326.000 68.000 L 326.000 66.000 328.000 66.000 L 330.000 66.000 330.000 64.000 L 330.000 62.000 332.000 62.000 L 334.000 62.000 334.000 60.000 L 334.000 58.000 336.000 58.000 L 338.000 58.000 338.000 50.000 L 338.000 42.000 336.000 42.000 L 334.000 42.000 334.000 40.000 L 334.000 38.000 332.000 38.000 L 330.000 38.000 330.000 36.000 L 330.000 34.000 328.000 34.000 L 326.000 34.000 326.000 32.000 L 326.000 30.000 324.000 30.000 L 322.000 30.000 322.000 26.000 L 322.000 22.000 320.000 22.000 L 318.000 22.000 318.000 20.000 L 318.000 18.000 316.000 18.000 L 314.000 18.000 314.000 16.000 L 314.000 14.000 312.000 14.000 L 310.000 14.000 310.000 12.000 L 310.000 10.000 232.000 10.000 L 154.000 10.000 154.000 12.000 M338.000 64.000 L 338.000 66.000 336.000 66.000 L 334.000 66.000 334.000 68.000 L 334.000 70.000 332.000 70.000 L 330.000 70.000 330.000 72.000 L 330.000 74.000 328.000 74.000 L 326.000 74.000 326.000 76.000 L 326.000 78.000 324.000 78.000 L 322.000 78.000 322.000 80.000 L 322.000 82.000 320.000 82.000 L 318.000 82.000 318.000 84.000 L 318.000 86.000 316.000 86.000 L 314.000 86.000 314.000 88.000 L 314.000 90.000 312.000 90.000 L 310.000 90.000 310.000 92.000 L 310.000 94.000 308.000 94.000 L 306.000 94.000 306.000 96.000 L 306.000 98.000 304.000 98.000 L 302.000 98.000 302.000 104.000 L 302.000 110.000 300.000 110.000 L 298.000 110.000 298.000 126.000 L 298.000 142.000 296.000 142.000 L 294.000 142.000 294.000 160.000 L 294.000 178.000 292.000 178.000 L 290.000 178.000 290.000 194.000 L 290.000 210.000 288.000 210.000 L 286.000 210.000 286.000 216.000 L 286.000 222.000 288.000 222.000 L 290.000 222.000 290.000 226.000 L 290.000 230.000 292.000 230.000 L 294.000 230.000 294.000 232.000 L 294.000 234.000 296.000 234.000 L 298.000 234.000 298.000 236.000 L 298.000 238.000 300.000 238.000 L 302.000 238.000 302.000 240.000 L 302.000 242.000 304.000 242.000 L 306.000 242.000 306.000 244.000 L 306.000 246.000 308.000 246.000 L 310.000 246.000 310.000 250.000 L 310.000 254.000 312.000 254.000 L 314.000 254.000 314.000 256.000 L 314.000 258.000 316.000 258.000 L 318.000 258.000 318.000 260.000 L 318.000 262.000 322.000 262.000 L 326.000 262.000 326.000 260.000 L 326.000 258.000 328.000 258.000 L 330.000 258.000 330.000 256.000 L 330.000 254.000 332.000 254.000 L 334.000 254.000 334.000 252.000 L 334.000 250.000 336.000 250.000 L 338.000 250.000 338.000 248.000 L 338.000 246.000 340.000 246.000 L 342.000 246.000 342.000 244.000 L 342.000 242.000 344.000 242.000 L 346.000 242.000 346.000 240.000 L 346.000 238.000 348.000 238.000 L 350.000 238.000 350.000 236.000 L 350.000 234.000 354.000 234.000 L 358.000 234.000 358.000 232.000 L 358.000 230.000 360.000 230.000 L 362.000 230.000 362.000 228.000 L 362.000 226.000 364.000 226.000 L 366.000 226.000 366.000 218.000 L 366.000 210.000 368.000 210.000 L 370.000 210.000 370.000 194.000 L 370.000 178.000 372.000 178.000 L 374.000 178.000 374.000 160.000 L 374.000 142.000 376.000 142.000 L 378.000 142.000 378.000 126.000 L 378.000 110.000 380.000 110.000 L 382.000 110.000 382.000 104.000 L 382.000 98.000 380.000 98.000 L 378.000 98.000 378.000 96.000 L 378.000 94.000 376.000 94.000 L 374.000 94.000 374.000 92.000 L 374.000 90.000 372.000 90.000 L 370.000 90.000 370.000 86.000 L 370.000 82.000 368.000 82.000 L 366.000 82.000 366.000 80.000 L 366.000 78.000 364.000 78.000 L 362.000 78.000 362.000 76.000 L 362.000 74.000 360.000 74.000 L 358.000 74.000 358.000 72.000 L 358.000 70.000 356.000 70.000 L 354.000 70.000 354.000 68.000 L 354.000 66.000 352.000 66.000 L 350.000 66.000 350.000 64.000 L 350.000 62.000 344.000 62.000 L 338.000 62.000 338.000 64.000 M126.000 232.000 L 126.000 234.000 124.000 234.000 L 122.000 234.000 122.000 236.000 L 122.000 238.000 120.000 238.000 L 118.000 238.000 118.000 240.000 L 118.000 242.000 116.000 242.000 L 114.000 242.000 114.000 244.000 L 114.000 246.000 112.000 246.000 L 110.000 246.000 110.000 248.000 L 110.000 250.000 108.000 250.000 L 106.000 250.000 106.000 252.000 L 106.000 254.000 104.000 254.000 L 102.000 254.000 102.000 256.000 L 102.000 258.000 100.000 258.000 L 98.000 258.000 98.000 260.000 L 98.000 262.000 96.000 262.000 L 94.000 262.000 94.000 264.000 L 94.000 266.000 92.000 266.000 L 90.000 266.000 90.000 274.000 L 90.000 282.000 92.000 282.000 L 94.000 282.000 94.000 284.000 L 94.000 286.000 96.000 286.000 L 98.000 286.000 98.000 288.000 L 98.000 290.000 100.000 290.000 L 102.000 290.000 102.000 292.000 L 102.000 294.000 104.000 294.000 L 106.000 294.000 106.000 298.000 L 106.000 302.000 108.000 302.000 L 110.000 302.000 110.000 304.000 L 110.000 306.000 112.000 306.000 L 114.000 306.000 114.000 308.000 L 114.000 310.000 116.000 310.000 L 118.000 310.000 118.000 312.000 L 118.000 314.000 196.000 314.000 L 274.000 314.000 274.000 312.000 L 274.000 310.000 276.000 310.000 L 278.000 310.000 278.000 308.000 L 278.000 306.000 280.000 306.000 L 282.000 306.000 282.000 304.000 L 282.000 302.000 284.000 302.000 L 286.000 302.000 286.000 300.000 L 286.000 298.000 288.000 298.000 L 290.000 298.000 290.000 296.000 L 290.000 294.000 292.000 294.000 L 294.000 294.000 294.000 292.000 L 294.000 290.000 296.000 290.000 L 298.000 290.000 298.000 288.000 L 298.000 286.000 300.000 286.000 L 302.000 286.000 302.000 284.000 L 302.000 282.000 304.000 282.000 L 306.000 282.000 306.000 280.000 L 306.000 278.000 308.000 278.000 L 310.000 278.000 310.000 270.000 L 310.000 262.000 308.000 262.000 L 306.000 262.000 306.000 260.000 L 306.000 258.000 304.000 258.000 L 302.000 258.000 302.000 256.000 L 302.000 254.000 300.000 254.000 L 298.000 254.000 298.000 252.000 L 298.000 250.000 296.000 250.000 L 294.000 250.000 294.000 246.000 L 294.000 242.000 292.000 242.000 L 290.000 242.000 290.000 240.000 L 290.000 238.000 288.000 238.000 L 286.000 238.000 286.000 236.000 L 286.000 234.000 284.000 234.000 L 282.000 234.000 282.000 232.000 L 282.000 230.000 204.000 230.000 L 126.000 230.000 126.000 232.000 M314.000 284.000 L 314.000 286.000 312.000 286.000 L 310.000 286.000 310.000 288.000 L 310.000 290.000 308.000 290.000 L 306.000 290.000 306.000 292.000 L 306.000 294.000 304.000 294.000 L 302.000 294.000 302.000 296.000 L 302.000 298.000 300.000 298.000 L 298.000 298.000 298.000 300.000 L 298.000 302.000 296.000 302.000 L 294.000 302.000 294.000 304.000 L 294.000 306.000 292.000 306.000 L 290.000 306.000 290.000 308.000 L 290.000 310.000 288.000 310.000 L 286.000 310.000 286.000 312.000 L 286.000 314.000 284.000 314.000 L 282.000 314.000 282.000 316.000 L 282.000 318.000 280.000 318.000 L 278.000 318.000 278.000 324.000 L 278.000 330.000 276.000 330.000 L 274.000 330.000 274.000 346.000 L 274.000 362.000 272.000 362.000 L 270.000 362.000 270.000 380.000 L 270.000 398.000 268.000 398.000 L 266.000 398.000 266.000 414.000 L 266.000 430.000 264.000 430.000 L 262.000 430.000 262.000 436.000 L 262.000 442.000 264.000 442.000 L 266.000 442.000 266.000 446.000 L 266.000 450.000 268.000 450.000 L 270.000 450.000 270.000 452.000 L 270.000 454.000 272.000 454.000 L 274.000 454.000 274.000 456.000 L 274.000 458.000 276.000 458.000 L 278.000 458.000 278.000 460.000 L 278.000 462.000 280.000 462.000 L 282.000 462.000 282.000 464.000 L 282.000 466.000 284.000 466.000 L 286.000 466.000 286.000 470.000 L 286.000 474.000 288.000 474.000 L 290.000 474.000 290.000 476.000 L 290.000 478.000 292.000 478.000 L 294.000 478.000 294.000 480.000 L 294.000 482.000 298.000 482.000 L 302.000 482.000 302.000 480.000 L 302.000 478.000 304.000 478.000 L 306.000 478.000 306.000 476.000 L 306.000 474.000 308.000 474.000 L 310.000 474.000 310.000 472.000 L 310.000 470.000 312.000 470.000 L 314.000 470.000 314.000 468.000 L 314.000 466.000 316.000 466.000 L 318.000 466.000 318.000 464.000 L 318.000 462.000 320.000 462.000 L 322.000 462.000 322.000 460.000 L 322.000 458.000 324.000 458.000 L 326.000 458.000 326.000 456.000 L 326.000 454.000 330.000 454.000 L 334.000 454.000 334.000 452.000 L 334.000 450.000 336.000 450.000 L 338.000 450.000 338.000 448.000 L 338.000 446.000 340.000 446.000 L 342.000 446.000 342.000 438.000 L 342.000 430.000 344.000 430.000 L 346.000 430.000 346.000 414.000 L 346.000 398.000 348.000 398.000 L 350.000 398.000 350.000 380.000 L 350.000 362.000 352.000 362.000 L 354.000 362.000 354.000 346.000 L 354.000 330.000 356.000 330.000 L 358.000 330.000 358.000 324.000 L 358.000 318.000 356.000 318.000 L 354.000 318.000 354.000 316.000 L 354.000 314.000 352.000 314.000 L 350.000 314.000 350.000 312.000 L 350.000 310.000 348.000 310.000 L 346.000 310.000 346.000 306.000 L 346.000 302.000 344.000 302.000 L 342.000 302.000 342.000 300.000 L 342.000 298.000 340.000 298.000 L 338.000 298.000 338.000 296.000 L 338.000 294.000 336.000 294.000 L 334.000 294.000 334.000 292.000 L 334.000 290.000 332.000 290.000 L 330.000 290.000 330.000 288.000 L 330.000 286.000 328.000 286.000 L 326.000 286.000 326.000 284.000 L 326.000 282.000 320.000 282.000 L 314.000 282.000 314.000 284.000 M98.000 452.000 L 98.000 454.000 96.000 454.000 L 94.000 454.000 94.000 456.000 L 94.000 458.000 92.000 458.000 L 90.000 458.000 90.000 460.000 L 90.000 462.000 88.000 462.000 L 86.000 462.000 86.000 464.000 L 86.000 466.000 84.000 466.000 L 82.000 466.000 82.000 468.000 L 82.000 470.000 80.000 470.000 L 78.000 470.000 78.000 472.000 L 78.000 474.000 76.000 474.000 L 74.000 474.000 74.000 476.000 L 74.000 478.000 72.000 478.000 L 70.000 478.000 70.000 480.000 L 70.000 482.000 68.000 482.000 L 66.000 482.000 66.000 484.000 L 66.000 486.000 64.000 486.000 L 62.000 486.000 62.000 494.000 L 62.000 502.000 64.000 502.000 L 66.000 502.000 66.000 504.000 L 66.000 506.000 68.000 506.000 L 70.000 506.000 70.000 508.000 L 70.000 510.000 72.000 510.000 L 74.000 510.000 74.000 512.000 L 74.000 514.000 76.000 514.000 L 78.000 514.000 78.000 518.000 L 78.000 522.000 80.000 522.000 L 82.000 522.000 82.000 524.000 L 82.000 526.000 84.000 526.000 L 86.000 526.000 86.000 528.000 L 86.000 530.000 88.000 530.000 L 90.000 530.000 90.000 532.000 L 90.000 534.000 168.000 534.000 L 246.000 534.000 246.000 532.000 L 246.000 530.000 248.000 530.000 L 250.000 530.000 250.000 528.000 L 250.000 526.000 252.000 526.000 L 254.000 526.000 254.000 524.000 L 254.000 522.000 256.000 522.000 L 258.000 522.000 258.000 520.000 L 258.000 518.000 260.000 518.000 L 262.000 518.000 262.000 516.000 L 262.000 514.000 264.000 514.000 L 266.000 514.000 266.000 512.000 L 266.000 510.000 268.000 510.000 L 270.000 510.000 270.000 508.000 L 270.000 506.000 272.000 506.000 L 274.000 506.000 274.000 504.000 L 274.000 502.000 276.000 502.000 L 278.000 502.000 278.000 500.000 L 278.000 498.000 280.000 498.000 L 282.000 498.000 282.000 490.000 L 282.000 482.000 280.000 482.000 L 278.000 482.000 278.000 480.000 L 278.000 478.000 276.000 478.000 L 274.000 478.000 274.000 476.000 L 274.000 474.000 272.000 474.000 L 270.000 474.000 270.000 472.000 L 270.000 470.000 268.000 470.000 L 266.000 470.000 266.000 466.000 L 266.000 462.000 264.000 462.000 L 262.000 462.000 262.000 460.000 L 262.000 458.000 260.000 458.000 L 258.000 458.000 258.000 456.000 L 258.000 454.000 256.000 454.000 L 254.000 454.000 254.000 452.000 L 254.000 450.000 176.000 450.000 L 98.000 450.000 98.000 452.000 " stroke="none" fill="#000000" fill-rule="evenodd"></path></g></svg>