<svg id="svg" version="1.1" width="400" height="548" xmlns="http://www.w3.org/2000/svg" xmlns:xlink="http://www.w3.org/1999/xlink" style="display: block;"><g id="svgg"><path id="path0" d="M94.000 64.000 L 94.000 66.000 92.000 66.000 L 90.000 66.000 90.000 68.000 L 90.000 70.000 88.000 70.000 L 86.000 70.000 86.000 72.000 L 86.000 74.000 84.000 74.000 L 82.000 74.000 82.000 76.000 L 82.000 78.000 80.000 78.000 L 78.000 78.000 78.000 80.000 L 78.000 82.000 76.000 82.000 L 74.000 82.000 74.000 84.000 L 74.000 86.000 72.000 86.000 L 70.000 86.000 70.000 88.000 L 70.000 90.000 68.000 90.000 L 66.000 90.000 66.000 92.000 L 66.000 94.000 64.000 94.000 L 62.000 94.000 62.000 96.000 L 62.000 98.000 60.000 98.000 L 58.000 98.000 58.000 106.000 L 58.000 114.000 56.000 114.000 L 54.000 114.000 54.000 130.000 L 54.000 146.000 52.000 146.000 L 50.000 146.000 50.000 162.000 L 50.000 178.000 48.000 178.000 L 46.000 178.000 46.000 196.000 L 46.000 214.000 44.000 214.000 L 42.000 214.000 42.000 218.000 L 42.000 222.000 44.000 222.000 L 46.000 222.000 46.000 226.000 L 46.000 230.000 48.000 230.000 L 50.000 230.000 50.000 232.000 L 50.000 234.000 52.000 234.000 L 54.000 234.000 54.000 236.000 L 54.000 238.000 56.000 238.000 L 58.000 238.000 58.000 240.000 L 58.000 242.000 60.000 242.000 L 62.000 242.000 62.000 246.000 L 62.000 250.000 64.000 250.000 L 66.000 250.000 66.000 252.000 L 66.000 254.000 68.000 254.000 L 70.000 254.000 70.000 256.000 L 70.000 258.000 72.000 258.000 L 74.000 258.000 74.000 260.000 L 74.000 262.000 78.000 262.000 L 82.000 262.000 82.000 260.000 L 82.000 258.000 84.000 258.000 L 86.000 258.000 86.000 256.000 L 86.000 254.000 88.000 254.000 L 90.000 254.000 90.000 252.000 L 90.000 250.000 92.000 250.000 L 94.000 250.000 94.000 248.000 L 94.000 246.000 96.000 246.000 L 98.000 246.000 98.000 244.000 L 98.000 242.000 100.000 242.000 L 102.000 242.000 102.000 240.000 L 102.000 238.000 104.000 238.000 L 106.000 238.000 106.000 236.000 L 106.000 234.000 108.000 234.000 L 110.000 234.000 110.000 232.000 L 110.000 230.000 114.000 230.000 L 118.000 230.000 118.000 228.000 L 118.000 226.000 120.000 226.000 L 122.000 226.000 122.000 216.000 L 122.000 206.000 124.000 206.000 L 126.000 206.000 126.000 190.000 L 126.000 174.000 128.000 174.000 L 130.000 174.000 130.000 158.000 L 130.000 142.000 132.000 142.000 L 134.000 142.000 134.000 124.000 L 134.000 106.000 136.000 106.000 L 138.000 106.000 138.000 102.000 L 138.000 98.000 136.000 98.000 L 134.000 98.000 134.000 96.000 L 134.000 94.000 132.000 94.000 L 130.000 94.000 130.000 92.000 L 130.000 90.000 128.000 90.000 L 126.000 90.000 126.000 86.000 L 126.000 82.000 124.000 82.000 L 122.000 82.000 122.000 80.000 L 122.000 78.000 120.000 78.000 L 118.000 78.000 118.000 76.000 L 118.000 74.000 116.000 74.000 L 114.000 74.000 114.000 72.000 L 114.000 70.000 112.000 70.000 L 110.000 70.000 110.000 68.000 L 110.000 66.000 108.000 66.000 L 106.000 66.000 106.000 64.000 L 106.000 62.000 100.000 62.000 L 94.000 62.000 94.000 64.000 M338.000 64.000 L 338.000 66.000 336.000 66.000 L 334.000 66.000 334.000 68.000 L 334.000 70.000 332.000 70.000 L 330.000 70.000 330.000 72.000 L 330.000 74.000 328.000 74.000 L 326.000 74.000 326.000 76.000 L 326.000 78.000 324.000 78.000 L 322.000 78.000 322.000 80.000 L 322.000 82.000 320.000 82.000 L 318.000 82.000 318.000 84.000 L 318.000 86.000 316.000 86.000 L 314.000 86.000 314.000 88.000 L 314.000 90.000 312.000 90.000 L 310.000 90.000 310.000 92.000 L 310.000 94.000 308.000 94.000 L 306.000 94.000 306.000 96.000 L 306.000 98.000 304.000 98.000 L 302.000 98.000 302.000 104.000 L 302.000 110.000 300.000 110.000 L 298.000 110.000 298.000 126.000 L 298.000 142.000 296.000 142.000 L 294.000 142.000 294.000 160.000 L 294.000 178.000 292.000 178.000 L 290.000 178.000 290.000 194.000 L 290.000 210.000 288.000 210.000 L 286.000 210.000 286.000 216.000 L 286.000 222.000 288.000 222.000 L 290.000 222.000 290.000 226.000 L 290.000 230.000 292.000 230.000 L 294.000 230.000 294.000 232.000 L 294.000 234.000 296.000 234.000 L 298.000 234.000 298.000 236.000 L 298.000 238.000 300.000 238.000 L 302.000 238.000 302.000 240.000 L 302.000 242.000 304.000 242.000 L 306.000 242.000 306.000 244.000 L 306.000 246.000 308.000 246.000 L 310.000 246.000 310.000 250.000 L 310.000 254.000 312.000 254.000 L 314.000 254.000 314.000 256.000 L 314.000 258.000 316.000 258.000 L 318.000 258.000 318.000 260.000 L 318.000 262.000 322.000 262.000 L 326.000 262.000 326.000 260.000 L 326.000 258.000 328.000 258.000 L 330.000 258.000 330.000 256.000 L 330.000 254.000 332.000 254.000 L 334.000 254.000 334.000 252.000 L 334.000 250.000 336.000 250.000 L 338.000 250.000 338.000 248.000 L 338.000 246.000 340.000 246.000 L 342.000 246.000 342.000 244.000 L 342.000 242.000 344.000 242.000 L 346.000 242.000 346.000 240.000 L 346.000 238.000 348.000 238.000 L 350.000 238.000 350.000 236.000 L 350.000 234.000 354.000 234.000 L 358.000 234.000 358.000 232.000 L 358.000 230.000 360.000 230.000 L 362.000 230.000 362.000 228.000 L 362.000 226.000 364.000 226.000 L 366.000 226.000 366.000 218.000 L 366.000 210.000 368.000 210.000 L 370.000 210.000 370.000 194.000 L 370.000 178.000 372.000 178.000 L 374.000 178.000 374.000 160.000 L 374.000 142.000 376.000 142.000 L 378.000 142.000 378.000 126.000 L 378.000 110.000 380.000 110.000 L 382.000 110.000 382.000 104.000 L 382.000 98.000 380.000 98.000 L 378.000 98.000 378.000 96.000 L 378.000 94.000 376.000 94.000 L 374.000 94.000 374.000 92.000 L 374.000 90.000 372.000 90.000 L 370.000 90.000 370.000 86.000 L 370.000 82.000 368.000 82.000 L 366.000 82.000 366.000 80.000 L 366.000 78.000 364.000 78.000 L 362.000 78.000 362.000 76.000 L 362.000 74.000 360.000 74.000 L 358.000 74.000 358.000 72.000 L 358.000 70.000 356.000 70.000 L 354.000 70.000 354.000 68.000 L 354.000 66.000 352.000 66.000 L 350.000 66.000 350.000 64.000 L 350.000 62.000 344.000 62.000 L 338.000 62.000 338.000 64.000 M126.000 232.000 L 126.000 234.000 124.000 234.000 L 122.000 234.000 122.000 236.000 L 122.000 238.000 120.000 238.000 L 118.000 238.000 118.000 240.000 L 118.000 242.000 116.000 242.000 L 114.000 242.000 114.000 244.000 L 114.000 246.000 112.000 246.000 L 110.000 246.000 110.000 248.000 L 110.000 250.000 108.000 250.000 L 106.000 250.000 106.000 252.000 L 106.000 254.000 104.000 254.000 L 102.000 254.000 102.000 256.000 L 102.000 258.000 100.000 258.000 L 98.000 258.000 98.000 260.000 L 98.000 262.000 96.000 262.000 L 94.000 262.000 94.000 264.000 L 94.000 266.000 92.000 266.000 L 90.000 266.000 90.000 274.000 L 90.000 282.000 92.000 282.000 L 94.000 282.000 94.000 284.000 L 94.000 286.000 96.000 286.000 L 98.000 286.000 98.000 288.000 L 98.000 290.000 100.000 290.000 L 102.000 290.000 102.000 292.000 L 102.000 294.000 104.000 294.000 L 106.000 294.000 106.000 298.000 L 106.000 302.000 108.000 302.000 L 110.000 302.000 110.000 304.000 L 110.000 306.000 112.000 306.000 L 114.000 306.000 114.000 308.000 L 114.000 310.000 116.000 310.000 L 118.000 310.000 118.000 312.000 L 118.000 314.000 196.000 314.000 L 274.000 314.000 274.000 312.000 L 274.000 310.000 276.000 310.000 L 278.000 310.000 278.000 308.000 L 278.000 306.000 280.000 306.000 L 282.000 306.000 282.000 304.000 L 282.000 302.000 284.000 302.000 L 286.000 302.000 286.000 300.000 L 286.000 298.000 288.000 298.000 L 290.000 298.000 290.000 296.000 L 290.000 294.000 292.000 294.000 L 294.000 294.000 294.000 292.000 L 294.000 290.000 296.000 290.000 L 298.000 290.000 298.000 288.000 L 298.000 286.000 300.000 286.000 L 302.000 286.000 302.000 284.000 L 302.000 282.000 304.000 282.000 L 306.000 282.000 306.000 280.000 L 306.000 278.000 308.000 278.000 L 310.000 278.000 310.000 270.000 L 310.000 262.000 308.000 262.000 L 306.000 262.000 306.000 260.000 L 306.000 258.000 304.000 258.000 L 302.000 258.000 302.000 256.000 L 302.000 254.000 300.000 254.000 L 298.000 254.000 298.000 252.000 L 298.000 250.000 296.000 250.000 L 294.000 250.000 294.000 246.000 L 294.000 242.000 292.000 242.000 L 290.000 242.000 290.000 240.000 L 290.000 238.000 288.000 238.000 L 286.000 238.000 286.000 236.000 L 286.000 234.000 284.000 234.000 L 282.000 234.000 282.000 232.000 L 282.000 230.000 204.000 230.000 L 126.000 230.000 126.000 232.000 M314.000 284.000 L 314.000 286.000 312.000 286.000 L 310.000 286.000 310.000 288.000 L 310.000 290.000 308.000 290.000 L 306.000 290.000 306.000 292.000 L 306.000 294.000 304.000 294.000 L 302.000 294.000 302.000 296.000 L 302.000 298.000 300.000 298.000 L 298.000 298.000 298.000 300.000 L 298.000 302.000 296.000 302.000 L 294.000 302.000 294.000 304.000 L 294.000 306.000 292.000 306.000 L 290.000 306.000 290.000 308.000 L 290.000 310.000 288.000 310.000 L 286.000 310.000 286.000 312.000 L 286.000 314.000 284.000 314.000 L 282.000 314.000 282.000 316.000 L 282.000 318.000 280.000 318.000 L 278.000 318.000 278.000 324.000 L 278.000 330.000 276.000 330.000 L 274.000 330.000 274.000 346.000 L 274.000 362.000 272.000 362.000 L 270.000 362.000 270.000 380.000 L 270.000 398.000 268.000 398.000 L 266.000 398.000 266.000 414.000 L 266.000 430.000 264.000 430.000 L 262.000 430.000 262.000 436.000 L 262.000 442.000 264.000 442.000 L 266.000 442.000 266.000 446.000 L 266.000 450.000 268.000 450.000 L 270.000 450.000 270.000 452.000 L 270.000 454.000 272.000 454.000 L 274.000 454.000 274.000 456.000 L 274.000 458.000 276.000 458.000 L 278.000 458.000 278.000 460.000 L 278.000 462.000 280.000 462.000 L 282.000 462.000 282.000 464.000 L 282.000 466.000 284.000 466.000 L 286.000 466.000 286.000 470.000 L 286.000 474.000 288.000 474.000 L 290.000 474.000 290.000 476.000 L 290.000 478.000 292.000 478.000 L 294.000 478.000 294.000 480.000 L 294.000 482.000 298.000 482.000 L 302.000 482.000 302.000 480.000 L 302.000 478.000 304.000 478.000 L 306.000 478.000 306.000 476.000 L 306.000 474.000 308.000 474.000 L 310.000 474.000 310.000 472.000 L 310.000 470.000 312.000 470.000 L 314.000 470.000 314.000 468.000 L 314.000 466.000 316.000 466.000 L 318.000 466.000 318.000 464.000 L 318.000 462.000 320.000 462.000 L 322.000 462.000 322.000 460.000 L 322.000 458.000 324.000 458.000 L 326.000 458.000 326.000 456.000 L 326.000 454.000 330.000 454.000 L 334.000 454.000 334.000 452.000 L 334.000 450.000 336.000 450.000 L 338.000 450.000 338.000 448.000 L 338.000 446.000 340.000 446.000 L 342.000 446.000 342.000 438.000 L 342.000 430.000 344.000 430.000 L 346.000 430.000 346.000 414.000 L 346.000 398.000 348.000 398.000 L 350.000 398.000 350.000 380.000 L 350.000 362.000 352.000 362.000 L 354.000 362.000 354.000 346.000 L 354.000 330.000 356.000 330.000 L 358.000 330.000 358.000 324.000 L 358.000 318.000 356.000 318.000 L 354.000 318.000 354.000 316.000 L 354.000 314.000 352.000 314.000 L 350.000 314.000 350.000 312.000 L 350.000 310.000 348.000 310.000 L 346.000 310.000 346.000 306.000 L 346.000 302.000 344.000 302.000 L 342.000 302.000 342.000 300.000 L 342.000 298.000 340.000 298.000 L 338.000 298.000 338.000 296.000 L 338.000 294.000 336.000 294.000 L 334.000 294.000 334.000 292.000 L 334.000 290.000 332.000 290.000 L 330.000 290.000 330.000 288.000 L 330.000 286.000 328.000 286.000 L 326.000 286.000 326.000 284.000 L 326.000 282.000 320.000 282.000 L 314.000 282.000 314.000 284.000 " stroke="none" fill="#000000" fill-rule="evenodd"></path><path id="path1" d="M94.000 64.000 L 94.000 66.000 92.000 66.000 L 90.000 66.000 90.000 68.000 L 90.000 70.000 88.000 70.000 L 86.000 70.000 86.000 72.000 L 86.000 74.000 84.000 74.000 L 82.000 74.000 82.000 76.000 L 82.000 78.000 80.000 78.000 L 78.000 78.000 78.000 80.000 L 78.000 82.000 76.000 82.000 L 74.000 82.000 74.000 84.000 L 74.000 86.000 72.000 86.000 L 70.000 86.000 70.000 88.000 L 70.000 90.000 68.000 90.000 L 66.000 90.000 66.000 92.000 L 66.000 94.000 64.000 94.000 L 62.000 94.000 62.000 96.000 L 62.000 98.000 60.000 98.000 L 58.000 98.000 58.000 106.000 L 58.000 114.000 56.000 114.000 L 54.000 114.000 54.000 130.000 L 54.000 146.000 52.000 146.000 L 50.000 146.000 50.000 162.000 L 50.000 178.000 48.000 178.000 L 46.000 178.000 46.000 196.000 L 46.000 214.000 44.000 214.000 L 42.000 214.000 42.000 218.000 L 42.000 222.000 44.000 222.000 L 46.000 222.000 46.000 226.000 L 46.000 230.000 48.000 230.000 L 50.000 230.000 50.000 232.000 L 50.000 234.000 52.000 234.000 L 54.000 234.000 54.000 236.000 L 54.000 238.000 56.000 238.000 L 58.000 238.000 58.000 240.000 L 58.000 242.000 60.000 242.000 L 62.000 242.000 62.000 246.000 L 62.000 250.000 64.000 250.000 L 66.000 250.000 66.000 252.000 L 66.000 254.000 68.000 254.000 L 70.000 254.000 70.000 256.000 L 70.000 258.000 72.000 258.000 L 74.000 258.000 74.000 260.000 L 74.000 262.000 78.000 262.000 L 82.000 262.000 82.000 260.000 L 82.000 258.000 84.000 258.000 L 86.000 258.000 86.000 256.000 L 86.000 254.000 88.000 254.000 L 90.000 254.000 90.000 252.000 L 90.000 250.000 92.000 250.000 L 94.000 250.000 94.000 248.000 L 94.000 246.000 96.000 246.000 L 98.000 246.000 98.000 244.000 L 98.000 242.000 100.000 242.000 L 102.000 242.000 102.000 240.000 L 102.000 238.000 104.000 238.000 L 106.000 238.000 106.000 236.000 L 106.000 234.000 108.000 234.000 L 110.000 234.000 110.000 232.000 L 110.000 230.000 114.000 230.000 L 118.000 230.000 118.000 228.000 L 118.000 226.000 120.000 226.000 L 122.000 226.000 122.000 216.000 L 122.000 206.000 124.000 206.000 L 126.000 206.000 126.000 190.000 L 126.000 174.000 128.000 174.000 L 130.000 174.000 130.000 158.000 L 130.000 142.000 132.000 142.000 L 134.000 142.000 134.000 124.000 L 134.000 106.000 136.000 106.000 L 138.000 106.000 138.000 102.000 L 138.000 98.000 136.000 98.000 L 134.000 98.000 134.000 96.000 L 134.000 94.000 132.000 94.000 L 130.000 94.000 130.000 92.000 L 130.000 90.000 128.000 90.000 L 126.000 90.000 126.000 86.000 L 126.000 82.000 124.000 82.000 L 122.000 82.000 122.000 80.000 L 122.000 78.000 120.000 78.000 L 118.000 78.000 118.000 76.000 L 118.000 74.000 116.000 74.000 L 114.000 74.000 114.000 72.000 L 114.000 70.000 112.000 70.000 L 110.000 70.000 110.000 68.000 L 110.000 66.000 108.000 66.000 L 106.000 66.000 106.000 64.000 L 106.000 62.000 100.000 62.000 L 94.000 62.000 94.000 64.000 M338.000 64.000 L 338.000 66.000 336.000 66.000 L 334.000 66.000 334.000 68.000 L 334.000 70.000 332.000 70.000 L 330.000 70.000 330.000 72.000 L 330.000 74.000 328.000 74.000 L 326.000 74.000 326.000 76.000 L 326.000 78.000 324.000 78.000 L 322.000 78.000 322.000 80.000 L 322.000 82.000 320.000 82.000 L 318.000 82.000 318.000 84.000 L 318.000 86.000 316.000 86.000 L 314.000 86.000 314.000 88.000 L 314.000 90.000 312.000 90.000 L 310.000 90.000 310.000 92.000 L 310.000 94.000 308.000 94.000 L 306.000 94.000 306.000 96.000 L 306.000 98.000 304.000 98.000 L 302.000 98.000 302.000 104.000 L 302.000 110.000 300.000 110.000 L 298.000 110.000 298.000 126.000 L 298.000 142.000 296.000 142.000 L 294.000 142.000 294.000 160.000 L 294.000 178.000 292.000 178.000 L 290.000 178.000 290.000 194.000 L 290.000 210.000 288.000 210.000 L 286.000 210.000 286.000 216.000 L 286.000 222.000 288.000 222.000 L 290.000 222.000 290.000 226.000 L 290.000 230.000 292.000 230.000 L 294.000 230.000 294.000 232.000 L 294.000 234.000 296.000 234.000 L 298.000 234.000 298.000 236.000 L 298.000 238.000 300.000 238.000 L 302.000 238.000 302.000 240.000 L 302.000 242.000 304.000 242.000 L 306.000 242.000 306.000 244.000 L 306.000 246.000 308.000 246.000 L 310.000 246.000 310.000 250.000 L 310.000 254.000 312.000 254.000 L 314.000 254.000 314.000 256.000 L 314.000 258.000 316.000 258.000 L 318.000 258.000 318.000 260.000 L 318.000 262.000 322.000 262.000 L 326.000 262.000 326.000 260.000 L 326.000 258.000 328.000 258.000 L 330.000 258.000 330.000 256.000 L 330.000 254.000 332.000 254.000 L 334.000 254.000 334.000 252.000 L 334.000 250.000 336.000 250.000 L 338.000 250.000 338.000 248.000 L 338.000 246.000 340.000 246.000 L 342.000 246.000 342.000 244.000 L 342.000 242.000 344.000 242.000 L 346.000 242.000 346.000 240.000 L 346.000 238.000 348.000 238.000 L 350.000 238.000 350.000 236.000 L 350.000 234.000 354.000 234.000 L 358.000 234.000 358.000 232.000 L 358.000 230.000 360.000 230.000 L 362.000 230.000 362.000 228.000 L 362.000 226.000 364.000 226.000 L 366.000 226.000 366.000 218.000 L 366.000 210.000 368.000 210.000 L 370.000 210.000 370.000 194.000 L 370.000 178.000 372.000 178.000 L 374.000 178.000 374.000 160.000 L 374.000 142.000 376.000 142.000 L 378.000 142.000 378.000 126.000 L 378.000 110.000 380.000 110.000 L 382.000 110.000 382.000 104.000 L 382.000 98.000 380.000 98.000 L 378.000 98.000 378.000 96.000 L 378.000 94.000 376.000 94.000 L 374.000 94.000 374.000 92.000 L 374.000 90.000 372.000 90.000 L 370.000 90.000 370.000 86.000 L 370.000 82.000 368.000 82.000 L 366.000 82.000 366.000 80.000 L 366.000 78.000 364.000 78.000 L 362.000 78.000 362.000 76.000 L 362.000 74.000 360.000 74.000 L 358.000 74.000 358.000 72.000 L 358.000 70.000 356.000 70.000 L 354.000 70.000 354.000 68.000 L 354.000 66.000 352.000 66.000 L 350.000 66.000 350.000 64.000 L 350.000 62.000 344.000 62.000 L 338.000 62.000 338.000 64.000 M126.000 232.000 L 126.000 234.000 124.000 234.000 L 122.000 234.000 122.000 236.000 L 122.000 238.000 120.000 238.000 L 118.000 238.000 118.000 240.000 L 118.000 242.000 116.000 242.000 L 114.000 242.000 114.000 244.000 L 114.000 246.000 112.000 246.000 L 110.000 246.000 110.000 248.000 L 110.000 250.000 108.000 250.000 L 106.000 250.000 106.000 252.000 L 106.000 254.000 104.000 254.000 L 102.000 254.000 102.000 256.000 L 102.000 258.000 100.000 258.000 L 98.000 258.000 98.000 260.000 L 98.000 262.000 96.000 262.000 L 94.000 262.000 94.000 264.000 L 94.000 266.000 92.000 266.000 L 90.000 266.000 90.000 274.000 L 90.000 282.000 92.000 282.000 L 94.000 282.000 94.000 284.000 L 94.000 286.000 96.000 286.000 L 98.000 286.000 98.000 288.000 L 98.000 290.000 100.000 290.000 L 102.000 290.000 102.000 292.000 L 102.000 294.000 104.000 294.000 L 106.000 294.000 106.000 298.000 L 106.000 302.000 108.000 302.000 L 110.000 302.000 110.000 304.000 L 110.000 306.000 112.000 306.000 L 114.000 306.000 114.000 308.000 L 114.000 310.000 116.000 310.000 L 118.000 310.000 118.000 312.000 L 118.000 314.000 196.000 314.000 L 274.000 314.000 274.000 312.000 L 274.000 310.000 276.000 310.000 L 278.000 310.000 278.000 308.000 L 278.000 306.000 280.000 306.000 L 282.000 306.000 282.000 304.000 L 282.000 302.000 284.000 302.000 L 286.000 302.000 286.000 300.000 L 286.000 298.000 288.000 298.000 L 290.000 298.000 290.000 296.000 L 290.000 294.000 292.000 294.000 L 294.000 294.000 294.000 292.000 L 294.000 290.000 296.000 290.000 L 298.000 290.000 298.000 288.000 L 298.000 286.000 300.000 286.000 L 302.000 286.000 302.000 284.000 L 302.000 282.000 304.000 282.000 L 306.000 282.000 306.000 280.000 L 306.000 278.000 308.000 278.000 L 310.000 278.000 310.000 270.000 L 310.000 262.000 308.000 262.000 L 306.000 262.000 306.000 260.000 L 306.000 258.000 304.000 258.000 L 302.000 258.000 302.000 256.000 L 302.000 254.000 300.000 254.000 L 298.000 254.000 298.000 252.000 L 298.000 250.000 296.000 250.000 L 294.000 250.000 294.000 246.000 L 294.000 242.000 292.000 242.000 L 290.000 242.000 290.000 240.000 L 290.000 238.000 288.000 238.000 L 286.000 238.000 286.000 236.000 L 286.000 234.000 284.000 234.000 L 282.000 234.000 282.000 232.000 L 282.000 230.000 204.000 230.000 L 126.000 230.000 126.000 232.000 M314.000 284.000 L 314.000 286.000 312.000 286.000 L 310.000 286.000 310.000 288.000 L 310.000 290.000 308.000 290.000 L 306.000 290.000 306.000 292.000 L 306.000 294.000 304.000 294.000 L 302.000 294.000 302.000 296.000 L 302.000 298.000 300.000 298.000 L 298.000 298.000 298.000 300.000 L 298.000 302.000 296.000 302.000 L 294.000 302.000 294.000 304.000 L 294.000 306.000 292.000 306.000 L 290.000 306.000 290.000 308.000 L 290.000 310.000 288.000 310.000 L 286.000 310.000 286.000 312.000 L 286.000 314.000 284.000 314.000 L 282.000 314.000 282.000 316.000 L 282.000 318.000 280.000 318.000 L 278.000 318.000 278.000 324.000 L 278.000 330.000 276.000 330.000 L 274.000 330.000 274.000 346.000 L 274.000 362.000 272.000 362.000 L 270.000 362.000 270.000 380.000 L 270.000 398.000 268.000 398.000 L 266.000 398.000 266.000 414.000 L 266.000 430.000 264.000 430.000 L 262.000 430.000 262.000 436.000 L 262.000 442.000 264.000 442.000 L 266.000 442.000 266.000 446.000 L 266.000 450.000 268.000 450.000 L 270.000 450.000 270.000 452.000 L 270.000 454.000 272.000 454.000 L 274.000 454.000 274.000 456.000 L 274.000 458.000 276.000 458.000 L 278.000 458.000 278.000 460.000 L 278.000 462.000 280.000 462.000 L 282.000 462.000 282.000 464.000 L 282.000 466.000 284.000 466.000 L 286.000 466.000 286.000 470.000 L 286.000 474.000 288.000 474.000 L 290.000 474.000 290.000 476.000 L 290.000 478.000 292.000 478.000 L 294.000 478.000 294.000 480.000 L 294.000 482.000 298.000 482.000 L 302.000 482.000 302.000 480.000 L 302.000 478.000 304.000 478.000 L 306.000 478.000 306.000 476.000 L 306.000 474.000 308.000 474.000 L 310.000 474.000 310.000 472.000 L 310.000 470.000 312.000 470.000 L 314.000 470.000 314.000 468.000 L 314.000 466.000 316.000 466.000 L 318.000 466.000 318.000 464.000 L 318.000 462.000 320.000 462.000 L 322.000 462.000 322.000 460.000 L 322.000 458.000 324.000 458.000 L 326.000 458.000 326.000 456.000 L 326.000 454.000 330.000 454.000 L 334.000 454.000 334.000 452.000 L 334.000 450.000 336.000 450.000 L 338.000 450.000 338.000 448.000 L 338.000 446.000 340.000 446.000 L 342.000 446.000 342.000 438.000 L 342.000 430.000 344.000 430.000 L 346.000 430.000 346.000 414.000 L 346.000 398.000 348.000 398.000 L 350.000 398.000 350.000 380.000 L 350.000 362.000 352.000 362.000 L 354.000 362.000 354.000 346.000 L 354.000 330.000 356.000 330.000 L 358.000 330.000 358.000 324.000 L 358.000 318.000 356.000 318.000 L 354.000 318.000 354.000 316.000 L 354.000 314.000 352.000 314.000 L 350.000 314.000 350.000 312.000 L 350.000 310.000 348.000 310.000 L 346.000 310.000 346.000 306.000 L 346.000 302.000 344.000 302.000 L 342.000 302.000 342.000 300.000 L 342.000 298.000 340.000 298.000 L 338.000 298.000 338.000 296.000 L 338.000 294.000 336.000 294.000 L 334.000 294.000 334.000 292.000 L 334.000 290.000 332.000 290.000 L 330.000 290.000 330.000 288.000 L 330.000 286.000 328.000 286.000 L 326.000 286.000 326.000 284.000 L 326.000 282.000 320.000 282.000 L 314.000 282.000 314.000 284.000 " stroke="none" fill="#000000" fill-rule="evenodd"></path><path id="path2" d="M94.000 64.000 L 94.000 66.000 92.000 66.000 L 90.000 66.000 90.000 68.000 L 90.000 70.000 88.000 70.000 L 86.000 70.000 86.000 72.000 L 86.000 74.000 84.000 74.000 L 82.000 74.000 82.000 76.000 L 82.000 78.000 80.000 78.000 L 78.000 78.000 78.000 80.000 L 78.000 82.000 76.000 82.000 L 74.000 82.000 74.000 84.000 L 74.000 86.000 72.000 86.000 L 70.000 86.000 70.000 88.000 L 70.000 90.000 68.000 90.000 L 66.000 90.000 66.000 92.000 L 66.000 94.000 64.000 94.000 L 62.000 94.000 62.000 96.000 L 62.000 98.000 60.000 98.000 L 58.000 98.000 58.000 106.000 L 58.000 114.000 56.000 114.000 L 54.000 114.000 54.000 130.000 L 54.000 146.000 52.000 146.000 L 50.000 146.000 50.000 162.000 L 50.000 178.000 48.000 178.000 L 46.000 178.000 46.000 196.000 L 46.000 214.000 44.000 214.000 L 42.000 214.000 42.000 218.000 L 42.000 222.000 44.000 222.000 L 46.000 222.000 46.000 226.000 L 46.000 230.000 48.000 230.000 L 50.000 230.000 50.000 232.000 L 50.000 234.000 52.000 234.000 L 54.000 234.000 54.000 236.000 L 54.000 238.000 56.000 238.000 L 58.000 238.000 58.000 240.000 L 58.000 242.000 60.000 242.000 L 62.000 242.000 62.000 246.000 L 62.000 250.000 64.000 250.000 L 66.000 250.000 66.000 252.000 L 66.000 254.000 68.000 254.000 L 70.000 254.000 70.000 256.000 L 70.000 258.000 72.000 258.000 L 74.000 258.000 74.000 260.000 L 74.000 262.000 78.000 262.000 L 82.000 262.000 82.000 260.000 L 82.000 258.000 84.000 258.000 L 86.000 258.000 86.000 256.000 L 86.000 254.000 88.000 254.000 L 90.000 254.000 90.000 252.000 L 90.000 250.000 92.000 250.000 L 94.000 250.000 94.000 248.000 L 94.000 246.000 96.000 246.000 L 98.000 246.000 98.000 244.000 L 98.000 242.000 100.000 242.000 L 102.000 242.000 102.000 240.000 L 102.000 238.000 104.000 238.000 L 106.000 238.000 106.000 236.000 L 106.000 234.000 108.000 234.000 L 110.000 234.000 110.000 232.000 L 110.000 230.000 114.000 230.000 L 118.000 230.000 118.000 228.000 L 118.000 226.000 120.000 226.000 L 122.000 226.000 122.000 216.000 L 122.000 206.000 124.000 206.000 L 126.000 206.000 126.000 190.000 L 126.000 174.000 128.000 174.000 L 130.000 174.000 130.000 158.000 L 130.000 142.000 132.000 142.000 L 134.000 142.000 134.000 124.000 L 134.000 106.000 136.000 106.000 L 138.000 106.000 138.000 102.000 L 138.000 98.000 136.000 98.000 L 134.000 98.000 134.000 96.000 L 134.000 94.000 132.000 94.000 L 130.000 94.000 130.000 92.000 L 130.000 90.000 128.000 90.000 L 126.000 90.000 126.000 86.000 L 126.000 82.000 124.000 82.000 L 122.000 82.000 122.000 80.000 L 122.000 78.000 120.000 78.000 L 118.000 78.000 118.000 76.000 L 118.000 74.000 116.000 74.000 L 114.000 74.000 114.000 72.000 L 114.000 70.000 112.000 70.000 L 110.000 70.000 110.000 68.000 L 110.000 66.000 108.000 66.000 L 106.000 66.000 106.000 64.000 L 106.000 62.000 100.000 62.000 L 94.000 62.000 94.000 64.000 M338.000 64.000 L 338.000 66.000 336.000 66.000 L 334.000 66.000 334.000 68.000 L 334.000 70.000 332.000 70.000 L 330.000 70.000 330.000 72.000 L 330.000 74.000 328.000 74.000 L 326.000 74.000 326.000 76.000 L 326.000 78.000 324.000 78.000 L 322.000 78.000 322.000 80.000 L 322.000 82.000 320.000 82.000 L 318.000 82.000 318.000 84.000 L 318.000 86.000 316.000 86.000 L 314.000 86.000 314.000 88.000 L 314.000 90.000 312.000 90.000 L 310.000 90.000 310.000 92.000 L 310.000 94.000 308.000 94.000 L 306.000 94.000 306.000 96.000 L 306.000 98.000 304.000 98.000 L 302.000 98.000 302.000 104.000 L 302.000 110.000 300.000 110.000 L 298.000 110.000 298.000 126.000 L 298.000 142.000 296.000 142.000 L 294.000 142.000 294.000 160.000 L 294.000 178.000 292.000 178.000 L 290.000 178.000 290.000 194.000 L 290.000 210.000 288.000 210.000 L 286.000 210.000 286.000 216.000 L 286.000 222.000 288.000 222.000 L 290.000 222.000 290.000 226.000 L 290.000 230.000 292.000 230.000 L 294.000 230.000 294.000 232.000 L 294.000 234.000 296.000 234.000 L 298.000 234.000 298.000 236.000 L 298.000 238.000 300.000 238.000 L 302.000 238.000 302.000 240.000 L 302.000 242.000 304.000 242.000 L 306.000 242.000 306.000 244.000 L 306.000 246.000 308.000 246.000 L 310.000 246.000 310.000 250.000 L 310.000 254.000 312.000 254.000 L 314.000 254.000 314.000 256.000 L 314.000 258.000 316.000 258.000 L 318.000 258.000 318.000 260.000 L 318.000 262.000 322.000 262.000 L 326.000 262.000 326.000 260.000 L 326.000 258.000 328.000 258.000 L 330.000 258.000 330.000 256.000 L 330.000 254.000 332.000 254.000 L 334.000 254.000 334.000 252.000 L 334.000 250.000 336.000 250.000 L 338.000 250.000 338.000 248.000 L 338.000 246.000 340.000 246.000 L 342.000 246.000 342.000 244.000 L 342.000 242.000 344.000 242.000 L 346.000 242.000 346.000 240.000 L 346.000 238.000 348.000 238.000 L 350.000 238.000 350.000 236.000 L 350.000 234.000 354.000 234.000 L 358.000 234.000 358.000 232.000 L 358.000 230.000 360.000 230.000 L 362.000 230.000 362.000 228.000 L 362.000 226.000 364.000 226.000 L 366.000 226.000 366.000 218.000 L 366.000 210.000 368.000 210.000 L 370.000 210.000 370.000 194.000 L 370.000 178.000 372.000 178.000 L 374.000 178.000 374.000 160.000 L 374.000 142.000 376.000 142.000 L 378.000 142.000 378.000 126.000 L 378.000 110.000 380.000 110.000 L 382.000 110.000 382.000 104.000 L 382.000 98.000 380.000 98.000 L 378.000 98.000 378.000 96.000 L 378.000 94.000 376.000 94.000 L 374.000 94.000 374.000 92.000 L 374.000 90.000 372.000 90.000 L 370.000 90.000 370.000 86.000 L 370.000 82.000 368.000 82.000 L 366.000 82.000 366.000 80.000 L 366.000 78.000 364.000 78.000 L 362.000 78.000 362.000 76.000 L 362.000 74.000 360.000 74.000 L 358.000 74.000 358.000 72.000 L 358.000 70.000 356.000 70.000 L 354.000 70.000 354.000 68.000 L 354.000 66.000 352.000 66.000 L 350.000 66.000 350.000 64.000 L 350.000 62.000 344.000 62.000 L 338.000 62.000 338.000 64.000 M126.000 232.000 L 126.000 234.000 124.000 234.000 L 122.000 234.000 122.000 236.000 L 122.000 238.000 120.000 238.000 L 118.000 238.000 118.000 240.000 L 118.000 242.000 116.000 242.000 L 114.000 242.000 114.000 244.000 L 114.000 246.000 112.000 246.000 L 110.000 246.000 110.000 248.000 L 110.000 250.000 108.000 250.000 L 106.000 250.000 106.000 252.000 L 106.000 254.000 104.000 254.000 L 102.000 254.000 102.000 256.000 L 102.000 258.000 100.000 258.000 L 98.000 258.000 98.000 260.000 L 98.000 262.000 96.000 262.000 L 94.000 262.000 94.000 264.000 L 94.000 266.000 92.000 266.000 L 90.000 266.000 90.000 274.000 L 90.000 282.000 92.000 282.000 L 94.000 282.000 94.000 284.000 L 94.000 286.000 96.000 286.000 L 98.000 286.000 98.000 288.000 L 98.000 290.000 100.000 290.000 L 102.000 290.000 102.000 292.000 L 102.000 294.000 104.000 294.000 L 106.000 294.000 106.000 298.000 L 106.000 302.000 108.000 302.000 L 110.000 302.000 110.000 304.000 L 110.000 306.000 112.000 306.000 L 114.000 306.000 114.000 308.000 L 114.000 310.000 116.000 310.000 L 118.000 310.000 118.000 312.000 L 118.000 314.000 196.000 314.000 L 274.000 314.000 274.000 312.000 L 274.000 310.000 276.000 310.000 L 278.000 310.000 278.000 308.000 L 278.000 306.000 280.000 306.000 L 282.000 306.000 282.000 304.000 L 282.000 302.000 284.000 302.000 L 286.000 302.000 286.000 300.000 L 286.000 298.000 288.000 298.000 L 290.000 298.000 290.000 296.000 L 290.000 294.000 292.000 294.000 L 294.000 294.000 294.000 292.000 L 294.000 290.000 296.000 290.000 L 298.000 290.000 298.000 288.000 L 298.000 286.000 300.000 286.000 L 302.000 286.000 302.000 284.000 L 302.000 282.000 304.000 282.000 L 306.000 282.000 306.000 280.000 L 306.000 278.000 308.000 278.000 L 310.000 278.000 310.000 270.000 L 310.000 262.000 308.000 262.000 L 306.000 262.000 306.000 260.000 L 306.000 258.000 304.000 258.000 L 302.000 258.000 302.000 256.000 L 302.000 254.000 300.000 254.000 L 298.000 254.000 298.000 252.000 L 298.000 250.000 296.000 250.000 L 294.000 250.000 294.000 246.000 L 294.000 242.000 292.000 242.000 L 290.000 242.000 290.000 240.000 L 290.000 238.000 288.000 238.000 L 286.000 238.000 286.000 236.000 L 286.000 234.000 284.000 234.000 L 282.000 234.000 282.000 232.000 L 282.000 230.000 204.000 230.000 L 126.000 230.000 126.000 232.000 M314.000 284.000 L 314.000 286.000 312.000 286.000 L 310.000 286.000 310.000 288.000 L 310.000 290.000 308.000 290.000 L 306.000 290.000 306.000 292.000 L 306.000 294.000 304.000 294.000 L 302.000 294.000 302.000 296.000 L 302.000 298.000 300.000 298.000 L 298.000 298.000 298.000 300.000 L 298.000 302.000 296.000 302.000 L 294.000 302.000 294.000 304.000 L 294.000 306.000 292.000 306.000 L 290.000 306.000 290.000 308.000 L 290.000 310.000 288.000 310.000 L 286.000 310.000 286.000 312.000 L 286.000 314.000 284.000 314.000 L 282.000 314.000 282.000 316.000 L 282.000 318.000 280.000 318.000 L 278.000 318.000 278.000 324.000 L 278.000 330.000 276.000 330.000 L 274.000 330.000 274.000 346.000 L 274.000 362.000 272.000 362.000 L 270.000 362.000 270.000 380.000 L 270.000 398.000 268.000 398.000 L 266.000 398.000 266.000 414.000 L 266.000 430.000 264.000 430.000 L 262.000 430.000 262.000 436.000 L 262.000 442.000 264.000 442.000 L 266.000 442.000 266.000 446.000 L 266.000 450.000 268.000 450.000 L 270.000 450.000 270.000 452.000 L 270.000 454.000 272.000 454.000 L 274.000 454.000 274.000 456.000 L 274.000 458.000 276.000 458.000 L 278.000 458.000 278.000 460.000 L 278.000 462.000 280.000 462.000 L 282.000 462.000 282.000 464.000 L 282.000 466.000 284.000 466.000 L 286.000 466.000 286.000 470.000 L 286.000 474.000 288.000 474.000 L 290.000 474.000 290.000 476.000 L 290.000 478.000 292.000 478.000 L 294.000 478.000 294.000 480.000 L 294.000 482.000 298.000 482.000 L 302.000 482.000 302.000 480.000 L 302.000 478.000 304.000 478.000 L 306.000 478.000 306.000 476.000 L 306.000 474.000 308.000 474.000 L 310.000 474.000 310.000 472.000 L 310.000 470.000 312.000 470.000 L 314.000 470.000 314.000 468.000 L 314.000 466.000 316.000 466.000 L 318.000 466.000 318.000 464.000 L 318.000 462.000 320.000 462.000 L 322.000 462.000 322.000 460.000 L 322.000 458.000 324.000 458.000 L 326.000 458.000 326.000 456.000 L 326.000 454.000 330.000 454.000 L 334.000 454.000 334.000 452.000 L 334.000 450.000 336.000 450.000 L 338.000 450.000 338.000 448.000 L 338.000 446.000 340.000 446.000 L 342.000 446.000 342.000 438.000 L 342.000 430.000 344.000 430.000 L 346.000 430.000 346.000 414.000 L 346.000 398.000 348.000 398.000 L 350.000 398.000 350.000 380.000 L 350.000 362.000 352.000 362.000 L 354.000 362.000 354.000 346.000 L 354.000 330.000 356.000 330.000 L 358.000 330.000 358.000 324.000 L 358.000 318.000 356.000 318.000 L 354.000 318.000 354.000 316.000 L 354.000 314.000 352.000 314.000 L 350.000 314.000 350.000 312.000 L 350.000 310.000 348.000 310.000 L 346.000 310.000 346.000 306.000 L 346.000 302.000 344.000 302.000 L 342.000 302.000 342.000 300.000 L 342.000 298.000 340.000 298.000 L 338.000 298.000 338.000 296.000 L 338.000 294.000 336.000 294.000 L 334.000 294.000 334.000 292.000 L 334.000 290.000 332.000 290.000 L 330.000 290.000 330.000 288.000 L 330.000 286.000 328.000 286.000 L 326.000 286.000 326.000 284.000 L 326.000 282.000 320.000 282.000 L 314.000 282.000 314.000 284.000 " stroke="none" fill="#000000" fill-rule="evenodd"></path><path id="path3" d="M94.000 64.000 L 94.000 66.000 92.000 66.000 L 90.000 66.000 90.000 68.000 L 90.000 70.000 88.000 70.000 L 86.000 70.000 86.000 72.000 L 86.000 74.000 84.000 74.000 L 82.000 74.000 82.000 76.000 L 82.000 78.000 80.000 78.000 L 78.000 78.000 78.000 80.000 L 78.000 82.000 76.000 82.000 L 74.000 82.000 74.000 84.000 L 74.000 86.000 72.000 86.000 L 70.000 86.000 70.000 88.000 L 70.000 90.000 68.000 90.000 L 66.000 90.000 66.000 92.000 L 66.000 94.000 64.000 94.000 L 62.000 94.000 62.000 96.000 L 62.000 98.000 60.000 98.000 L 58.000 98.000 58.000 106.000 L 58.000 114.000 56.000 114.000 L 54.000 114.000 54.000 130.000 L 54.000 146.000 52.000 146.000 L 50.000 146.000 50.000 162.000 L 50.000 178.000 48.000 178.000 L 46.000 178.000 46.000 196.000 L 46.000 214.000 44.000 214.000 L 42.000 214.000 42.000 218.000 L 42.000 222.000 44.000 222.000 L 46.000 222.000 46.000 226.000 L 46.000 230.000 48.000 230.000 L 50.000 230.000 50.000 232.000 L 50.000 234.000 52.000 234.000 L 54.000 234.000 54.000 236.000 L 54.000 238.000 56.000 238.000 L 58.000 238.000 58.000 240.000 L 58.000 242.000 60.000 242.000 L 62.000 242.000 62.000 246.000 L 62.000 250.000 64.000 250.000 L 66.000 250.000 66.000 252.000 L 66.000 254.000 68.000 254.000 L 70.000 254.000 70.000 256.000 L 70.000 258.000 72.000 258.000 L 74.000 258.000 74.000 260.000 L 74.000 262.000 78.000 262.000 L 82.000 262.000 82.000 260.000 L 82.000 258.000 84.000 258.000 L 86.000 258.000 86.000 256.000 L 86.000 254.000 88.000 254.000 L 90.000 254.000 90.000 252.000 L 90.000 250.000 92.000 250.000 L 94.000 250.000 94.000 248.000 L 94.000 246.000 96.000 246.000 L 98.000 246.000 98.000 244.000 L 98.000 242.000 100.000 242.000 L 102.000 242.000 102.000 240.000 L 102.000 238.000 104.000 238.000 L 106.000 238.000 106.000 236.000 L 106.000 234.000 108.000 234.000 L 110.000 234.000 110.000 232.000 L 110.000 230.000 114.000 230.000 L 118.000 230.000 118.000 228.000 L 118.000 226.000 120.000 226.000 L 122.000 226.000 122.000 216.000 L 122.000 206.000 124.000 206.000 L 126.000 206.000 126.000 190.000 L 126.000 174.000 128.000 174.000 L 130.000 174.000 130.000 158.000 L 130.000 142.000 132.000 142.000 L 134.000 142.000 134.000 124.000 L 134.000 106.000 136.000 106.000 L 138.000 106.000 138.000 102.000 L 138.000 98.000 136.000 98.000 L 134.000 98.000 134.000 96.000 L 134.000 94.000 132.000 94.000 L 130.000 94.000 130.000 92.000 L 130.000 90.000 128.000 90.000 L 126.000 90.000 126.000 86.000 L 126.000 82.000 124.000 82.000 L 122.000 82.000 122.000 80.000 L 122.000 78.000 120.000 78.000 L 118.000 78.000 118.000 76.000 L 118.000 74.000 116.000 74.000 L 114.000 74.000 114.000 72.000 L 114.000 70.000 112.000 70.000 L 110.000 70.000 110.000 68.000 L 110.000 66.000 108.000 66.000 L 106.000 66.000 106.000 64.000 L 106.000 62.000 100.000 62.000 L 94.000 62.000 94.000 64.000 M338.000 64.000 L 338.000 66.000 336.000 66.000 L 334.000 66.000 334.000 68.000 L 334.000 70.000 332.000 70.000 L 330.000 70.000 330.000 72.000 L 330.000 74.000 328.000 74.000 L 326.000 74.000 326.000 76.000 L 326.000 78.000 324.000 78.000 L 322.000 78.000 322.000 80.000 L 322.000 82.000 320.000 82.000 L 318.000 82.000 318.000 84.000 L 318.000 86.000 316.000 86.000 L 314.000 86.000 314.000 88.000 L 314.000 90.000 312.000 90.000 L 310.000 90.000 310.000 92.000 L 310.000 94.000 308.000 94.000 L 306.000 94.000 306.000 96.000 L 306.000 98.000 304.000 98.000 L 302.000 98.000 302.000 104.000 L 302.000 110.000 300.000 110.000 L 298.000 110.000 298.000 126.000 L 298.000 142.000 296.000 142.000 L 294.000 142.000 294.000 160.000 L 294.000 178.000 292.000 178.000 L 290.000 178.000 290.000 194.000 L 290.000 210.000 288.000 210.000 L 286.000 210.000 286.000 216.000 L 286.000 222.000 288.000 222.000 L 290.000 222.000 290.000 226.000 L 290.000 230.000 292.000 230.000 L 294.000 230.000 294.000 232.000 L 294.000 234.000 296.000 234.000 L 298.000 234.000 298.000 236.000 L 298.000 238.000 300.000 238.000 L 302.000 238.000 302.000 240.000 L 302.000 242.000 304.000 242.000 L 306.000 242.000 306.000 244.000 L 306.000 246.000 308.000 246.000 L 310.000 246.000 310.000 250.000 L 310.000 254.000 312.000 254.000 L 314.000 254.000 314.000 256.000 L 314.000 258.000 316.000 258.000 L 318.000 258.000 318.000 260.000 L 318.000 262.000 322.000 262.000 L 326.000 262.000 326.000 260.000 L 326.000 258.000 328.000 258.000 L 330.000 258.000 330.000 256.000 L 330.000 254.000 332.000 254.000 L 334.000 254.000 334.000 252.000 L 334.000 250.000 336.000 250.000 L 338.000 250.000 338.000 248.000 L 338.000 246.000 340.000 246.000 L 342.000 246.000 342.000 244.000 L 342.000 242.000 344.000 242.000 L 346.000 242.000 346.000 240.000 L 346.000 238.000 348.000 238.000 L 350.000 238.000 350.000 236.000 L 350.000 234.000 354.000 234.000 L 358.000 234.000 358.000 232.000 L 358.000 230.000 360.000 230.000 L 362.000 230.000 362.000 228.000 L 362.000 226.000 364.000 226.000 L 366.000 226.000 366.000 218.000 L 366.000 210.000 368.000 210.000 L 370.000 210.000 370.000 194.000 L 370.000 178.000 372.000 178.000 L 374.000 178.000 374.000 160.000 L 374.000 142.000 376.000 142.000 L 378.000 142.000 378.000 126.000 L 378.000 110.000 380.000 110.000 L 382.000 110.000 382.000 104.000 L 382.000 98.000 380.000 98.000 L 378.000 98.000 378.000 96.000 L 378.000 94.000 376.000 94.000 L 374.000 94.000 374.000 92.000 L 374.000 90.000 372.000 90.000 L 370.000 90.000 370.000 86.000 L 370.000 82.000 368.000 82.000 L 366.000 82.000 366.000 80.000 L 366.000 78.000 364.000 78.000 L 362.000 78.000 362.000 76.000 L 362.000 74.000 360.000 74.000 L 358.000 74.000 358.000 72.000 L 358.000 70.000 356.000 70.000 L 354.000 70.000 354.000 68.000 L 354.000 66.000 352.000 66.000 L 350.000 66.000 350.000 64.000 L 350.000 62.000 344.000 62.000 L 338.000 62.000 338.000 64.000 M126.000 232.000 L 126.000 234.000 124.000 234.000 L 122.000 234.000 122.000 236.000 L 122.000 238.000 120.000 238.000 L 118.000 238.000 118.000 240.000 L 118.000 242.000 116.000 242.000 L 114.000 242.000 114.000 244.000 L 114.000 246.000 112.000 246.000 L 110.000 246.000 110.000 248.000 L 110.000 250.000 108.000 250.000 L 106.000 250.000 106.000 252.000 L 106.000 254.000 104.000 254.000 L 102.000 254.000 102.000 256.000 L 102.000 258.000 100.000 258.000 L 98.000 258.000 98.000 260.000 L 98.000 262.000 96.000 262.000 L 94.000 262.000 94.000 264.000 L 94.000 266.000 92.000 266.000 L 90.000 266.000 90.000 274.000 L 90.000 282.000 92.000 282.000 L 94.000 282.000 94.000 284.000 L 94.000 286.000 96.000 286.000 L 98.000 286.000 98.000 288.000 L 98.000 290.000 100.000 290.000 L 102.000 290.000 102.000 292.000 L 102.000 294.000 104.000 294.000 L 106.000 294.000 106.000 298.000 L 106.000 302.000 108.000 302.000 L 110.000 302.000 110.000 304.000 L 110.000 306.000 112.000 306.000 L 114.000 306.000 114.000 308.000 L 114.000 310.000 116.000 310.000 L 118.000 310.000 118.000 312.000 L 118.000 314.000 196.000 314.000 L 274.000 314.000 274.000 312.000 L 274.000 310.000 276.000 310.000 L 278.000 310.000 278.000 308.000 L 278.000 306.000 280.000 306.000 L 282.000 306.000 282.000 304.000 L 282.000 302.000 284.000 302.000 L 286.000 302.000 286.000 300.000 L 286.000 298.000 288.000 298.000 L 290.000 298.000 290.000 296.000 L 290.000 294.000 292.000 294.000 L 294.000 294.000 294.000 292.000 L 294.000 290.000 296.000 290.000 L 298.000 290.000 298.000 288.000 L 298.000 286.000 300.000 286.000 L 302.000 286.000 302.000 284.000 L 302.000 282.000 304.000 282.000 L 306.000 282.000 306.000 280.000 L 306.000 278.000 308.000 278.000 L 310.000 278.000 310.000 270.000 L 310.000 262.000 308.000 262.000 L 306.000 262.000 306.000 260.000 L 306.000 258.000 304.000 258.000 L 302.000 258.000 302.000 256.000 L 302.000 254.000 300.000 254.000 L 298.000 254.000 298.000 252.000 L 298.000 250.000 296.000 250.000 L 294.000 250.000 294.000 246.000 L 294.000 242.000 292.000 242.000 L 290.000 242.000 290.000 240.000 L 290.000 238.000 288.000 238.000 L 286.000 238.000 286.000 236.000 L 286.000 234.000 284.000 234.000 L 282.000 234.000 282.000 232.000 L 282.000 230.000 204.000 230.000 L 126.000 230.000 126.000 232.000 M314.000 284.000 L 314.000 286.000 312.000 286.000 L 310.000 286.000 310.000 288.000 L 310.000 290.000 308.000 290.000 L 306.000 290.000 306.000 292.000 L 306.000 294.000 304.000 294.000 L 302.000 294.000 302.000 296.000 L 302.000 298.000 300.000 298.000 L 298.000 298.000 298.000 300.000 L 298.000 302.000 296.000 302.000 L 294.000 302.000 294.000 304.000 L 294.000 306.000 292.000 306.000 L 290.000 306.000 290.000 308.000 L 290.000 310.000 288.000 310.000 L 286.000 310.000 286.000 312.000 L 286.000 314.000 284.000 314.000 L 282.000 314.000 282.000 316.000 L 282.000 318.000 280.000 318.000 L 278.000 318.000 278.000 324.000 L 278.000 330.000 276.000 330.000 L 274.000 330.000 274.000 346.000 L 274.000 362.000 272.000 362.000 L 270.000 362.000 270.000 380.000 L 270.000 398.000 268.000 398.000 L 266.000 398.000 266.000 414.000 L 266.000 430.000 264.000 430.000 L 262.000 430.000 262.000 436.000 L 262.000 442.000 264.000 442.000 L 266.000 442.000 266.000 446.000 L 266.000 450.000 268.000 450.000 L 270.000 450.000 270.000 452.000 L 270.000 454.000 272.000 454.000 L 274.000 454.000 274.000 456.000 L 274.000 458.000 276.000 458.000 L 278.000 458.000 278.000 460.000 L 278.000 462.000 280.000 462.000 L 282.000 462.000 282.000 464.000 L 282.000 466.000 284.000 466.000 L 286.000 466.000 286.000 470.000 L 286.000 474.000 288.000 474.000 L 290.000 474.000 290.000 476.000 L 290.000 478.000 292.000 478.000 L 294.000 478.000 294.000 480.000 L 294.000 482.000 298.000 482.000 L 302.000 482.000 302.000 480.000 L 302.000 478.000 304.000 478.000 L 306.000 478.000 306.000 476.000 L 306.000 474.000 308.000 474.000 L 310.000 474.000 310.000 472.000 L 310.000 470.000 312.000 470.000 L 314.000 470.000 314.000 468.000 L 314.000 466.000 316.000 466.000 L 318.000 466.000 318.000 464.000 L 318.000 462.000 320.000 462.000 L 322.000 462.000 322.000 460.000 L 322.000 458.000 324.000 458.000 L 326.000 458.000 326.000 456.000 L 326.000 454.000 330.000 454.000 L 334.000 454.000 334.000 452.000 L 334.000 450.000 336.000 450.000 L 338.000 450.000 338.000 448.000 L 338.000 446.000 340.000 446.000 L 342.000 446.000 342.000 438.000 L 342.000 430.000 344.000 430.000 L 346.000 430.000 346.000 414.000 L 346.000 398.000 348.000 398.000 L 350.000 398.000 350.000 380.000 L 350.000 362.000 352.000 362.000 L 354.000 362.000 354.000 346.000 L 354.000 330.000 356.000 330.000 L 358.000 330.000 358.000 324.000 L 358.000 318.000 356.000 318.000 L 354.000 318.000 354.000 316.000 L 354.000 314.000 352.000 314.000 L 350.000 314.000 350.000 312.000 L 350.000 310.000 348.000 310.000 L 346.000 310.000 346.000 306.000 L 346.000 302.000 344.000 302.000 L 342.000 302.000 342.000 300.000 L 342.000 298.000 340.000 298.000 L 338.000 298.000 338.000 296.000 L 338.000 294.000 336.000 294.000 L 334.000 294.000 334.000 292.000 L 334.000 290.000 332.000 290.000 L 330.000 290.000 330.000 288.000 L 330.000 286.000 328.000 286.000 L 326.000 286.000 326.000 284.000 L 326.000 282.000 320.000 282.000 L 314.000 282.000 314.000 284.000 " stroke="none" fill="#000000" fill-rule="evenodd"></path><path id="path4" d="M94.000 64.000 L 94.000 66.000 92.000 66.000 L 90.000 66.000 90.000 68.000 L 90.000 70.000 88.000 70.000 L 86.000 70.000 86.000 72.000 L 86.000 74.000 84.000 74.000 L 82.000 74.000 82.000 76.000 L 82.000 78.000 80.000 78.000 L 78.000 78.000 78.000 80.000 L 78.000 82.000 76.000 82.000 L 74.000 82.000 74.000 84.000 L 74.000 86.000 72.000 86.000 L 70.000 86.000 70.000 88.000 L 70.000 90.000 68.000 90.000 L 66.000 90.000 66.000 92.000 L 66.000 94.000 64.000 94.000 L 62.000 94.000 62.000 96.000 L 62.000 98.000 60.000 98.000 L 58.000 98.000 58.000 106.000 L 58.000 114.000 56.000 114.000 L 54.000 114.000 54.000 130.000 L 54.000 146.000 52.000 146.000 L 50.000 146.000 50.000 162.000 L 50.000 178.000 48.000 178.000 L 46.000 178.000 46.000 196.000 L 46.000 214.000 44.000 214.000 L 42.000 214.000 42.000 218.000 L 42.000 222.000 44.000 222.000 L 46.000 222.000 46.000 226.000 L 46.000 230.000 48.000 230.000 L 50.000 230.000 50.000 232.000 L 50.000 234.000 52.000 234.000 L 54.000 234.000 54.000 236.000 L 54.000 238.000 56.000 238.000 L 58.000 238.000 58.000 240.000 L 58.000 242.000 60.000 242.000 L 62.000 242.000 62.000 246.000 L 62.000 250.000 64.000 250.000 L 66.000 250.000 66.000 252.000 L 66.000 254.000 68.000 254.000 L 70.000 254.000 70.000 256.000 L 70.000 258.000 72.000 258.000 L 74.000 258.000 74.000 260.000 L 74.000 262.000 78.000 262.000 L 82.000 262.000 82.000 260.000 L 82.000 258.000 84.000 258.000 L 86.000 258.000 86.000 256.000 L 86.000 254.000 88.000 254.000 L 90.000 254.000 90.000 252.000 L 90.000 250.000 92.000 250.000 L 94.000 250.000 94.000 248.000 L 94.000 246.000 96.000 246.000 L 98.000 246.000 98.000 244.000 L 98.000 242.000 100.000 242.000 L 102.000 242.000 102.000 240.000 L 102.000 238.000 104.000 238.000 L 106.000 238.000 106.000 236.000 L 106.000 234.000 108.000 234.000 L 110.000 234.000 110.000 232.000 L 110.000 230.000 114.000 230.000 L 118.000 230.000 118.000 228.000 L 118.000 226.000 120.000 226.000 L 122.000 226.000 122.000 216.000 L 122.000 206.000 124.000 206.000 L 126.000 206.000 126.000 190.000 L 126.000 174.000 128.000 174.000 L 130.000 174.000 130.000 158.000 L 130.000 142.000 132.000 142.000 L 134.000 142.000 134.000 124.000 L 134.000 106.000 136.000 106.000 L 138.000 106.000 138.000 102.000 L 138.000 98.000 136.000 98.000 L 134.000 98.000 134.000 96.000 L 134.000 94.000 132.000 94.000 L 130.000 94.000 130.000 92.000 L 130.000 90.000 128.000 90.000 L 126.000 90.000 126.000 86.000 L 126.000 82.000 124.000 82.000 L 122.000 82.000 122.000 80.000 L 122.000 78.000 120.000 78.000 L 118.000 78.000 118.000 76.000 L 118.000 74.000 116.000 74.000 L 114.000 74.000 114.000 72.000 L 114.000 70.000 112.000 70.000 L 110.000 70.000 110.000 68.000 L 110.000 66.000 108.000 66.000 L 106.000 66.000 106.000 64.000 L 106.000 62.000 100.000 62.000 L 94.000 62.000 94.000 64.000 M338.000 64.000 L 338.000 66.000 336.000 66.000 L 334.000 66.000 334.000 68.000 L 334.000 70.000 332.000 70.000 L 330.000 70.000 330.000 72.000 L 330.000 74.000 328.000 74.000 L 326.000 74.000 326.000 76.000 L 326.000 78.000 324.000 78.000 L 322.000 78.000 322.000 80.000 L 322.000 82.000 320.000 82.000 L 318.000 82.000 318.000 84.000 L 318.000 86.000 316.000 86.000 L 314.000 86.000 314.000 88.000 L 314.000 90.000 312.000 90.000 L 310.000 90.000 310.000 92.000 L 310.000 94.000 308.000 94.000 L 306.000 94.000 306.000 96.000 L 306.000 98.000 304.000 98.000 L 302.000 98.000 302.000 104.000 L 302.000 110.000 300.000 110.000 L 298.000 110.000 298.000 126.000 L 298.000 142.000 296.000 142.000 L 294.000 142.000 294.000 160.000 L 294.000 178.000 292.000 178.000 L 290.000 178.000 290.000 194.000 L 290.000 210.000 288.000 210.000 L 286.000 210.000 286.000 216.000 L 286.000 222.000 288.000 222.000 L 290.000 222.000 290.000 226.000 L 290.000 230.000 292.000 230.000 L 294.000 230.000 294.000 232.000 L 294.000 234.000 296.000 234.000 L 298.000 234.000 298.000 236.000 L 298.000 238.000 300.000 238.000 L 302.000 238.000 302.000 240.000 L 302.000 242.000 304.000 242.000 L 306.000 242.000 306.000 244.000 L 306.000 246.000 308.000 246.000 L 310.000 246.000 310.000 250.000 L 310.000 254.000 312.000 254.000 L 314.000 254.000 314.000 256.000 L 314.000 258.000 316.000 258.000 L 318.000 258.000 318.000 260.000 L 318.000 262.000 322.000 262.000 L 326.000 262.000 326.000 260.000 L 326.000 258.000 328.000 258.000 L 330.000 258.000 330.000 256.000 L 330.000 254.000 332.000 254.000 L 334.000 254.000 334.000 252.000 L 334.000 250.000 336.000 250.000 L 338.000 250.000 338.000 248.000 L 338.000 246.000 340.000 246.000 L 342.000 246.000 342.000 244.000 L 342.000 242.000 344.000 242.000 L 346.000 242.000 346.000 240.000 L 346.000 238.000 348.000 238.000 L 350.000 238.000 350.000 236.000 L 350.000 234.000 354.000 234.000 L 358.000 234.000 358.000 232.000 L 358.000 230.000 360.000 230.000 L 362.000 230.000 362.000 228.000 L 362.000 226.000 364.000 226.000 L 366.000 226.000 366.000 218.000 L 366.000 210.000 368.000 210.000 L 370.000 210.000 370.000 194.000 L 370.000 178.000 372.000 178.000 L 374.000 178.000 374.000 160.000 L 374.000 142.000 376.000 142.000 L 378.000 142.000 378.000 126.000 L 378.000 110.000 380.000 110.000 L 382.000 110.000 382.000 104.000 L 382.000 98.000 380.000 98.000 L 378.000 98.000 378.000 96.000 L 378.000 94.000 376.000 94.000 L 374.000 94.000 374.000 92.000 L 374.000 90.000 372.000 90.000 L 370.000 90.000 370.000 86.000 L 370.000 82.000 368.000 82.000 L 366.000 82.000 366.000 80.000 L 366.000 78.000 364.000 78.000 L 362.000 78.000 362.000 76.000 L 362.000 74.000 360.000 74.000 L 358.000 74.000 358.000 72.000 L 358.000 70.000 356.000 70.000 L 354.000 70.000 354.000 68.000 L 354.000 66.000 352.000 66.000 L 350.000 66.000 350.000 64.000 L 350.000 62.000 344.000 62.000 L 338.000 62.000 338.000 64.000 M126.000 232.000 L 126.000 234.000 124.000 234.000 L 122.000 234.000 122.000 236.000 L 122.000 238.000 120.000 238.000 L 118.000 238.000 118.000 240.000 L 118.000 242.000 116.000 242.000 L 114.000 242.000 114.000 244.000 L 114.000 246.000 112.000 246.000 L 110.000 246.000 110.000 248.000 L 110.000 250.000 108.000 250.000 L 106.000 250.000 106.000 252.000 L 106.000 254.000 104.000 254.000 L 102.000 254.000 102.000 256.000 L 102.000 258.000 100.000 258.000 L 98.000 258.000 98.000 260.000 L 98.000 262.000 96.000 262.000 L 94.000 262.000 94.000 264.000 L 94.000 266.000 92.000 266.000 L 90.000 266.000 90.000 274.000 L 90.000 282.000 92.000 282.000 L 94.000 282.000 94.000 284.000 L 94.000 286.000 96.000 286.000 L 98.000 286.000 98.000 288.000 L 98.000 290.000 100.000 290.000 L 102.000 290.000 102.000 292.000 L 102.000 294.000 104.000 294.000 L 106.000 294.000 106.000 298.000 L 106.000 302.000 108.000 302.000 L 110.000 302.000 110.000 304.000 L 110.000 306.000 112.000 306.000 L 114.000 306.000 114.000 308.000 L 114.000 310.000 116.000 310.000 L 118.000 310.000 118.000 312.000 L 118.000 314.000 196.000 314.000 L 274.000 314.000 274.000 312.000 L 274.000 310.000 276.000 310.000 L 278.000 310.000 278.000 308.000 L 278.000 306.000 280.000 306.000 L 282.000 306.000 282.000 304.000 L 282.000 302.000 284.000 302.000 L 286.000 302.000 286.000 300.000 L 286.000 298.000 288.000 298.000 L 290.000 298.000 290.000 296.000 L 290.000 294.000 292.000 294.000 L 294.000 294.000 294.000 292.000 L 294.000 290.000 296.000 290.000 L 298.000 290.000 298.000 288.000 L 298.000 286.000 300.000 286.000 L 302.000 286.000 302.000 284.000 L 302.000 282.000 304.000 282.000 L 306.000 282.000 306.000 280.000 L 306.000 278.000 308.000 278.000 L 310.000 278.000 310.000 270.000 L 310.000 262.000 308.000 262.000 L 306.000 262.000 306.000 260.000 L 306.000 258.000 304.000 258.000 L 302.000 258.000 302.000 256.000 L 302.000 254.000 300.000 254.000 L 298.000 254.000 298.000 252.000 L 298.000 250.000 296.000 250.000 L 294.000 250.000 294.000 246.000 L 294.000 242.000 292.000 242.000 L 290.000 242.000 290.000 240.000 L 290.000 238.000 288.000 238.000 L 286.000 238.000 286.000 236.000 L 286.000 234.000 284.000 234.000 L 282.000 234.000 282.000 232.000 L 282.000 230.000 204.000 230.000 L 126.000 230.000 126.000 232.000 M314.000 284.000 L 314.000 286.000 312.000 286.000 L 310.000 286.000 310.000 288.000 L 310.000 290.000 308.000 290.000 L 306.000 290.000 306.000 292.000 L 306.000 294.000 304.000 294.000 L 302.000 294.000 302.000 296.000 L 302.000 298.000 300.000 298.000 L 298.000 298.000 298.000 300.000 L 298.000 302.000 296.000 302.000 L 294.000 302.000 294.000 304.000 L 294.000 306.000 292.000 306.000 L 290.000 306.000 290.000 308.000 L 290.000 310.000 288.000 310.000 L 286.000 310.000 286.000 312.000 L 286.000 314.000 284.000 314.000 L 282.000 314.000 282.000 316.000 L 282.000 318.000 280.000 318.000 L 278.000 318.000 278.000 324.000 L 278.000 330.000 276.000 330.000 L 274.000 330.000 274.000 346.000 L 274.000 362.000 272.000 362.000 L 270.000 362.000 270.000 380.000 L 270.000 398.000 268.000 398.000 L 266.000 398.000 266.000 414.000 L 266.000 430.000 264.000 430.000 L 262.000 430.000 262.000 436.000 L 262.000 442.000 264.000 442.000 L 266.000 442.000 266.000 446.000 L 266.000 450.000 268.000 450.000 L 270.000 450.000 270.000 452.000 L 270.000 454.000 272.000 454.000 L 274.000 454.000 274.000 456.000 L 274.000 458.000 276.000 458.000 L 278.000 458.000 278.000 460.000 L 278.000 462.000 280.000 462.000 L 282.000 462.000 282.000 464.000 L 282.000 466.000 284.000 466.000 L 286.000 466.000 286.000 470.000 L 286.000 474.000 288.000 474.000 L 290.000 474.000 290.000 476.000 L 290.000 478.000 292.000 478.000 L 294.000 478.000 294.000 480.000 L 294.000 482.000 298.000 482.000 L 302.000 482.000 302.000 480.000 L 302.000 478.000 304.000 478.000 L 306.000 478.000 306.000 476.000 L 306.000 474.000 308.000 474.000 L 310.000 474.000 310.000 472.000 L 310.000 470.000 312.000 470.000 L 314.000 470.000 314.000 468.000 L 314.000 466.000 316.000 466.000 L 318.000 466.000 318.000 464.000 L 318.000 462.000 320.000 462.000 L 322.000 462.000 322.000 460.000 L 322.000 458.000 324.000 458.000 L 326.000 458.000 326.000 456.000 L 326.000 454.000 330.000 454.000 L 334.000 454.000 334.000 452.000 L 334.000 450.000 336.000 450.000 L 338.000 450.000 338.000 448.000 L 338.000 446.000 340.000 446.000 L 342.000 446.000 342.000 438.000 L 342.000 430.000 344.000 430.000 L 346.000 430.000 346.000 414.000 L 346.000 398.000 348.000 398.000 L 350.000 398.000 350.000 380.000 L 350.000 362.000 352.000 362.000 L 354.000 362.000 354.000 346.000 L 354.000 330.000 356.000 330.000 L 358.000 330.000 358.000 324.000 L 358.000 318.000 356.000 318.000 L 354.000 318.000 354.000 316.000 L 354.000 314.000 352.000 314.000 L 350.000 314.000 350.000 312.000 L 350.000 310.000 348.000 310.000 L 346.000 310.000 346.000 306.000 L 346.000 302.000 344.000 302.000 L 342.000 302.000 342.000 300.000 L 342.000 298.000 340.000 298.000 L 338.000 298.000 338.000 296.000 L 338.000 294.000 336.000 294.000 L 334.000 294.000 334.000 292.000 L 334.000 290.000 332.000 290.000 L 330.000 290.000 330.000 288.000 L 330.000 286.000 328.000 286.000 L 326.000 286.000 326.000 284.000 L 326.000 282.000 320.000 282.000 L 314.000 282.000 314.000 284.000 " stroke="none" fill="#000000" fill-rule="evenodd"></path></g></svg>