<svg id="svg" version="1.1" width="400" height="548" xmlns="http://www.w3.org/2000/svg" xmlns:xlink="http://www.w3.org/1999/xlink" style="display: block;"><g id="svgg"><path id="path0" d="M154.000 12.000 L 154.000 14.000 152.000 14.000 L 150.000 14.000 150.000 16.000 L 150.000 18.000 148.000 18.000 L 146.000 18.000 146.000 20.000 L 146.000 22.000 144.000 22.000 L 142.000 22.000 142.000 24.000 L 142.000 26.000 140.000 26.000 L 138.000 26.000 138.000 28.000 L 138.000 30.000 136.000 30.000 L 134.000 30.000 134.000 32.000 L 134.000 34.000 132.000 34.000 L 130.000 34.000 130.000 36.000 L 130.000 38.000 128.000 38.000 L 126.000 38.000 126.000 40.000 L 126.000 42.000 124.000 42.000 L 122.000 42.000 122.000 44.000 L 122.000 46.000 120.000 46.000 L 118.000 46.000 118.000 54.000 L 118.000 62.000 119.941 62.000 L 121.881 62.000 122.132 65.248 C 122.415 68.919,122.731 69.503,124.530 69.677 C 125.740 69.794,125.810 69.895,126.000 71.800 L 126.200 73.800 128.079 73.921 L 129.958 74.042 130.079 75.921 L 130.200 77.800 132.100 77.922 L 134.000 78.044 134.000 80.022 L 134.000 82.000 135.986 82.000 L 137.971 82.000 138.086 85.900 L 138.200 89.800 140.079 89.921 L 141.958 90.042 142.079 91.921 L 142.200 93.800 222.100 93.901 L 302.000 94.002 302.000 92.001 L 302.000 90.000 304.000 90.000 L 306.000 90.000 306.000 88.000 L 306.000 86.000 308.000 86.000 L 310.000 86.000 310.000 84.000 L 310.000 82.000 312.000 82.000 L 314.000 82.000 314.000 80.000 L 314.000 78.000 316.000 78.000 L 318.000 78.000 318.000 76.000 L 318.000 74.000 320.000 74.000 L 322.000 74.000 322.000 72.000 L 322.000 70.000 324.000 70.000 L 326.000 70.000 326.000 68.000 L 326.000 66.000 328.000 66.000 L 330.000 66.000 330.000 64.000 L 330.000 62.000 332.000 62.000 L 334.000 62.000 334.000 60.000 L 334.000 58.000 336.000 58.000 L 338.000 58.000 338.000 50.000 L 338.000 42.000 336.000 42.000 L 334.000 42.000 334.000 40.000 L 334.000 38.000 332.000 38.000 L 330.000 38.000 330.000 36.000 L 330.000 34.000 328.000 34.000 L 326.000 34.000 326.000 32.000 L 326.000 30.000 324.000 30.000 L 322.000 30.000 322.000 26.000 L 322.000 22.000 320.000 22.000 L 318.000 22.000 318.000 20.000 L 318.000 18.000 316.000 18.000 L 314.000 18.000 314.000 16.000 L 314.000 14.000 312.000 14.000 L 310.000 14.000 310.000 12.000 L 310.000 10.000 232.000 10.000 L 154.000 10.000 154.000 12.000 M94.000 64.000 L 94.000 66.000 92.000 66.000 L 90.000 66.000 90.000 68.000 L 90.000 70.000 88.000 70.000 L 86.000 70.000 86.000 72.000 L 86.000 74.000 84.000 74.000 L 82.000 74.000 82.000 76.000 L 82.000 78.000 80.000 78.000 L 78.000 78.000 78.000 80.000 L 78.000 82.000 76.000 82.000 L 74.000 82.000 74.000 84.000 L 74.000 86.000 72.000 86.000 L 70.000 86.000 70.000 88.000 L 70.000 90.000 68.000 90.000 L 66.000 90.000 66.000 92.000 L 66.000 94.000 64.000 94.000 L 62.000 94.000 62.000 96.000 L 62.000 98.000 60.000 98.000 L 58.000 98.000 58.000 106.000 L 58.000 114.000 56.000 114.000 L 54.000 114.000 54.000 130.000 L 54.000 146.000 52.000 146.000 L 50.000 146.000 50.000 162.000 L 50.000 178.000 48.000 178.000 L 46.000 178.000 46.000 196.000 L 46.000 214.000 44.000 214.000 L 42.000 214.000 42.000 218.000 L 42.000 222.000 44.000 222.000 L 46.000 222.000 46.000 226.000 L 46.000 230.000 48.000 230.000 L 50.000 230.000 50.000 232.000 L 50.000 234.000 52.000 234.000 L 54.000 234.000 54.000 236.000 L 54.000 238.000 56.000 238.000 L 58.000 238.000 58.000 240.000 L 58.000 242.000 60.000 242.000 L 62.000 242.000 62.000 246.000 L 62.000 250.000 64.000 250.000 L 66.000 250.000 66.000 252.000 L 66.000 254.000 68.000 254.000 L 70.000 254.000 70.000 256.000 L 70.000 258.000 72.000 258.000 L 74.000 258.000 74.000 260.000 L 74.000 262.000 78.000 262.000 L 82.000 262.000 82.000 260.000 L 82.000 258.000 84.000 258.000 L 86.000 258.000 86.000 256.000 L 86.000 254.000 88.000 254.000 L 90.000 254.000 90.000 252.000 L 90.000 250.000 92.000 250.000 L 94.000 250.000 94.000 248.000 L 94.000 246.000 96.000 246.000 L 98.000 246.000 98.000 244.000 L 98.000 242.000 100.000 242.000 L 102.000 242.000 102.000 240.000 L 102.000 238.000 104.000 238.000 L 106.000 238.000 106.000 236.000 L 106.000 234.000 108.000 234.000 L 110.000 234.000 110.000 232.000 L 110.000 230.000 114.000 230.000 L 118.000 230.000 118.000 228.000 L 118.000 226.000 120.000 226.000 L 122.000 226.000 122.000 216.000 L 122.000 206.000 124.000 206.000 L 126.000 206.000 126.000 190.000 L 126.000 174.000 128.000 174.000 L 130.000 174.000 130.000 158.000 L 130.000 142.000 132.000 142.000 L 134.000 142.000 134.000 124.000 L 134.000 106.000 136.000 106.000 L 138.000 106.000 138.000 102.000 L 138.000 98.000 136.000 98.000 L 134.000 98.000 134.000 96.000 L 134.000 94.000 132.000 94.000 L 130.000 94.000 130.000 92.000 L 130.000 90.000 128.000 90.000 L 126.000 90.000 126.000 86.000 L 126.000 82.000 124.000 82.000 L 122.000 82.000 122.000 80.000 L 122.000 78.000 120.000 78.000 L 118.000 78.000 118.000 76.000 L 118.000 74.000 116.000 74.000 L 114.000 74.000 114.000 72.000 L 114.000 70.000 112.000 70.000 L 110.000 70.000 110.000 68.000 L 110.000 66.000 108.000 66.000 L 106.000 66.000 106.000 64.000 L 106.000 62.000 100.000 62.000 L 94.000 62.000 94.000 64.000 M126.000 232.000 L 126.000 234.000 124.000 234.000 L 122.000 234.000 122.000 236.000 L 122.000 238.000 120.000 238.000 L 118.000 238.000 118.000 240.000 L 118.000 242.000 116.000 242.000 L 114.000 242.000 114.000 244.000 L 114.000 246.000 112.000 246.000 L 110.000 246.000 110.000 248.000 L 110.000 250.000 108.000 250.000 L 106.000 250.000 106.000 252.000 L 106.000 254.000 104.000 254.000 L 102.000 254.000 102.000 256.000 L 102.000 258.000 100.000 258.000 L 98.000 258.000 98.000 260.000 L 98.000 262.000 96.000 262.000 L 94.000 262.000 94.000 264.000 L 94.000 266.000 92.000 266.000 L 90.000 266.000 90.000 274.000 L 90.000 282.000 92.000 282.000 L 94.000 282.000 94.000 284.000 L 94.000 286.000 96.000 286.000 L 98.000 286.000 98.000 288.000 L 98.000 290.000 100.000 290.000 L 102.000 290.000 102.000 292.000 L 102.000 294.000 104.000 294.000 L 106.000 294.000 106.000 298.000 L 106.000 302.000 108.000 302.000 L 110.000 302.000 110.000 304.000 L 110.000 306.000 112.000 306.000 L 114.000 306.000 114.000 308.000 L 114.000 310.000 116.000 310.000 L 118.000 310.000 118.000 312.000 L 118.000 314.000 196.000 314.000 L 274.000 314.000 274.000 312.000 L 274.000 310.000 276.000 310.000 L 278.000 310.000 278.000 308.000 L 278.000 306.000 280.000 306.000 L 282.000 306.000 282.000 304.000 L 282.000 302.000 284.000 302.000 L 286.000 302.000 286.000 300.000 L 286.000 298.000 288.000 298.000 L 290.000 298.000 290.000 296.000 L 290.000 294.000 292.000 294.000 L 294.000 294.000 294.000 292.000 L 294.000 290.000 296.000 290.000 L 298.000 290.000 298.000 288.000 L 298.000 286.000 300.000 286.000 L 302.000 286.000 302.000 284.000 L 302.000 282.000 304.000 282.000 L 306.000 282.000 306.000 280.000 L 306.000 278.000 308.000 278.000 L 310.000 278.000 310.000 270.000 L 310.000 262.000 308.000 262.000 L 306.000 262.000 306.000 260.000 L 306.000 258.000 304.000 258.000 L 302.000 258.000 302.000 256.000 L 302.000 254.000 300.000 254.000 L 298.000 254.000 298.000 252.000 L 298.000 250.000 296.000 250.000 L 294.000 250.000 294.000 246.000 L 294.000 242.000 292.000 242.000 L 290.000 242.000 290.000 240.000 L 290.000 238.000 288.000 238.000 L 286.000 238.000 286.000 236.000 L 286.000 234.000 284.000 234.000 L 282.000 234.000 282.000 232.000 L 282.000 230.000 204.000 230.000 L 126.000 230.000 126.000 232.000 M70.000 284.000 L 70.000 286.000 68.000 286.000 L 66.000 286.000 66.000 288.000 L 66.000 290.000 64.000 290.000 L 62.000 290.000 62.000 292.000 L 62.000 294.000 60.000 294.000 L 58.000 294.000 58.000 296.000 L 58.000 298.000 56.000 298.000 L 54.000 298.000 54.000 300.000 L 54.000 302.000 52.000 302.000 L 50.000 302.000 50.000 304.000 L 50.000 306.000 46.000 306.000 L 42.000 306.000 42.000 308.000 L 42.000 310.000 40.000 310.000 L 38.000 310.000 38.000 312.000 L 38.000 314.000 36.000 314.000 L 34.000 314.000 34.000 316.000 L 34.000 318.000 32.000 318.000 L 30.000 318.000 30.000 332.000 L 30.000 346.000 28.000 346.000 L 26.000 346.000 26.000 362.000 L 26.000 378.000 24.000 378.000 L 22.000 378.000 22.000 396.000 L 22.000 414.000 20.000 414.000 L 18.000 414.000 18.000 432.000 L 18.000 450.000 20.000 450.000 L 22.000 450.000 22.000 452.000 L 22.000 454.000 24.000 454.000 L 26.000 454.000 26.000 456.000 L 26.000 458.000 28.000 458.000 L 30.000 458.000 30.000 460.000 L 30.000 462.000 32.000 462.000 L 34.000 462.000 34.000 464.000 L 34.000 466.000 36.000 466.000 L 38.000 466.000 38.000 470.000 L 38.000 474.000 40.000 474.000 L 42.000 474.000 42.000 476.000 L 42.000 478.000 44.000 478.000 L 46.000 478.000 46.000 480.000 L 46.000 482.000 52.000 482.000 L 58.000 482.000 58.000 480.000 L 58.000 478.000 60.000 478.000 L 62.000 478.000 62.000 476.000 L 62.000 474.000 64.000 474.000 L 66.000 474.000 66.000 472.000 L 66.000 470.000 68.000 470.000 L 70.000 470.000 70.000 468.000 L 70.000 466.000 72.000 466.000 L 74.000 466.000 74.000 464.000 L 74.000 462.000 76.000 462.000 L 78.000 462.000 78.000 460.000 L 78.000 458.000 80.000 458.000 L 82.000 458.000 82.000 456.000 L 82.000 454.000 84.000 454.000 L 86.000 454.000 86.000 452.000 L 86.000 450.000 88.000 450.000 L 90.000 450.000 90.000 448.000 L 90.000 446.000 92.000 446.000 L 94.000 446.000 94.000 442.000 L 94.000 438.000 96.000 438.000 L 98.000 438.000 98.000 422.000 L 98.000 406.000 100.000 406.000 L 102.000 406.000 102.000 390.000 L 102.000 374.000 104.000 374.000 L 106.000 374.000 106.000 356.000 L 106.000 338.000 108.000 338.000 L 110.000 338.000 110.000 328.000 L 110.000 318.000 108.000 318.000 L 106.000 318.000 106.000 316.000 L 106.000 314.000 104.000 314.000 L 102.000 314.000 102.000 310.000 L 102.000 306.000 100.000 306.000 L 98.000 306.000 98.000 304.000 L 98.000 302.000 96.000 302.000 L 94.000 302.000 94.000 300.000 L 94.000 298.000 92.000 298.000 L 90.000 298.000 90.000 296.000 L 90.000 294.000 88.000 294.000 L 86.000 294.000 86.000 292.000 L 86.000 290.000 84.000 290.000 L 82.000 290.000 82.000 288.000 L 82.000 286.000 80.000 286.000 L 78.000 286.000 78.000 284.000 L 78.000 282.000 74.000 282.000 L 70.000 282.000 70.000 284.000 M314.000 284.000 L 314.000 286.000 312.000 286.000 L 310.000 286.000 310.000 288.000 L 310.000 290.000 308.000 290.000 L 306.000 290.000 306.000 292.000 L 306.000 294.000 304.000 294.000 L 302.000 294.000 302.000 296.000 L 302.000 298.000 300.000 298.000 L 298.000 298.000 298.000 300.000 L 298.000 302.000 296.000 302.000 L 294.000 302.000 294.000 304.000 L 294.000 306.000 292.000 306.000 L 290.000 306.000 290.000 308.000 L 290.000 310.000 288.000 310.000 L 286.000 310.000 286.000 312.000 L 286.000 314.000 284.000 314.000 L 282.000 314.000 282.000 316.000 L 282.000 318.000 280.000 318.000 L 278.000 318.000 278.000 324.000 L 278.000 330.000 276.000 330.000 L 274.000 330.000 274.000 346.000 L 274.000 362.000 272.000 362.000 L 270.000 362.000 270.000 380.000 L 270.000 398.000 268.000 398.000 L 266.000 398.000 266.000 414.000 L 266.000 430.000 264.000 430.000 L 262.000 430.000 262.000 436.774 C 262.000 444.790,262.181 445.492,264.333 445.836 L 265.892 446.085 266.109 449.257 C 266.373 453.115,266.644 453.476,269.528 453.820 C 272.099 454.127,274.000 455.510,274.000 457.075 C 274.000 457.918,274.176 458.000,276.000 458.000 L 278.000 458.000 278.000 460.000 L 278.000 462.000 280.000 462.000 L 282.000 462.000 282.000 464.000 L 282.000 466.000 283.900 466.064 C 285.307 466.111,285.470 466.169,284.530 466.287 C 282.745 466.511,282.320 467.225,282.320 470.000 C 282.320 472.784,282.753 473.505,284.530 473.677 C 285.698 473.790,285.810 473.928,285.930 475.395 C 286.101 477.494,286.586 478.000,288.427 478.000 L 289.956 478.000 290.078 479.900 L 290.200 481.800 296.100 481.911 L 302.000 482.021 302.000 480.011 L 302.000 478.000 304.000 478.000 L 306.000 478.000 306.000 476.000 L 306.000 474.000 308.000 474.000 L 310.000 474.000 310.000 472.000 L 310.000 470.000 312.000 470.000 L 314.000 470.000 314.000 468.000 L 314.000 466.000 316.000 466.000 L 318.000 466.000 318.000 464.000 L 318.000 462.000 320.000 462.000 L 322.000 462.000 322.000 460.000 L 322.000 458.000 324.000 458.000 L 326.000 458.000 326.000 456.000 L 326.000 454.000 330.000 454.000 L 334.000 454.000 334.000 452.000 L 334.000 450.000 336.000 450.000 L 338.000 450.000 338.000 448.000 L 338.000 446.000 340.000 446.000 L 342.000 446.000 342.000 438.000 L 342.000 430.000 344.000 430.000 L 346.000 430.000 346.000 414.000 L 346.000 398.000 348.000 398.000 L 350.000 398.000 350.000 380.000 L 350.000 362.000 352.000 362.000 L 354.000 362.000 354.000 346.000 L 354.000 330.000 356.000 330.000 L 358.000 330.000 358.000 324.000 L 358.000 318.000 356.000 318.000 L 354.000 318.000 354.000 316.000 L 354.000 314.000 352.000 314.000 L 350.000 314.000 350.000 312.000 L 350.000 310.000 348.000 310.000 L 346.000 310.000 346.000 306.000 L 346.000 302.000 344.000 302.000 L 342.000 302.000 342.000 300.000 L 342.000 298.000 340.000 298.000 L 338.000 298.000 338.000 296.000 L 338.000 294.000 336.000 294.000 L 334.000 294.000 334.000 292.000 L 334.000 290.000 332.000 290.000 L 330.000 290.000 330.000 288.000 L 330.000 286.000 328.000 286.000 L 326.000 286.000 326.000 284.000 L 326.000 282.000 320.000 282.000 L 314.000 282.000 314.000 284.000 M98.000 452.000 L 98.000 454.000 96.000 454.000 L 94.000 454.000 94.000 456.000 L 94.000 458.000 92.000 458.000 L 90.000 458.000 90.000 460.000 L 90.000 462.000 88.000 462.000 L 86.000 462.000 86.000 464.000 L 86.000 466.000 84.000 466.000 L 82.000 466.000 82.000 468.000 L 82.000 470.000 80.000 470.000 L 78.000 470.000 78.000 472.000 L 78.000 474.000 76.000 474.000 L 74.000 474.000 74.000 476.000 L 74.000 478.000 72.000 478.000 L 70.000 478.000 70.000 480.000 L 70.000 482.000 68.000 482.000 L 66.000 482.000 66.000 484.000 L 66.000 486.000 64.000 486.000 L 62.000 486.000 62.000 494.000 L 62.000 502.000 64.000 502.000 L 66.000 502.000 66.000 504.000 L 66.000 506.000 68.000 506.000 L 70.000 506.000 70.000 508.000 L 70.000 510.000 72.000 510.000 L 74.000 510.000 74.000 512.000 L 74.000 514.000 76.000 514.000 L 78.000 514.000 78.000 518.000 L 78.000 522.000 80.000 522.000 L 82.000 522.000 82.000 524.000 L 82.000 526.000 84.000 526.000 L 86.000 526.000 86.000 528.000 L 86.000 530.000 88.000 530.000 L 90.000 530.000 90.000 532.000 L 90.000 534.000 168.000 534.000 L 246.000 534.000 246.000 532.000 L 246.000 530.000 248.000 530.000 L 250.000 530.000 250.000 528.000 L 250.000 526.000 252.000 526.000 L 254.000 526.000 254.000 524.000 L 254.000 522.000 256.000 522.000 L 258.000 522.000 258.000 520.000 L 258.000 518.000 260.000 518.000 L 262.000 518.000 262.000 516.000 L 262.000 514.000 264.000 514.000 L 266.000 514.000 266.000 512.000 L 266.000 510.000 268.000 510.000 L 270.000 510.000 270.000 508.000 L 270.000 506.000 272.000 506.000 L 274.000 506.000 274.000 504.000 L 274.000 502.000 276.000 502.000 L 278.000 502.000 278.000 500.000 L 278.000 498.000 280.000 498.000 L 282.000 498.000 282.000 490.000 L 282.000 482.000 280.000 482.000 L 278.000 482.000 278.000 480.000 L 278.000 478.000 276.000 478.000 L 274.000 478.000 274.000 476.000 L 274.000 474.000 272.000 474.000 L 270.000 474.000 270.000 472.000 L 270.000 470.000 268.000 470.000 L 266.000 470.000 266.000 466.000 L 266.000 462.000 264.000 462.000 L 262.000 462.000 262.000 460.000 L 262.000 458.000 260.000 458.000 L 258.000 458.000 258.000 456.000 L 258.000 454.000 256.000 454.000 L 254.000 454.000 254.000 452.000 L 254.000 450.000 176.000 450.000 L 98.000 450.000 98.000 452.000 " stroke="none" fill="#000000" fill-rule="evenodd"></path><path id="path1" d="M154.000 12.000 L 154.000 14.000 152.000 14.000 L 150.000 14.000 150.000 16.000 L 150.000 18.000 148.000 18.000 L 146.000 18.000 146.000 20.000 L 146.000 22.000 144.000 22.000 L 142.000 22.000 142.000 24.000 L 142.000 26.000 140.000 26.000 L 138.000 26.000 138.000 28.000 L 138.000 30.000 136.000 30.000 L 134.000 30.000 134.000 32.000 L 134.000 34.000 132.000 34.000 L 130.000 34.000 130.000 36.000 L 130.000 38.000 128.000 38.000 L 126.000 38.000 126.000 40.000 L 126.000 42.000 124.000 42.000 L 122.000 42.000 122.000 44.000 L 122.000 46.000 120.000 46.000 L 118.000 46.000 118.000 54.000 L 118.000 62.000 119.941 62.000 L 121.881 62.000 122.132 65.248 C 122.415 68.919,122.731 69.503,124.530 69.677 C 125.740 69.794,125.810 69.895,126.000 71.800 L 126.200 73.800 128.079 73.921 L 129.958 74.042 130.079 75.921 L 130.200 77.800 132.100 77.922 L 134.000 78.044 134.000 80.022 L 134.000 82.000 135.986 82.000 L 137.971 82.000 138.086 85.900 L 138.200 89.800 140.079 89.921 L 141.958 90.042 142.079 91.921 L 142.200 93.800 222.100 93.901 L 302.000 94.002 302.000 92.001 L 302.000 90.000 304.000 90.000 L 306.000 90.000 306.000 88.000 L 306.000 86.000 308.000 86.000 L 310.000 86.000 310.000 84.000 L 310.000 82.000 312.000 82.000 L 314.000 82.000 314.000 80.000 L 314.000 78.000 316.000 78.000 L 318.000 78.000 318.000 76.000 L 318.000 74.000 320.000 74.000 L 322.000 74.000 322.000 72.000 L 322.000 70.000 324.000 70.000 L 326.000 70.000 326.000 68.000 L 326.000 66.000 328.000 66.000 L 330.000 66.000 330.000 64.000 L 330.000 62.000 332.000 62.000 L 334.000 62.000 334.000 60.000 L 334.000 58.000 336.000 58.000 L 338.000 58.000 338.000 50.000 L 338.000 42.000 336.000 42.000 L 334.000 42.000 334.000 40.000 L 334.000 38.000 332.000 38.000 L 330.000 38.000 330.000 36.000 L 330.000 34.000 328.000 34.000 L 326.000 34.000 326.000 32.000 L 326.000 30.000 324.000 30.000 L 322.000 30.000 322.000 26.000 L 322.000 22.000 320.000 22.000 L 318.000 22.000 318.000 20.000 L 318.000 18.000 316.000 18.000 L 314.000 18.000 314.000 16.000 L 314.000 14.000 312.000 14.000 L 310.000 14.000 310.000 12.000 L 310.000 10.000 232.000 10.000 L 154.000 10.000 154.000 12.000 M94.000 64.000 L 94.000 66.000 92.000 66.000 L 90.000 66.000 90.000 68.000 L 90.000 70.000 88.000 70.000 L 86.000 70.000 86.000 72.000 L 86.000 74.000 84.000 74.000 L 82.000 74.000 82.000 76.000 L 82.000 78.000 80.000 78.000 L 78.000 78.000 78.000 80.000 L 78.000 82.000 76.000 82.000 L 74.000 82.000 74.000 84.000 L 74.000 86.000 72.000 86.000 L 70.000 86.000 70.000 88.000 L 70.000 90.000 68.000 90.000 L 66.000 90.000 66.000 92.000 L 66.000 94.000 64.000 94.000 L 62.000 94.000 62.000 96.000 L 62.000 98.000 60.000 98.000 L 58.000 98.000 58.000 106.000 L 58.000 114.000 56.000 114.000 L 54.000 114.000 54.000 130.000 L 54.000 146.000 52.000 146.000 L 50.000 146.000 50.000 162.000 L 50.000 178.000 48.000 178.000 L 46.000 178.000 46.000 196.000 L 46.000 214.000 44.000 214.000 L 42.000 214.000 42.000 218.000 L 42.000 222.000 44.000 222.000 L 46.000 222.000 46.000 226.000 L 46.000 230.000 48.000 230.000 L 50.000 230.000 50.000 232.000 L 50.000 234.000 52.000 234.000 L 54.000 234.000 54.000 236.000 L 54.000 238.000 56.000 238.000 L 58.000 238.000 58.000 240.000 L 58.000 242.000 60.000 242.000 L 62.000 242.000 62.000 246.000 L 62.000 250.000 64.000 250.000 L 66.000 250.000 66.000 252.000 L 66.000 254.000 68.000 254.000 L 70.000 254.000 70.000 256.000 L 70.000 258.000 72.000 258.000 L 74.000 258.000 74.000 260.000 L 74.000 262.000 78.000 262.000 L 82.000 262.000 82.000 260.000 L 82.000 258.000 84.000 258.000 L 86.000 258.000 86.000 256.000 L 86.000 254.000 88.000 254.000 L 90.000 254.000 90.000 252.000 L 90.000 250.000 92.000 250.000 L 94.000 250.000 94.000 248.000 L 94.000 246.000 96.000 246.000 L 98.000 246.000 98.000 244.000 L 98.000 242.000 100.000 242.000 L 102.000 242.000 102.000 240.000 L 102.000 238.000 104.000 238.000 L 106.000 238.000 106.000 236.000 L 106.000 234.000 108.000 234.000 L 110.000 234.000 110.000 232.000 L 110.000 230.000 114.000 230.000 L 118.000 230.000 118.000 228.000 L 118.000 226.000 120.000 226.000 L 122.000 226.000 122.000 216.000 L 122.000 206.000 124.000 206.000 L 126.000 206.000 126.000 190.000 L 126.000 174.000 128.000 174.000 L 130.000 174.000 130.000 158.000 L 130.000 142.000 132.000 142.000 L 134.000 142.000 134.000 124.000 L 134.000 106.000 136.000 106.000 L 138.000 106.000 138.000 102.000 L 138.000 98.000 136.000 98.000 L 134.000 98.000 134.000 96.000 L 134.000 94.000 132.000 94.000 L 130.000 94.000 130.000 92.000 L 130.000 90.000 128.000 90.000 L 126.000 90.000 126.000 86.000 L 126.000 82.000 124.000 82.000 L 122.000 82.000 122.000 80.000 L 122.000 78.000 120.000 78.000 L 118.000 78.000 118.000 76.000 L 118.000 74.000 116.000 74.000 L 114.000 74.000 114.000 72.000 L 114.000 70.000 112.000 70.000 L 110.000 70.000 110.000 68.000 L 110.000 66.000 108.000 66.000 L 106.000 66.000 106.000 64.000 L 106.000 62.000 100.000 62.000 L 94.000 62.000 94.000 64.000 M126.000 232.000 L 126.000 234.000 124.000 234.000 L 122.000 234.000 122.000 236.000 L 122.000 238.000 120.000 238.000 L 118.000 238.000 118.000 240.000 L 118.000 242.000 116.000 242.000 L 114.000 242.000 114.000 244.000 L 114.000 246.000 112.000 246.000 L 110.000 246.000 110.000 248.000 L 110.000 250.000 108.000 250.000 L 106.000 250.000 106.000 252.000 L 106.000 254.000 104.000 254.000 L 102.000 254.000 102.000 256.000 L 102.000 258.000 100.000 258.000 L 98.000 258.000 98.000 260.000 L 98.000 262.000 96.000 262.000 L 94.000 262.000 94.000 264.000 L 94.000 266.000 92.000 266.000 L 90.000 266.000 90.000 274.000 L 90.000 282.000 92.000 282.000 L 94.000 282.000 94.000 284.000 L 94.000 286.000 96.000 286.000 L 98.000 286.000 98.000 288.000 L 98.000 290.000 100.000 290.000 L 102.000 290.000 102.000 292.000 L 102.000 294.000 104.000 294.000 L 106.000 294.000 106.000 298.000 L 106.000 302.000 108.000 302.000 L 110.000 302.000 110.000 304.000 L 110.000 306.000 112.000 306.000 L 114.000 306.000 114.000 308.000 L 114.000 310.000 116.000 310.000 L 118.000 310.000 118.000 312.000 L 118.000 314.000 196.000 314.000 L 274.000 314.000 274.000 312.000 L 274.000 310.000 276.000 310.000 L 278.000 310.000 278.000 308.000 L 278.000 306.000 280.000 306.000 L 282.000 306.000 282.000 304.000 L 282.000 302.000 284.000 302.000 L 286.000 302.000 286.000 300.000 L 286.000 298.000 288.000 298.000 L 290.000 298.000 290.000 296.000 L 290.000 294.000 292.000 294.000 L 294.000 294.000 294.000 292.000 L 294.000 290.000 296.000 290.000 L 298.000 290.000 298.000 288.000 L 298.000 286.000 300.000 286.000 L 302.000 286.000 302.000 284.000 L 302.000 282.000 304.000 282.000 L 306.000 282.000 306.000 280.000 L 306.000 278.000 308.000 278.000 L 310.000 278.000 310.000 270.000 L 310.000 262.000 308.000 262.000 L 306.000 262.000 306.000 260.000 L 306.000 258.000 304.000 258.000 L 302.000 258.000 302.000 256.000 L 302.000 254.000 300.000 254.000 L 298.000 254.000 298.000 252.000 L 298.000 250.000 296.000 250.000 L 294.000 250.000 294.000 246.000 L 294.000 242.000 292.000 242.000 L 290.000 242.000 290.000 240.000 L 290.000 238.000 288.000 238.000 L 286.000 238.000 286.000 236.000 L 286.000 234.000 284.000 234.000 L 282.000 234.000 282.000 232.000 L 282.000 230.000 204.000 230.000 L 126.000 230.000 126.000 232.000 M70.000 284.000 L 70.000 286.000 68.000 286.000 L 66.000 286.000 66.000 288.000 L 66.000 290.000 64.000 290.000 L 62.000 290.000 62.000 292.000 L 62.000 294.000 60.000 294.000 L 58.000 294.000 58.000 296.000 L 58.000 298.000 56.000 298.000 L 54.000 298.000 54.000 300.000 L 54.000 302.000 52.000 302.000 L 50.000 302.000 50.000 304.000 L 50.000 306.000 46.000 306.000 L 42.000 306.000 42.000 308.000 L 42.000 310.000 40.000 310.000 L 38.000 310.000 38.000 312.000 L 38.000 314.000 36.000 314.000 L 34.000 314.000 34.000 316.000 L 34.000 318.000 32.000 318.000 L 30.000 318.000 30.000 332.000 L 30.000 346.000 28.000 346.000 L 26.000 346.000 26.000 362.000 L 26.000 378.000 24.000 378.000 L 22.000 378.000 22.000 396.000 L 22.000 414.000 20.000 414.000 L 18.000 414.000 18.000 432.000 L 18.000 450.000 20.000 450.000 L 22.000 450.000 22.000 452.000 L 22.000 454.000 24.000 454.000 L 26.000 454.000 26.000 456.000 L 26.000 458.000 28.000 458.000 L 30.000 458.000 30.000 460.000 L 30.000 462.000 32.000 462.000 L 34.000 462.000 34.000 464.000 L 34.000 466.000 36.000 466.000 L 38.000 466.000 38.000 470.000 L 38.000 474.000 40.000 474.000 L 42.000 474.000 42.000 476.000 L 42.000 478.000 44.000 478.000 L 46.000 478.000 46.000 480.000 L 46.000 482.000 52.000 482.000 L 58.000 482.000 58.000 480.000 L 58.000 478.000 60.000 478.000 L 62.000 478.000 62.000 476.000 L 62.000 474.000 64.000 474.000 L 66.000 474.000 66.000 472.000 L 66.000 470.000 68.000 470.000 L 70.000 470.000 70.000 468.000 L 70.000 466.000 72.000 466.000 L 74.000 466.000 74.000 464.000 L 74.000 462.000 76.000 462.000 L 78.000 462.000 78.000 460.000 L 78.000 458.000 80.000 458.000 L 82.000 458.000 82.000 456.000 L 82.000 454.000 84.000 454.000 L 86.000 454.000 86.000 452.000 L 86.000 450.000 88.000 450.000 L 90.000 450.000 90.000 448.000 L 90.000 446.000 92.000 446.000 L 94.000 446.000 94.000 442.000 L 94.000 438.000 96.000 438.000 L 98.000 438.000 98.000 422.000 L 98.000 406.000 100.000 406.000 L 102.000 406.000 102.000 390.000 L 102.000 374.000 104.000 374.000 L 106.000 374.000 106.000 356.000 L 106.000 338.000 108.000 338.000 L 110.000 338.000 110.000 328.000 L 110.000 318.000 108.000 318.000 L 106.000 318.000 106.000 316.000 L 106.000 314.000 104.000 314.000 L 102.000 314.000 102.000 310.000 L 102.000 306.000 100.000 306.000 L 98.000 306.000 98.000 304.000 L 98.000 302.000 96.000 302.000 L 94.000 302.000 94.000 300.000 L 94.000 298.000 92.000 298.000 L 90.000 298.000 90.000 296.000 L 90.000 294.000 88.000 294.000 L 86.000 294.000 86.000 292.000 L 86.000 290.000 84.000 290.000 L 82.000 290.000 82.000 288.000 L 82.000 286.000 80.000 286.000 L 78.000 286.000 78.000 284.000 L 78.000 282.000 74.000 282.000 L 70.000 282.000 70.000 284.000 M314.000 284.000 L 314.000 286.000 312.000 286.000 L 310.000 286.000 310.000 288.000 L 310.000 290.000 308.000 290.000 L 306.000 290.000 306.000 292.000 L 306.000 294.000 304.000 294.000 L 302.000 294.000 302.000 296.000 L 302.000 298.000 300.000 298.000 L 298.000 298.000 298.000 300.000 L 298.000 302.000 296.000 302.000 L 294.000 302.000 294.000 304.000 L 294.000 306.000 292.000 306.000 L 290.000 306.000 290.000 308.000 L 290.000 310.000 288.000 310.000 L 286.000 310.000 286.000 312.000 L 286.000 314.000 284.000 314.000 L 282.000 314.000 282.000 316.000 L 282.000 318.000 280.000 318.000 L 278.000 318.000 278.000 324.000 L 278.000 330.000 276.000 330.000 L 274.000 330.000 274.000 346.000 L 274.000 362.000 272.000 362.000 L 270.000 362.000 270.000 380.000 L 270.000 398.000 268.000 398.000 L 266.000 398.000 266.000 414.000 L 266.000 430.000 264.000 430.000 L 262.000 430.000 262.000 436.774 C 262.000 444.790,262.181 445.492,264.333 445.836 L 265.892 446.085 266.109 449.257 C 266.373 453.115,266.644 453.476,269.528 453.820 C 272.099 454.127,274.000 455.510,274.000 457.075 C 274.000 457.918,274.176 458.000,276.000 458.000 L 278.000 458.000 278.000 460.000 L 278.000 462.000 280.000 462.000 L 282.000 462.000 282.000 464.000 L 282.000 466.000 283.900 466.064 C 285.307 466.111,285.470 466.169,284.530 466.287 C 282.745 466.511,282.320 467.225,282.320 470.000 C 282.320 472.784,282.753 473.505,284.530 473.677 C 285.698 473.790,285.810 473.928,285.930 475.395 C 286.101 477.494,286.586 478.000,288.427 478.000 L 289.956 478.000 290.078 479.900 L 290.200 481.800 296.100 481.911 L 302.000 482.021 302.000 480.011 L 302.000 478.000 304.000 478.000 L 306.000 478.000 306.000 476.000 L 306.000 474.000 308.000 474.000 L 310.000 474.000 310.000 472.000 L 310.000 470.000 312.000 470.000 L 314.000 470.000 314.000 468.000 L 314.000 466.000 316.000 466.000 L 318.000 466.000 318.000 464.000 L 318.000 462.000 320.000 462.000 L 322.000 462.000 322.000 460.000 L 322.000 458.000 324.000 458.000 L 326.000 458.000 326.000 456.000 L 326.000 454.000 330.000 454.000 L 334.000 454.000 334.000 452.000 L 334.000 450.000 336.000 450.000 L 338.000 450.000 338.000 448.000 L 338.000 446.000 340.000 446.000 L 342.000 446.000 342.000 438.000 L 342.000 430.000 344.000 430.000 L 346.000 430.000 346.000 414.000 L 346.000 398.000 348.000 398.000 L 350.000 398.000 350.000 380.000 L 350.000 362.000 352.000 362.000 L 354.000 362.000 354.000 346.000 L 354.000 330.000 356.000 330.000 L 358.000 330.000 358.000 324.000 L 358.000 318.000 356.000 318.000 L 354.000 318.000 354.000 316.000 L 354.000 314.000 352.000 314.000 L 350.000 314.000 350.000 312.000 L 350.000 310.000 348.000 310.000 L 346.000 310.000 346.000 306.000 L 346.000 302.000 344.000 302.000 L 342.000 302.000 342.000 300.000 L 342.000 298.000 340.000 298.000 L 338.000 298.000 338.000 296.000 L 338.000 294.000 336.000 294.000 L 334.000 294.000 334.000 292.000 L 334.000 290.000 332.000 290.000 L 330.000 290.000 330.000 288.000 L 330.000 286.000 328.000 286.000 L 326.000 286.000 326.000 284.000 L 326.000 282.000 320.000 282.000 L 314.000 282.000 314.000 284.000 M98.000 452.000 L 98.000 454.000 96.000 454.000 L 94.000 454.000 94.000 456.000 L 94.000 458.000 92.000 458.000 L 90.000 458.000 90.000 460.000 L 90.000 462.000 88.000 462.000 L 86.000 462.000 86.000 464.000 L 86.000 466.000 84.000 466.000 L 82.000 466.000 82.000 468.000 L 82.000 470.000 80.000 470.000 L 78.000 470.000 78.000 472.000 L 78.000 474.000 76.000 474.000 L 74.000 474.000 74.000 476.000 L 74.000 478.000 72.000 478.000 L 70.000 478.000 70.000 480.000 L 70.000 482.000 68.000 482.000 L 66.000 482.000 66.000 484.000 L 66.000 486.000 64.000 486.000 L 62.000 486.000 62.000 494.000 L 62.000 502.000 64.000 502.000 L 66.000 502.000 66.000 504.000 L 66.000 506.000 68.000 506.000 L 70.000 506.000 70.000 508.000 L 70.000 510.000 72.000 510.000 L 74.000 510.000 74.000 512.000 L 74.000 514.000 76.000 514.000 L 78.000 514.000 78.000 518.000 L 78.000 522.000 80.000 522.000 L 82.000 522.000 82.000 524.000 L 82.000 526.000 84.000 526.000 L 86.000 526.000 86.000 528.000 L 86.000 530.000 88.000 530.000 L 90.000 530.000 90.000 532.000 L 90.000 534.000 168.000 534.000 L 246.000 534.000 246.000 532.000 L 246.000 530.000 248.000 530.000 L 250.000 530.000 250.000 528.000 L 250.000 526.000 252.000 526.000 L 254.000 526.000 254.000 524.000 L 254.000 522.000 256.000 522.000 L 258.000 522.000 258.000 520.000 L 258.000 518.000 260.000 518.000 L 262.000 518.000 262.000 516.000 L 262.000 514.000 264.000 514.000 L 266.000 514.000 266.000 512.000 L 266.000 510.000 268.000 510.000 L 270.000 510.000 270.000 508.000 L 270.000 506.000 272.000 506.000 L 274.000 506.000 274.000 504.000 L 274.000 502.000 276.000 502.000 L 278.000 502.000 278.000 500.000 L 278.000 498.000 280.000 498.000 L 282.000 498.000 282.000 490.000 L 282.000 482.000 280.000 482.000 L 278.000 482.000 278.000 480.000 L 278.000 478.000 276.000 478.000 L 274.000 478.000 274.000 476.000 L 274.000 474.000 272.000 474.000 L 270.000 474.000 270.000 472.000 L 270.000 470.000 268.000 470.000 L 266.000 470.000 266.000 466.000 L 266.000 462.000 264.000 462.000 L 262.000 462.000 262.000 460.000 L 262.000 458.000 260.000 458.000 L 258.000 458.000 258.000 456.000 L 258.000 454.000 256.000 454.000 L 254.000 454.000 254.000 452.000 L 254.000 450.000 176.000 450.000 L 98.000 450.000 98.000 452.000 " stroke="none" fill="#000000" fill-rule="evenodd"></path><path id="path2" d="M154.000 12.000 L 154.000 14.000 152.000 14.000 L 150.000 14.000 150.000 16.000 L 150.000 18.000 148.000 18.000 L 146.000 18.000 146.000 20.000 L 146.000 22.000 144.000 22.000 L 142.000 22.000 142.000 24.000 L 142.000 26.000 140.000 26.000 L 138.000 26.000 138.000 28.000 L 138.000 30.000 136.000 30.000 L 134.000 30.000 134.000 32.000 L 134.000 34.000 132.000 34.000 L 130.000 34.000 130.000 36.000 L 130.000 38.000 128.000 38.000 L 126.000 38.000 126.000 40.000 L 126.000 42.000 124.000 42.000 L 122.000 42.000 122.000 44.000 L 122.000 46.000 120.000 46.000 L 118.000 46.000 118.000 54.000 L 118.000 62.000 119.941 62.000 L 121.881 62.000 122.132 65.248 C 122.415 68.919,122.731 69.503,124.530 69.677 C 125.740 69.794,125.810 69.895,126.000 71.800 L 126.200 73.800 128.079 73.921 L 129.958 74.042 130.079 75.921 L 130.200 77.800 132.100 77.922 L 134.000 78.044 134.000 80.022 L 134.000 82.000 135.986 82.000 L 137.971 82.000 138.086 85.900 L 138.200 89.800 140.079 89.921 L 141.958 90.042 142.079 91.921 L 142.200 93.800 222.100 93.901 L 302.000 94.002 302.000 92.001 L 302.000 90.000 304.000 90.000 L 306.000 90.000 306.000 88.000 L 306.000 86.000 308.000 86.000 L 310.000 86.000 310.000 84.000 L 310.000 82.000 312.000 82.000 L 314.000 82.000 314.000 80.000 L 314.000 78.000 316.000 78.000 L 318.000 78.000 318.000 76.000 L 318.000 74.000 320.000 74.000 L 322.000 74.000 322.000 72.000 L 322.000 70.000 324.000 70.000 L 326.000 70.000 326.000 68.000 L 326.000 66.000 328.000 66.000 L 330.000 66.000 330.000 64.000 L 330.000 62.000 332.000 62.000 L 334.000 62.000 334.000 60.000 L 334.000 58.000 336.000 58.000 L 338.000 58.000 338.000 50.000 L 338.000 42.000 336.000 42.000 L 334.000 42.000 334.000 40.000 L 334.000 38.000 332.000 38.000 L 330.000 38.000 330.000 36.000 L 330.000 34.000 328.000 34.000 L 326.000 34.000 326.000 32.000 L 326.000 30.000 324.000 30.000 L 322.000 30.000 322.000 26.000 L 322.000 22.000 320.000 22.000 L 318.000 22.000 318.000 20.000 L 318.000 18.000 316.000 18.000 L 314.000 18.000 314.000 16.000 L 314.000 14.000 312.000 14.000 L 310.000 14.000 310.000 12.000 L 310.000 10.000 232.000 10.000 L 154.000 10.000 154.000 12.000 M94.000 64.000 L 94.000 66.000 92.000 66.000 L 90.000 66.000 90.000 68.000 L 90.000 70.000 88.000 70.000 L 86.000 70.000 86.000 72.000 L 86.000 74.000 84.000 74.000 L 82.000 74.000 82.000 76.000 L 82.000 78.000 80.000 78.000 L 78.000 78.000 78.000 80.000 L 78.000 82.000 76.000 82.000 L 74.000 82.000 74.000 84.000 L 74.000 86.000 72.000 86.000 L 70.000 86.000 70.000 88.000 L 70.000 90.000 68.000 90.000 L 66.000 90.000 66.000 92.000 L 66.000 94.000 64.000 94.000 L 62.000 94.000 62.000 96.000 L 62.000 98.000 60.000 98.000 L 58.000 98.000 58.000 106.000 L 58.000 114.000 56.000 114.000 L 54.000 114.000 54.000 130.000 L 54.000 146.000 52.000 146.000 L 50.000 146.000 50.000 162.000 L 50.000 178.000 48.000 178.000 L 46.000 178.000 46.000 196.000 L 46.000 214.000 44.000 214.000 L 42.000 214.000 42.000 218.000 L 42.000 222.000 44.000 222.000 L 46.000 222.000 46.000 226.000 L 46.000 230.000 48.000 230.000 L 50.000 230.000 50.000 232.000 L 50.000 234.000 52.000 234.000 L 54.000 234.000 54.000 236.000 L 54.000 238.000 56.000 238.000 L 58.000 238.000 58.000 240.000 L 58.000 242.000 60.000 242.000 L 62.000 242.000 62.000 246.000 L 62.000 250.000 64.000 250.000 L 66.000 250.000 66.000 252.000 L 66.000 254.000 68.000 254.000 L 70.000 254.000 70.000 256.000 L 70.000 258.000 72.000 258.000 L 74.000 258.000 74.000 260.000 L 74.000 262.000 78.000 262.000 L 82.000 262.000 82.000 260.000 L 82.000 258.000 84.000 258.000 L 86.000 258.000 86.000 256.000 L 86.000 254.000 88.000 254.000 L 90.000 254.000 90.000 252.000 L 90.000 250.000 92.000 250.000 L 94.000 250.000 94.000 248.000 L 94.000 246.000 96.000 246.000 L 98.000 246.000 98.000 244.000 L 98.000 242.000 100.000 242.000 L 102.000 242.000 102.000 240.000 L 102.000 238.000 104.000 238.000 L 106.000 238.000 106.000 236.000 L 106.000 234.000 108.000 234.000 L 110.000 234.000 110.000 232.000 L 110.000 230.000 114.000 230.000 L 118.000 230.000 118.000 228.000 L 118.000 226.000 120.000 226.000 L 122.000 226.000 122.000 216.000 L 122.000 206.000 124.000 206.000 L 126.000 206.000 126.000 190.000 L 126.000 174.000 128.000 174.000 L 130.000 174.000 130.000 158.000 L 130.000 142.000 132.000 142.000 L 134.000 142.000 134.000 124.000 L 134.000 106.000 136.000 106.000 L 138.000 106.000 138.000 102.000 L 138.000 98.000 136.000 98.000 L 134.000 98.000 134.000 96.000 L 134.000 94.000 132.000 94.000 L 130.000 94.000 130.000 92.000 L 130.000 90.000 128.000 90.000 L 126.000 90.000 126.000 86.000 L 126.000 82.000 124.000 82.000 L 122.000 82.000 122.000 80.000 L 122.000 78.000 120.000 78.000 L 118.000 78.000 118.000 76.000 L 118.000 74.000 116.000 74.000 L 114.000 74.000 114.000 72.000 L 114.000 70.000 112.000 70.000 L 110.000 70.000 110.000 68.000 L 110.000 66.000 108.000 66.000 L 106.000 66.000 106.000 64.000 L 106.000 62.000 100.000 62.000 L 94.000 62.000 94.000 64.000 M126.000 232.000 L 126.000 234.000 124.000 234.000 L 122.000 234.000 122.000 236.000 L 122.000 238.000 120.000 238.000 L 118.000 238.000 118.000 240.000 L 118.000 242.000 116.000 242.000 L 114.000 242.000 114.000 244.000 L 114.000 246.000 112.000 246.000 L 110.000 246.000 110.000 248.000 L 110.000 250.000 108.000 250.000 L 106.000 250.000 106.000 252.000 L 106.000 254.000 104.000 254.000 L 102.000 254.000 102.000 256.000 L 102.000 258.000 100.000 258.000 L 98.000 258.000 98.000 260.000 L 98.000 262.000 96.000 262.000 L 94.000 262.000 94.000 264.000 L 94.000 266.000 92.000 266.000 L 90.000 266.000 90.000 274.000 L 90.000 282.000 92.000 282.000 L 94.000 282.000 94.000 284.000 L 94.000 286.000 96.000 286.000 L 98.000 286.000 98.000 288.000 L 98.000 290.000 100.000 290.000 L 102.000 290.000 102.000 292.000 L 102.000 294.000 104.000 294.000 L 106.000 294.000 106.000 298.000 L 106.000 302.000 108.000 302.000 L 110.000 302.000 110.000 304.000 L 110.000 306.000 112.000 306.000 L 114.000 306.000 114.000 308.000 L 114.000 310.000 116.000 310.000 L 118.000 310.000 118.000 312.000 L 118.000 314.000 196.000 314.000 L 274.000 314.000 274.000 312.000 L 274.000 310.000 276.000 310.000 L 278.000 310.000 278.000 308.000 L 278.000 306.000 280.000 306.000 L 282.000 306.000 282.000 304.000 L 282.000 302.000 284.000 302.000 L 286.000 302.000 286.000 300.000 L 286.000 298.000 288.000 298.000 L 290.000 298.000 290.000 296.000 L 290.000 294.000 292.000 294.000 L 294.000 294.000 294.000 292.000 L 294.000 290.000 296.000 290.000 L 298.000 290.000 298.000 288.000 L 298.000 286.000 300.000 286.000 L 302.000 286.000 302.000 284.000 L 302.000 282.000 304.000 282.000 L 306.000 282.000 306.000 280.000 L 306.000 278.000 308.000 278.000 L 310.000 278.000 310.000 270.000 L 310.000 262.000 308.000 262.000 L 306.000 262.000 306.000 260.000 L 306.000 258.000 304.000 258.000 L 302.000 258.000 302.000 256.000 L 302.000 254.000 300.000 254.000 L 298.000 254.000 298.000 252.000 L 298.000 250.000 296.000 250.000 L 294.000 250.000 294.000 246.000 L 294.000 242.000 292.000 242.000 L 290.000 242.000 290.000 240.000 L 290.000 238.000 288.000 238.000 L 286.000 238.000 286.000 236.000 L 286.000 234.000 284.000 234.000 L 282.000 234.000 282.000 232.000 L 282.000 230.000 204.000 230.000 L 126.000 230.000 126.000 232.000 M70.000 284.000 L 70.000 286.000 68.000 286.000 L 66.000 286.000 66.000 288.000 L 66.000 290.000 64.000 290.000 L 62.000 290.000 62.000 292.000 L 62.000 294.000 60.000 294.000 L 58.000 294.000 58.000 296.000 L 58.000 298.000 56.000 298.000 L 54.000 298.000 54.000 300.000 L 54.000 302.000 52.000 302.000 L 50.000 302.000 50.000 304.000 L 50.000 306.000 46.000 306.000 L 42.000 306.000 42.000 308.000 L 42.000 310.000 40.000 310.000 L 38.000 310.000 38.000 312.000 L 38.000 314.000 36.000 314.000 L 34.000 314.000 34.000 316.000 L 34.000 318.000 32.000 318.000 L 30.000 318.000 30.000 332.000 L 30.000 346.000 28.000 346.000 L 26.000 346.000 26.000 362.000 L 26.000 378.000 24.000 378.000 L 22.000 378.000 22.000 396.000 L 22.000 414.000 20.000 414.000 L 18.000 414.000 18.000 432.000 L 18.000 450.000 20.000 450.000 L 22.000 450.000 22.000 452.000 L 22.000 454.000 24.000 454.000 L 26.000 454.000 26.000 456.000 L 26.000 458.000 28.000 458.000 L 30.000 458.000 30.000 460.000 L 30.000 462.000 32.000 462.000 L 34.000 462.000 34.000 464.000 L 34.000 466.000 36.000 466.000 L 38.000 466.000 38.000 470.000 L 38.000 474.000 40.000 474.000 L 42.000 474.000 42.000 476.000 L 42.000 478.000 44.000 478.000 L 46.000 478.000 46.000 480.000 L 46.000 482.000 52.000 482.000 L 58.000 482.000 58.000 480.000 L 58.000 478.000 60.000 478.000 L 62.000 478.000 62.000 476.000 L 62.000 474.000 64.000 474.000 L 66.000 474.000 66.000 472.000 L 66.000 470.000 68.000 470.000 L 70.000 470.000 70.000 468.000 L 70.000 466.000 72.000 466.000 L 74.000 466.000 74.000 464.000 L 74.000 462.000 76.000 462.000 L 78.000 462.000 78.000 460.000 L 78.000 458.000 80.000 458.000 L 82.000 458.000 82.000 456.000 L 82.000 454.000 84.000 454.000 L 86.000 454.000 86.000 452.000 L 86.000 450.000 88.000 450.000 L 90.000 450.000 90.000 448.000 L 90.000 446.000 92.000 446.000 L 94.000 446.000 94.000 442.000 L 94.000 438.000 96.000 438.000 L 98.000 438.000 98.000 422.000 L 98.000 406.000 100.000 406.000 L 102.000 406.000 102.000 390.000 L 102.000 374.000 104.000 374.000 L 106.000 374.000 106.000 356.000 L 106.000 338.000 108.000 338.000 L 110.000 338.000 110.000 328.000 L 110.000 318.000 108.000 318.000 L 106.000 318.000 106.000 316.000 L 106.000 314.000 104.000 314.000 L 102.000 314.000 102.000 310.000 L 102.000 306.000 100.000 306.000 L 98.000 306.000 98.000 304.000 L 98.000 302.000 96.000 302.000 L 94.000 302.000 94.000 300.000 L 94.000 298.000 92.000 298.000 L 90.000 298.000 90.000 296.000 L 90.000 294.000 88.000 294.000 L 86.000 294.000 86.000 292.000 L 86.000 290.000 84.000 290.000 L 82.000 290.000 82.000 288.000 L 82.000 286.000 80.000 286.000 L 78.000 286.000 78.000 284.000 L 78.000 282.000 74.000 282.000 L 70.000 282.000 70.000 284.000 M314.000 284.000 L 314.000 286.000 312.000 286.000 L 310.000 286.000 310.000 288.000 L 310.000 290.000 308.000 290.000 L 306.000 290.000 306.000 292.000 L 306.000 294.000 304.000 294.000 L 302.000 294.000 302.000 296.000 L 302.000 298.000 300.000 298.000 L 298.000 298.000 298.000 300.000 L 298.000 302.000 296.000 302.000 L 294.000 302.000 294.000 304.000 L 294.000 306.000 292.000 306.000 L 290.000 306.000 290.000 308.000 L 290.000 310.000 288.000 310.000 L 286.000 310.000 286.000 312.000 L 286.000 314.000 284.000 314.000 L 282.000 314.000 282.000 316.000 L 282.000 318.000 280.000 318.000 L 278.000 318.000 278.000 324.000 L 278.000 330.000 276.000 330.000 L 274.000 330.000 274.000 346.000 L 274.000 362.000 272.000 362.000 L 270.000 362.000 270.000 380.000 L 270.000 398.000 268.000 398.000 L 266.000 398.000 266.000 414.000 L 266.000 430.000 264.000 430.000 L 262.000 430.000 262.000 436.774 C 262.000 444.790,262.181 445.492,264.333 445.836 L 265.892 446.085 266.109 449.257 C 266.373 453.115,266.644 453.476,269.528 453.820 C 272.099 454.127,274.000 455.510,274.000 457.075 C 274.000 457.918,274.176 458.000,276.000 458.000 L 278.000 458.000 278.000 460.000 L 278.000 462.000 280.000 462.000 L 282.000 462.000 282.000 464.000 L 282.000 466.000 283.900 466.064 C 285.307 466.111,285.470 466.169,284.530 466.287 C 282.745 466.511,282.320 467.225,282.320 470.000 C 282.320 472.784,282.753 473.505,284.530 473.677 C 285.698 473.790,285.810 473.928,285.930 475.395 C 286.101 477.494,286.586 478.000,288.427 478.000 L 289.956 478.000 290.078 479.900 L 290.200 481.800 296.100 481.911 L 302.000 482.021 302.000 480.011 L 302.000 478.000 304.000 478.000 L 306.000 478.000 306.000 476.000 L 306.000 474.000 308.000 474.000 L 310.000 474.000 310.000 472.000 L 310.000 470.000 312.000 470.000 L 314.000 470.000 314.000 468.000 L 314.000 466.000 316.000 466.000 L 318.000 466.000 318.000 464.000 L 318.000 462.000 320.000 462.000 L 322.000 462.000 322.000 460.000 L 322.000 458.000 324.000 458.000 L 326.000 458.000 326.000 456.000 L 326.000 454.000 330.000 454.000 L 334.000 454.000 334.000 452.000 L 334.000 450.000 336.000 450.000 L 338.000 450.000 338.000 448.000 L 338.000 446.000 340.000 446.000 L 342.000 446.000 342.000 438.000 L 342.000 430.000 344.000 430.000 L 346.000 430.000 346.000 414.000 L 346.000 398.000 348.000 398.000 L 350.000 398.000 350.000 380.000 L 350.000 362.000 352.000 362.000 L 354.000 362.000 354.000 346.000 L 354.000 330.000 356.000 330.000 L 358.000 330.000 358.000 324.000 L 358.000 318.000 356.000 318.000 L 354.000 318.000 354.000 316.000 L 354.000 314.000 352.000 314.000 L 350.000 314.000 350.000 312.000 L 350.000 310.000 348.000 310.000 L 346.000 310.000 346.000 306.000 L 346.000 302.000 344.000 302.000 L 342.000 302.000 342.000 300.000 L 342.000 298.000 340.000 298.000 L 338.000 298.000 338.000 296.000 L 338.000 294.000 336.000 294.000 L 334.000 294.000 334.000 292.000 L 334.000 290.000 332.000 290.000 L 330.000 290.000 330.000 288.000 L 330.000 286.000 328.000 286.000 L 326.000 286.000 326.000 284.000 L 326.000 282.000 320.000 282.000 L 314.000 282.000 314.000 284.000 M98.000 452.000 L 98.000 454.000 96.000 454.000 L 94.000 454.000 94.000 456.000 L 94.000 458.000 92.000 458.000 L 90.000 458.000 90.000 460.000 L 90.000 462.000 88.000 462.000 L 86.000 462.000 86.000 464.000 L 86.000 466.000 84.000 466.000 L 82.000 466.000 82.000 468.000 L 82.000 470.000 80.000 470.000 L 78.000 470.000 78.000 472.000 L 78.000 474.000 76.000 474.000 L 74.000 474.000 74.000 476.000 L 74.000 478.000 72.000 478.000 L 70.000 478.000 70.000 480.000 L 70.000 482.000 68.000 482.000 L 66.000 482.000 66.000 484.000 L 66.000 486.000 64.000 486.000 L 62.000 486.000 62.000 494.000 L 62.000 502.000 64.000 502.000 L 66.000 502.000 66.000 504.000 L 66.000 506.000 68.000 506.000 L 70.000 506.000 70.000 508.000 L 70.000 510.000 72.000 510.000 L 74.000 510.000 74.000 512.000 L 74.000 514.000 76.000 514.000 L 78.000 514.000 78.000 518.000 L 78.000 522.000 80.000 522.000 L 82.000 522.000 82.000 524.000 L 82.000 526.000 84.000 526.000 L 86.000 526.000 86.000 528.000 L 86.000 530.000 88.000 530.000 L 90.000 530.000 90.000 532.000 L 90.000 534.000 168.000 534.000 L 246.000 534.000 246.000 532.000 L 246.000 530.000 248.000 530.000 L 250.000 530.000 250.000 528.000 L 250.000 526.000 252.000 526.000 L 254.000 526.000 254.000 524.000 L 254.000 522.000 256.000 522.000 L 258.000 522.000 258.000 520.000 L 258.000 518.000 260.000 518.000 L 262.000 518.000 262.000 516.000 L 262.000 514.000 264.000 514.000 L 266.000 514.000 266.000 512.000 L 266.000 510.000 268.000 510.000 L 270.000 510.000 270.000 508.000 L 270.000 506.000 272.000 506.000 L 274.000 506.000 274.000 504.000 L 274.000 502.000 276.000 502.000 L 278.000 502.000 278.000 500.000 L 278.000 498.000 280.000 498.000 L 282.000 498.000 282.000 490.000 L 282.000 482.000 280.000 482.000 L 278.000 482.000 278.000 480.000 L 278.000 478.000 276.000 478.000 L 274.000 478.000 274.000 476.000 L 274.000 474.000 272.000 474.000 L 270.000 474.000 270.000 472.000 L 270.000 470.000 268.000 470.000 L 266.000 470.000 266.000 466.000 L 266.000 462.000 264.000 462.000 L 262.000 462.000 262.000 460.000 L 262.000 458.000 260.000 458.000 L 258.000 458.000 258.000 456.000 L 258.000 454.000 256.000 454.000 L 254.000 454.000 254.000 452.000 L 254.000 450.000 176.000 450.000 L 98.000 450.000 98.000 452.000 " stroke="none" fill="#000000" fill-rule="evenodd"></path><path id="path3" d="M154.000 12.000 L 154.000 14.000 152.000 14.000 L 150.000 14.000 150.000 16.000 L 150.000 18.000 148.000 18.000 L 146.000 18.000 146.000 20.000 L 146.000 22.000 144.000 22.000 L 142.000 22.000 142.000 24.000 L 142.000 26.000 140.000 26.000 L 138.000 26.000 138.000 28.000 L 138.000 30.000 136.000 30.000 L 134.000 30.000 134.000 32.000 L 134.000 34.000 132.000 34.000 L 130.000 34.000 130.000 36.000 L 130.000 38.000 128.000 38.000 L 126.000 38.000 126.000 40.000 L 126.000 42.000 124.000 42.000 L 122.000 42.000 122.000 44.000 L 122.000 46.000 120.000 46.000 L 118.000 46.000 118.000 54.000 L 118.000 62.000 119.941 62.000 L 121.881 62.000 122.132 65.248 C 122.415 68.919,122.731 69.503,124.530 69.677 C 125.740 69.794,125.810 69.895,126.000 71.800 L 126.200 73.800 128.079 73.921 L 129.958 74.042 130.079 75.921 L 130.200 77.800 132.100 77.922 L 134.000 78.044 134.000 80.022 L 134.000 82.000 135.986 82.000 L 137.971 82.000 138.086 85.900 L 138.200 89.800 140.079 89.921 L 141.958 90.042 142.079 91.921 L 142.200 93.800 222.100 93.901 L 302.000 94.002 302.000 92.001 L 302.000 90.000 304.000 90.000 L 306.000 90.000 306.000 88.000 L 306.000 86.000 308.000 86.000 L 310.000 86.000 310.000 84.000 L 310.000 82.000 312.000 82.000 L 314.000 82.000 314.000 80.000 L 314.000 78.000 316.000 78.000 L 318.000 78.000 318.000 76.000 L 318.000 74.000 320.000 74.000 L 322.000 74.000 322.000 72.000 L 322.000 70.000 324.000 70.000 L 326.000 70.000 326.000 68.000 L 326.000 66.000 328.000 66.000 L 330.000 66.000 330.000 64.000 L 330.000 62.000 332.000 62.000 L 334.000 62.000 334.000 60.000 L 334.000 58.000 336.000 58.000 L 338.000 58.000 338.000 50.000 L 338.000 42.000 336.000 42.000 L 334.000 42.000 334.000 40.000 L 334.000 38.000 332.000 38.000 L 330.000 38.000 330.000 36.000 L 330.000 34.000 328.000 34.000 L 326.000 34.000 326.000 32.000 L 326.000 30.000 324.000 30.000 L 322.000 30.000 322.000 26.000 L 322.000 22.000 320.000 22.000 L 318.000 22.000 318.000 20.000 L 318.000 18.000 316.000 18.000 L 314.000 18.000 314.000 16.000 L 314.000 14.000 312.000 14.000 L 310.000 14.000 310.000 12.000 L 310.000 10.000 232.000 10.000 L 154.000 10.000 154.000 12.000 M94.000 64.000 L 94.000 66.000 92.000 66.000 L 90.000 66.000 90.000 68.000 L 90.000 70.000 88.000 70.000 L 86.000 70.000 86.000 72.000 L 86.000 74.000 84.000 74.000 L 82.000 74.000 82.000 76.000 L 82.000 78.000 80.000 78.000 L 78.000 78.000 78.000 80.000 L 78.000 82.000 76.000 82.000 L 74.000 82.000 74.000 84.000 L 74.000 86.000 72.000 86.000 L 70.000 86.000 70.000 88.000 L 70.000 90.000 68.000 90.000 L 66.000 90.000 66.000 92.000 L 66.000 94.000 64.000 94.000 L 62.000 94.000 62.000 96.000 L 62.000 98.000 60.000 98.000 L 58.000 98.000 58.000 106.000 L 58.000 114.000 56.000 114.000 L 54.000 114.000 54.000 130.000 L 54.000 146.000 52.000 146.000 L 50.000 146.000 50.000 162.000 L 50.000 178.000 48.000 178.000 L 46.000 178.000 46.000 196.000 L 46.000 214.000 44.000 214.000 L 42.000 214.000 42.000 218.000 L 42.000 222.000 44.000 222.000 L 46.000 222.000 46.000 226.000 L 46.000 230.000 48.000 230.000 L 50.000 230.000 50.000 232.000 L 50.000 234.000 52.000 234.000 L 54.000 234.000 54.000 236.000 L 54.000 238.000 56.000 238.000 L 58.000 238.000 58.000 240.000 L 58.000 242.000 60.000 242.000 L 62.000 242.000 62.000 246.000 L 62.000 250.000 64.000 250.000 L 66.000 250.000 66.000 252.000 L 66.000 254.000 68.000 254.000 L 70.000 254.000 70.000 256.000 L 70.000 258.000 72.000 258.000 L 74.000 258.000 74.000 260.000 L 74.000 262.000 78.000 262.000 L 82.000 262.000 82.000 260.000 L 82.000 258.000 84.000 258.000 L 86.000 258.000 86.000 256.000 L 86.000 254.000 88.000 254.000 L 90.000 254.000 90.000 252.000 L 90.000 250.000 92.000 250.000 L 94.000 250.000 94.000 248.000 L 94.000 246.000 96.000 246.000 L 98.000 246.000 98.000 244.000 L 98.000 242.000 100.000 242.000 L 102.000 242.000 102.000 240.000 L 102.000 238.000 104.000 238.000 L 106.000 238.000 106.000 236.000 L 106.000 234.000 108.000 234.000 L 110.000 234.000 110.000 232.000 L 110.000 230.000 114.000 230.000 L 118.000 230.000 118.000 228.000 L 118.000 226.000 120.000 226.000 L 122.000 226.000 122.000 216.000 L 122.000 206.000 124.000 206.000 L 126.000 206.000 126.000 190.000 L 126.000 174.000 128.000 174.000 L 130.000 174.000 130.000 158.000 L 130.000 142.000 132.000 142.000 L 134.000 142.000 134.000 124.000 L 134.000 106.000 136.000 106.000 L 138.000 106.000 138.000 102.000 L 138.000 98.000 136.000 98.000 L 134.000 98.000 134.000 96.000 L 134.000 94.000 132.000 94.000 L 130.000 94.000 130.000 92.000 L 130.000 90.000 128.000 90.000 L 126.000 90.000 126.000 86.000 L 126.000 82.000 124.000 82.000 L 122.000 82.000 122.000 80.000 L 122.000 78.000 120.000 78.000 L 118.000 78.000 118.000 76.000 L 118.000 74.000 116.000 74.000 L 114.000 74.000 114.000 72.000 L 114.000 70.000 112.000 70.000 L 110.000 70.000 110.000 68.000 L 110.000 66.000 108.000 66.000 L 106.000 66.000 106.000 64.000 L 106.000 62.000 100.000 62.000 L 94.000 62.000 94.000 64.000 M126.000 232.000 L 126.000 234.000 124.000 234.000 L 122.000 234.000 122.000 236.000 L 122.000 238.000 120.000 238.000 L 118.000 238.000 118.000 240.000 L 118.000 242.000 116.000 242.000 L 114.000 242.000 114.000 244.000 L 114.000 246.000 112.000 246.000 L 110.000 246.000 110.000 248.000 L 110.000 250.000 108.000 250.000 L 106.000 250.000 106.000 252.000 L 106.000 254.000 104.000 254.000 L 102.000 254.000 102.000 256.000 L 102.000 258.000 100.000 258.000 L 98.000 258.000 98.000 260.000 L 98.000 262.000 96.000 262.000 L 94.000 262.000 94.000 264.000 L 94.000 266.000 92.000 266.000 L 90.000 266.000 90.000 274.000 L 90.000 282.000 92.000 282.000 L 94.000 282.000 94.000 284.000 L 94.000 286.000 96.000 286.000 L 98.000 286.000 98.000 288.000 L 98.000 290.000 100.000 290.000 L 102.000 290.000 102.000 292.000 L 102.000 294.000 104.000 294.000 L 106.000 294.000 106.000 298.000 L 106.000 302.000 108.000 302.000 L 110.000 302.000 110.000 304.000 L 110.000 306.000 112.000 306.000 L 114.000 306.000 114.000 308.000 L 114.000 310.000 116.000 310.000 L 118.000 310.000 118.000 312.000 L 118.000 314.000 196.000 314.000 L 274.000 314.000 274.000 312.000 L 274.000 310.000 276.000 310.000 L 278.000 310.000 278.000 308.000 L 278.000 306.000 280.000 306.000 L 282.000 306.000 282.000 304.000 L 282.000 302.000 284.000 302.000 L 286.000 302.000 286.000 300.000 L 286.000 298.000 288.000 298.000 L 290.000 298.000 290.000 296.000 L 290.000 294.000 292.000 294.000 L 294.000 294.000 294.000 292.000 L 294.000 290.000 296.000 290.000 L 298.000 290.000 298.000 288.000 L 298.000 286.000 300.000 286.000 L 302.000 286.000 302.000 284.000 L 302.000 282.000 304.000 282.000 L 306.000 282.000 306.000 280.000 L 306.000 278.000 308.000 278.000 L 310.000 278.000 310.000 270.000 L 310.000 262.000 308.000 262.000 L 306.000 262.000 306.000 260.000 L 306.000 258.000 304.000 258.000 L 302.000 258.000 302.000 256.000 L 302.000 254.000 300.000 254.000 L 298.000 254.000 298.000 252.000 L 298.000 250.000 296.000 250.000 L 294.000 250.000 294.000 246.000 L 294.000 242.000 292.000 242.000 L 290.000 242.000 290.000 240.000 L 290.000 238.000 288.000 238.000 L 286.000 238.000 286.000 236.000 L 286.000 234.000 284.000 234.000 L 282.000 234.000 282.000 232.000 L 282.000 230.000 204.000 230.000 L 126.000 230.000 126.000 232.000 M70.000 284.000 L 70.000 286.000 68.000 286.000 L 66.000 286.000 66.000 288.000 L 66.000 290.000 64.000 290.000 L 62.000 290.000 62.000 292.000 L 62.000 294.000 60.000 294.000 L 58.000 294.000 58.000 296.000 L 58.000 298.000 56.000 298.000 L 54.000 298.000 54.000 300.000 L 54.000 302.000 52.000 302.000 L 50.000 302.000 50.000 304.000 L 50.000 306.000 46.000 306.000 L 42.000 306.000 42.000 308.000 L 42.000 310.000 40.000 310.000 L 38.000 310.000 38.000 312.000 L 38.000 314.000 36.000 314.000 L 34.000 314.000 34.000 316.000 L 34.000 318.000 32.000 318.000 L 30.000 318.000 30.000 332.000 L 30.000 346.000 28.000 346.000 L 26.000 346.000 26.000 362.000 L 26.000 378.000 24.000 378.000 L 22.000 378.000 22.000 396.000 L 22.000 414.000 20.000 414.000 L 18.000 414.000 18.000 432.000 L 18.000 450.000 20.000 450.000 L 22.000 450.000 22.000 452.000 L 22.000 454.000 24.000 454.000 L 26.000 454.000 26.000 456.000 L 26.000 458.000 28.000 458.000 L 30.000 458.000 30.000 460.000 L 30.000 462.000 32.000 462.000 L 34.000 462.000 34.000 464.000 L 34.000 466.000 36.000 466.000 L 38.000 466.000 38.000 470.000 L 38.000 474.000 40.000 474.000 L 42.000 474.000 42.000 476.000 L 42.000 478.000 44.000 478.000 L 46.000 478.000 46.000 480.000 L 46.000 482.000 52.000 482.000 L 58.000 482.000 58.000 480.000 L 58.000 478.000 60.000 478.000 L 62.000 478.000 62.000 476.000 L 62.000 474.000 64.000 474.000 L 66.000 474.000 66.000 472.000 L 66.000 470.000 68.000 470.000 L 70.000 470.000 70.000 468.000 L 70.000 466.000 72.000 466.000 L 74.000 466.000 74.000 464.000 L 74.000 462.000 76.000 462.000 L 78.000 462.000 78.000 460.000 L 78.000 458.000 80.000 458.000 L 82.000 458.000 82.000 456.000 L 82.000 454.000 84.000 454.000 L 86.000 454.000 86.000 452.000 L 86.000 450.000 88.000 450.000 L 90.000 450.000 90.000 448.000 L 90.000 446.000 92.000 446.000 L 94.000 446.000 94.000 442.000 L 94.000 438.000 96.000 438.000 L 98.000 438.000 98.000 422.000 L 98.000 406.000 100.000 406.000 L 102.000 406.000 102.000 390.000 L 102.000 374.000 104.000 374.000 L 106.000 374.000 106.000 356.000 L 106.000 338.000 108.000 338.000 L 110.000 338.000 110.000 328.000 L 110.000 318.000 108.000 318.000 L 106.000 318.000 106.000 316.000 L 106.000 314.000 104.000 314.000 L 102.000 314.000 102.000 310.000 L 102.000 306.000 100.000 306.000 L 98.000 306.000 98.000 304.000 L 98.000 302.000 96.000 302.000 L 94.000 302.000 94.000 300.000 L 94.000 298.000 92.000 298.000 L 90.000 298.000 90.000 296.000 L 90.000 294.000 88.000 294.000 L 86.000 294.000 86.000 292.000 L 86.000 290.000 84.000 290.000 L 82.000 290.000 82.000 288.000 L 82.000 286.000 80.000 286.000 L 78.000 286.000 78.000 284.000 L 78.000 282.000 74.000 282.000 L 70.000 282.000 70.000 284.000 M314.000 284.000 L 314.000 286.000 312.000 286.000 L 310.000 286.000 310.000 288.000 L 310.000 290.000 308.000 290.000 L 306.000 290.000 306.000 292.000 L 306.000 294.000 304.000 294.000 L 302.000 294.000 302.000 296.000 L 302.000 298.000 300.000 298.000 L 298.000 298.000 298.000 300.000 L 298.000 302.000 296.000 302.000 L 294.000 302.000 294.000 304.000 L 294.000 306.000 292.000 306.000 L 290.000 306.000 290.000 308.000 L 290.000 310.000 288.000 310.000 L 286.000 310.000 286.000 312.000 L 286.000 314.000 284.000 314.000 L 282.000 314.000 282.000 316.000 L 282.000 318.000 280.000 318.000 L 278.000 318.000 278.000 324.000 L 278.000 330.000 276.000 330.000 L 274.000 330.000 274.000 346.000 L 274.000 362.000 272.000 362.000 L 270.000 362.000 270.000 380.000 L 270.000 398.000 268.000 398.000 L 266.000 398.000 266.000 414.000 L 266.000 430.000 264.000 430.000 L 262.000 430.000 262.000 436.774 C 262.000 444.790,262.181 445.492,264.333 445.836 L 265.892 446.085 266.109 449.257 C 266.373 453.115,266.644 453.476,269.528 453.820 C 272.099 454.127,274.000 455.510,274.000 457.075 C 274.000 457.918,274.176 458.000,276.000 458.000 L 278.000 458.000 278.000 460.000 L 278.000 462.000 280.000 462.000 L 282.000 462.000 282.000 464.000 L 282.000 466.000 283.900 466.064 C 285.307 466.111,285.470 466.169,284.530 466.287 C 282.745 466.511,282.320 467.225,282.320 470.000 C 282.320 472.784,282.753 473.505,284.530 473.677 C 285.698 473.790,285.810 473.928,285.930 475.395 C 286.101 477.494,286.586 478.000,288.427 478.000 L 289.956 478.000 290.078 479.900 L 290.200 481.800 296.100 481.911 L 302.000 482.021 302.000 480.011 L 302.000 478.000 304.000 478.000 L 306.000 478.000 306.000 476.000 L 306.000 474.000 308.000 474.000 L 310.000 474.000 310.000 472.000 L 310.000 470.000 312.000 470.000 L 314.000 470.000 314.000 468.000 L 314.000 466.000 316.000 466.000 L 318.000 466.000 318.000 464.000 L 318.000 462.000 320.000 462.000 L 322.000 462.000 322.000 460.000 L 322.000 458.000 324.000 458.000 L 326.000 458.000 326.000 456.000 L 326.000 454.000 330.000 454.000 L 334.000 454.000 334.000 452.000 L 334.000 450.000 336.000 450.000 L 338.000 450.000 338.000 448.000 L 338.000 446.000 340.000 446.000 L 342.000 446.000 342.000 438.000 L 342.000 430.000 344.000 430.000 L 346.000 430.000 346.000 414.000 L 346.000 398.000 348.000 398.000 L 350.000 398.000 350.000 380.000 L 350.000 362.000 352.000 362.000 L 354.000 362.000 354.000 346.000 L 354.000 330.000 356.000 330.000 L 358.000 330.000 358.000 324.000 L 358.000 318.000 356.000 318.000 L 354.000 318.000 354.000 316.000 L 354.000 314.000 352.000 314.000 L 350.000 314.000 350.000 312.000 L 350.000 310.000 348.000 310.000 L 346.000 310.000 346.000 306.000 L 346.000 302.000 344.000 302.000 L 342.000 302.000 342.000 300.000 L 342.000 298.000 340.000 298.000 L 338.000 298.000 338.000 296.000 L 338.000 294.000 336.000 294.000 L 334.000 294.000 334.000 292.000 L 334.000 290.000 332.000 290.000 L 330.000 290.000 330.000 288.000 L 330.000 286.000 328.000 286.000 L 326.000 286.000 326.000 284.000 L 326.000 282.000 320.000 282.000 L 314.000 282.000 314.000 284.000 M98.000 452.000 L 98.000 454.000 96.000 454.000 L 94.000 454.000 94.000 456.000 L 94.000 458.000 92.000 458.000 L 90.000 458.000 90.000 460.000 L 90.000 462.000 88.000 462.000 L 86.000 462.000 86.000 464.000 L 86.000 466.000 84.000 466.000 L 82.000 466.000 82.000 468.000 L 82.000 470.000 80.000 470.000 L 78.000 470.000 78.000 472.000 L 78.000 474.000 76.000 474.000 L 74.000 474.000 74.000 476.000 L 74.000 478.000 72.000 478.000 L 70.000 478.000 70.000 480.000 L 70.000 482.000 68.000 482.000 L 66.000 482.000 66.000 484.000 L 66.000 486.000 64.000 486.000 L 62.000 486.000 62.000 494.000 L 62.000 502.000 64.000 502.000 L 66.000 502.000 66.000 504.000 L 66.000 506.000 68.000 506.000 L 70.000 506.000 70.000 508.000 L 70.000 510.000 72.000 510.000 L 74.000 510.000 74.000 512.000 L 74.000 514.000 76.000 514.000 L 78.000 514.000 78.000 518.000 L 78.000 522.000 80.000 522.000 L 82.000 522.000 82.000 524.000 L 82.000 526.000 84.000 526.000 L 86.000 526.000 86.000 528.000 L 86.000 530.000 88.000 530.000 L 90.000 530.000 90.000 532.000 L 90.000 534.000 168.000 534.000 L 246.000 534.000 246.000 532.000 L 246.000 530.000 248.000 530.000 L 250.000 530.000 250.000 528.000 L 250.000 526.000 252.000 526.000 L 254.000 526.000 254.000 524.000 L 254.000 522.000 256.000 522.000 L 258.000 522.000 258.000 520.000 L 258.000 518.000 260.000 518.000 L 262.000 518.000 262.000 516.000 L 262.000 514.000 264.000 514.000 L 266.000 514.000 266.000 512.000 L 266.000 510.000 268.000 510.000 L 270.000 510.000 270.000 508.000 L 270.000 506.000 272.000 506.000 L 274.000 506.000 274.000 504.000 L 274.000 502.000 276.000 502.000 L 278.000 502.000 278.000 500.000 L 278.000 498.000 280.000 498.000 L 282.000 498.000 282.000 490.000 L 282.000 482.000 280.000 482.000 L 278.000 482.000 278.000 480.000 L 278.000 478.000 276.000 478.000 L 274.000 478.000 274.000 476.000 L 274.000 474.000 272.000 474.000 L 270.000 474.000 270.000 472.000 L 270.000 470.000 268.000 470.000 L 266.000 470.000 266.000 466.000 L 266.000 462.000 264.000 462.000 L 262.000 462.000 262.000 460.000 L 262.000 458.000 260.000 458.000 L 258.000 458.000 258.000 456.000 L 258.000 454.000 256.000 454.000 L 254.000 454.000 254.000 452.000 L 254.000 450.000 176.000 450.000 L 98.000 450.000 98.000 452.000 " stroke="none" fill="#000000" fill-rule="evenodd"></path><path id="path4" d="M154.000 12.000 L 154.000 14.000 152.000 14.000 L 150.000 14.000 150.000 16.000 L 150.000 18.000 148.000 18.000 L 146.000 18.000 146.000 20.000 L 146.000 22.000 144.000 22.000 L 142.000 22.000 142.000 24.000 L 142.000 26.000 140.000 26.000 L 138.000 26.000 138.000 28.000 L 138.000 30.000 136.000 30.000 L 134.000 30.000 134.000 32.000 L 134.000 34.000 132.000 34.000 L 130.000 34.000 130.000 36.000 L 130.000 38.000 128.000 38.000 L 126.000 38.000 126.000 40.000 L 126.000 42.000 124.000 42.000 L 122.000 42.000 122.000 44.000 L 122.000 46.000 120.000 46.000 L 118.000 46.000 118.000 54.000 L 118.000 62.000 119.941 62.000 L 121.881 62.000 122.132 65.248 C 122.415 68.919,122.731 69.503,124.530 69.677 C 125.740 69.794,125.810 69.895,126.000 71.800 L 126.200 73.800 128.079 73.921 L 129.958 74.042 130.079 75.921 L 130.200 77.800 132.100 77.922 L 134.000 78.044 134.000 80.022 L 134.000 82.000 135.986 82.000 L 137.971 82.000 138.086 85.900 L 138.200 89.800 140.079 89.921 L 141.958 90.042 142.079 91.921 L 142.200 93.800 222.100 93.901 L 302.000 94.002 302.000 92.001 L 302.000 90.000 304.000 90.000 L 306.000 90.000 306.000 88.000 L 306.000 86.000 308.000 86.000 L 310.000 86.000 310.000 84.000 L 310.000 82.000 312.000 82.000 L 314.000 82.000 314.000 80.000 L 314.000 78.000 316.000 78.000 L 318.000 78.000 318.000 76.000 L 318.000 74.000 320.000 74.000 L 322.000 74.000 322.000 72.000 L 322.000 70.000 324.000 70.000 L 326.000 70.000 326.000 68.000 L 326.000 66.000 328.000 66.000 L 330.000 66.000 330.000 64.000 L 330.000 62.000 332.000 62.000 L 334.000 62.000 334.000 60.000 L 334.000 58.000 336.000 58.000 L 338.000 58.000 338.000 50.000 L 338.000 42.000 336.000 42.000 L 334.000 42.000 334.000 40.000 L 334.000 38.000 332.000 38.000 L 330.000 38.000 330.000 36.000 L 330.000 34.000 328.000 34.000 L 326.000 34.000 326.000 32.000 L 326.000 30.000 324.000 30.000 L 322.000 30.000 322.000 26.000 L 322.000 22.000 320.000 22.000 L 318.000 22.000 318.000 20.000 L 318.000 18.000 316.000 18.000 L 314.000 18.000 314.000 16.000 L 314.000 14.000 312.000 14.000 L 310.000 14.000 310.000 12.000 L 310.000 10.000 232.000 10.000 L 154.000 10.000 154.000 12.000 M94.000 64.000 L 94.000 66.000 92.000 66.000 L 90.000 66.000 90.000 68.000 L 90.000 70.000 88.000 70.000 L 86.000 70.000 86.000 72.000 L 86.000 74.000 84.000 74.000 L 82.000 74.000 82.000 76.000 L 82.000 78.000 80.000 78.000 L 78.000 78.000 78.000 80.000 L 78.000 82.000 76.000 82.000 L 74.000 82.000 74.000 84.000 L 74.000 86.000 72.000 86.000 L 70.000 86.000 70.000 88.000 L 70.000 90.000 68.000 90.000 L 66.000 90.000 66.000 92.000 L 66.000 94.000 64.000 94.000 L 62.000 94.000 62.000 96.000 L 62.000 98.000 60.000 98.000 L 58.000 98.000 58.000 106.000 L 58.000 114.000 56.000 114.000 L 54.000 114.000 54.000 130.000 L 54.000 146.000 52.000 146.000 L 50.000 146.000 50.000 162.000 L 50.000 178.000 48.000 178.000 L 46.000 178.000 46.000 196.000 L 46.000 214.000 44.000 214.000 L 42.000 214.000 42.000 218.000 L 42.000 222.000 44.000 222.000 L 46.000 222.000 46.000 226.000 L 46.000 230.000 48.000 230.000 L 50.000 230.000 50.000 232.000 L 50.000 234.000 52.000 234.000 L 54.000 234.000 54.000 236.000 L 54.000 238.000 56.000 238.000 L 58.000 238.000 58.000 240.000 L 58.000 242.000 60.000 242.000 L 62.000 242.000 62.000 246.000 L 62.000 250.000 64.000 250.000 L 66.000 250.000 66.000 252.000 L 66.000 254.000 68.000 254.000 L 70.000 254.000 70.000 256.000 L 70.000 258.000 72.000 258.000 L 74.000 258.000 74.000 260.000 L 74.000 262.000 78.000 262.000 L 82.000 262.000 82.000 260.000 L 82.000 258.000 84.000 258.000 L 86.000 258.000 86.000 256.000 L 86.000 254.000 88.000 254.000 L 90.000 254.000 90.000 252.000 L 90.000 250.000 92.000 250.000 L 94.000 250.000 94.000 248.000 L 94.000 246.000 96.000 246.000 L 98.000 246.000 98.000 244.000 L 98.000 242.000 100.000 242.000 L 102.000 242.000 102.000 240.000 L 102.000 238.000 104.000 238.000 L 106.000 238.000 106.000 236.000 L 106.000 234.000 108.000 234.000 L 110.000 234.000 110.000 232.000 L 110.000 230.000 114.000 230.000 L 118.000 230.000 118.000 228.000 L 118.000 226.000 120.000 226.000 L 122.000 226.000 122.000 216.000 L 122.000 206.000 124.000 206.000 L 126.000 206.000 126.000 190.000 L 126.000 174.000 128.000 174.000 L 130.000 174.000 130.000 158.000 L 130.000 142.000 132.000 142.000 L 134.000 142.000 134.000 124.000 L 134.000 106.000 136.000 106.000 L 138.000 106.000 138.000 102.000 L 138.000 98.000 136.000 98.000 L 134.000 98.000 134.000 96.000 L 134.000 94.000 132.000 94.000 L 130.000 94.000 130.000 92.000 L 130.000 90.000 128.000 90.000 L 126.000 90.000 126.000 86.000 L 126.000 82.000 124.000 82.000 L 122.000 82.000 122.000 80.000 L 122.000 78.000 120.000 78.000 L 118.000 78.000 118.000 76.000 L 118.000 74.000 116.000 74.000 L 114.000 74.000 114.000 72.000 L 114.000 70.000 112.000 70.000 L 110.000 70.000 110.000 68.000 L 110.000 66.000 108.000 66.000 L 106.000 66.000 106.000 64.000 L 106.000 62.000 100.000 62.000 L 94.000 62.000 94.000 64.000 M126.000 232.000 L 126.000 234.000 124.000 234.000 L 122.000 234.000 122.000 236.000 L 122.000 238.000 120.000 238.000 L 118.000 238.000 118.000 240.000 L 118.000 242.000 116.000 242.000 L 114.000 242.000 114.000 244.000 L 114.000 246.000 112.000 246.000 L 110.000 246.000 110.000 248.000 L 110.000 250.000 108.000 250.000 L 106.000 250.000 106.000 252.000 L 106.000 254.000 104.000 254.000 L 102.000 254.000 102.000 256.000 L 102.000 258.000 100.000 258.000 L 98.000 258.000 98.000 260.000 L 98.000 262.000 96.000 262.000 L 94.000 262.000 94.000 264.000 L 94.000 266.000 92.000 266.000 L 90.000 266.000 90.000 274.000 L 90.000 282.000 92.000 282.000 L 94.000 282.000 94.000 284.000 L 94.000 286.000 96.000 286.000 L 98.000 286.000 98.000 288.000 L 98.000 290.000 100.000 290.000 L 102.000 290.000 102.000 292.000 L 102.000 294.000 104.000 294.000 L 106.000 294.000 106.000 298.000 L 106.000 302.000 108.000 302.000 L 110.000 302.000 110.000 304.000 L 110.000 306.000 112.000 306.000 L 114.000 306.000 114.000 308.000 L 114.000 310.000 116.000 310.000 L 118.000 310.000 118.000 312.000 L 118.000 314.000 196.000 314.000 L 274.000 314.000 274.000 312.000 L 274.000 310.000 276.000 310.000 L 278.000 310.000 278.000 308.000 L 278.000 306.000 280.000 306.000 L 282.000 306.000 282.000 304.000 L 282.000 302.000 284.000 302.000 L 286.000 302.000 286.000 300.000 L 286.000 298.000 288.000 298.000 L 290.000 298.000 290.000 296.000 L 290.000 294.000 292.000 294.000 L 294.000 294.000 294.000 292.000 L 294.000 290.000 296.000 290.000 L 298.000 290.000 298.000 288.000 L 298.000 286.000 300.000 286.000 L 302.000 286.000 302.000 284.000 L 302.000 282.000 304.000 282.000 L 306.000 282.000 306.000 280.000 L 306.000 278.000 308.000 278.000 L 310.000 278.000 310.000 270.000 L 310.000 262.000 308.000 262.000 L 306.000 262.000 306.000 260.000 L 306.000 258.000 304.000 258.000 L 302.000 258.000 302.000 256.000 L 302.000 254.000 300.000 254.000 L 298.000 254.000 298.000 252.000 L 298.000 250.000 296.000 250.000 L 294.000 250.000 294.000 246.000 L 294.000 242.000 292.000 242.000 L 290.000 242.000 290.000 240.000 L 290.000 238.000 288.000 238.000 L 286.000 238.000 286.000 236.000 L 286.000 234.000 284.000 234.000 L 282.000 234.000 282.000 232.000 L 282.000 230.000 204.000 230.000 L 126.000 230.000 126.000 232.000 M70.000 284.000 L 70.000 286.000 68.000 286.000 L 66.000 286.000 66.000 288.000 L 66.000 290.000 64.000 290.000 L 62.000 290.000 62.000 292.000 L 62.000 294.000 60.000 294.000 L 58.000 294.000 58.000 296.000 L 58.000 298.000 56.000 298.000 L 54.000 298.000 54.000 300.000 L 54.000 302.000 52.000 302.000 L 50.000 302.000 50.000 304.000 L 50.000 306.000 46.000 306.000 L 42.000 306.000 42.000 308.000 L 42.000 310.000 40.000 310.000 L 38.000 310.000 38.000 312.000 L 38.000 314.000 36.000 314.000 L 34.000 314.000 34.000 316.000 L 34.000 318.000 32.000 318.000 L 30.000 318.000 30.000 332.000 L 30.000 346.000 28.000 346.000 L 26.000 346.000 26.000 362.000 L 26.000 378.000 24.000 378.000 L 22.000 378.000 22.000 396.000 L 22.000 414.000 20.000 414.000 L 18.000 414.000 18.000 432.000 L 18.000 450.000 20.000 450.000 L 22.000 450.000 22.000 452.000 L 22.000 454.000 24.000 454.000 L 26.000 454.000 26.000 456.000 L 26.000 458.000 28.000 458.000 L 30.000 458.000 30.000 460.000 L 30.000 462.000 32.000 462.000 L 34.000 462.000 34.000 464.000 L 34.000 466.000 36.000 466.000 L 38.000 466.000 38.000 470.000 L 38.000 474.000 40.000 474.000 L 42.000 474.000 42.000 476.000 L 42.000 478.000 44.000 478.000 L 46.000 478.000 46.000 480.000 L 46.000 482.000 52.000 482.000 L 58.000 482.000 58.000 480.000 L 58.000 478.000 60.000 478.000 L 62.000 478.000 62.000 476.000 L 62.000 474.000 64.000 474.000 L 66.000 474.000 66.000 472.000 L 66.000 470.000 68.000 470.000 L 70.000 470.000 70.000 468.000 L 70.000 466.000 72.000 466.000 L 74.000 466.000 74.000 464.000 L 74.000 462.000 76.000 462.000 L 78.000 462.000 78.000 460.000 L 78.000 458.000 80.000 458.000 L 82.000 458.000 82.000 456.000 L 82.000 454.000 84.000 454.000 L 86.000 454.000 86.000 452.000 L 86.000 450.000 88.000 450.000 L 90.000 450.000 90.000 448.000 L 90.000 446.000 92.000 446.000 L 94.000 446.000 94.000 442.000 L 94.000 438.000 96.000 438.000 L 98.000 438.000 98.000 422.000 L 98.000 406.000 100.000 406.000 L 102.000 406.000 102.000 390.000 L 102.000 374.000 104.000 374.000 L 106.000 374.000 106.000 356.000 L 106.000 338.000 108.000 338.000 L 110.000 338.000 110.000 328.000 L 110.000 318.000 108.000 318.000 L 106.000 318.000 106.000 316.000 L 106.000 314.000 104.000 314.000 L 102.000 314.000 102.000 310.000 L 102.000 306.000 100.000 306.000 L 98.000 306.000 98.000 304.000 L 98.000 302.000 96.000 302.000 L 94.000 302.000 94.000 300.000 L 94.000 298.000 92.000 298.000 L 90.000 298.000 90.000 296.000 L 90.000 294.000 88.000 294.000 L 86.000 294.000 86.000 292.000 L 86.000 290.000 84.000 290.000 L 82.000 290.000 82.000 288.000 L 82.000 286.000 80.000 286.000 L 78.000 286.000 78.000 284.000 L 78.000 282.000 74.000 282.000 L 70.000 282.000 70.000 284.000 M314.000 284.000 L 314.000 286.000 312.000 286.000 L 310.000 286.000 310.000 288.000 L 310.000 290.000 308.000 290.000 L 306.000 290.000 306.000 292.000 L 306.000 294.000 304.000 294.000 L 302.000 294.000 302.000 296.000 L 302.000 298.000 300.000 298.000 L 298.000 298.000 298.000 300.000 L 298.000 302.000 296.000 302.000 L 294.000 302.000 294.000 304.000 L 294.000 306.000 292.000 306.000 L 290.000 306.000 290.000 308.000 L 290.000 310.000 288.000 310.000 L 286.000 310.000 286.000 312.000 L 286.000 314.000 284.000 314.000 L 282.000 314.000 282.000 316.000 L 282.000 318.000 280.000 318.000 L 278.000 318.000 278.000 324.000 L 278.000 330.000 276.000 330.000 L 274.000 330.000 274.000 346.000 L 274.000 362.000 272.000 362.000 L 270.000 362.000 270.000 380.000 L 270.000 398.000 268.000 398.000 L 266.000 398.000 266.000 414.000 L 266.000 430.000 264.000 430.000 L 262.000 430.000 262.000 436.774 C 262.000 444.790,262.181 445.492,264.333 445.836 L 265.892 446.085 266.109 449.257 C 266.373 453.115,266.644 453.476,269.528 453.820 C 272.099 454.127,274.000 455.510,274.000 457.075 C 274.000 457.918,274.176 458.000,276.000 458.000 L 278.000 458.000 278.000 460.000 L 278.000 462.000 280.000 462.000 L 282.000 462.000 282.000 464.000 L 282.000 466.000 283.900 466.064 C 285.307 466.111,285.470 466.169,284.530 466.287 C 282.745 466.511,282.320 467.225,282.320 470.000 C 282.320 472.784,282.753 473.505,284.530 473.677 C 285.698 473.790,285.810 473.928,285.930 475.395 C 286.101 477.494,286.586 478.000,288.427 478.000 L 289.956 478.000 290.078 479.900 L 290.200 481.800 296.100 481.911 L 302.000 482.021 302.000 480.011 L 302.000 478.000 304.000 478.000 L 306.000 478.000 306.000 476.000 L 306.000 474.000 308.000 474.000 L 310.000 474.000 310.000 472.000 L 310.000 470.000 312.000 470.000 L 314.000 470.000 314.000 468.000 L 314.000 466.000 316.000 466.000 L 318.000 466.000 318.000 464.000 L 318.000 462.000 320.000 462.000 L 322.000 462.000 322.000 460.000 L 322.000 458.000 324.000 458.000 L 326.000 458.000 326.000 456.000 L 326.000 454.000 330.000 454.000 L 334.000 454.000 334.000 452.000 L 334.000 450.000 336.000 450.000 L 338.000 450.000 338.000 448.000 L 338.000 446.000 340.000 446.000 L 342.000 446.000 342.000 438.000 L 342.000 430.000 344.000 430.000 L 346.000 430.000 346.000 414.000 L 346.000 398.000 348.000 398.000 L 350.000 398.000 350.000 380.000 L 350.000 362.000 352.000 362.000 L 354.000 362.000 354.000 346.000 L 354.000 330.000 356.000 330.000 L 358.000 330.000 358.000 324.000 L 358.000 318.000 356.000 318.000 L 354.000 318.000 354.000 316.000 L 354.000 314.000 352.000 314.000 L 350.000 314.000 350.000 312.000 L 350.000 310.000 348.000 310.000 L 346.000 310.000 346.000 306.000 L 346.000 302.000 344.000 302.000 L 342.000 302.000 342.000 300.000 L 342.000 298.000 340.000 298.000 L 338.000 298.000 338.000 296.000 L 338.000 294.000 336.000 294.000 L 334.000 294.000 334.000 292.000 L 334.000 290.000 332.000 290.000 L 330.000 290.000 330.000 288.000 L 330.000 286.000 328.000 286.000 L 326.000 286.000 326.000 284.000 L 326.000 282.000 320.000 282.000 L 314.000 282.000 314.000 284.000 M98.000 452.000 L 98.000 454.000 96.000 454.000 L 94.000 454.000 94.000 456.000 L 94.000 458.000 92.000 458.000 L 90.000 458.000 90.000 460.000 L 90.000 462.000 88.000 462.000 L 86.000 462.000 86.000 464.000 L 86.000 466.000 84.000 466.000 L 82.000 466.000 82.000 468.000 L 82.000 470.000 80.000 470.000 L 78.000 470.000 78.000 472.000 L 78.000 474.000 76.000 474.000 L 74.000 474.000 74.000 476.000 L 74.000 478.000 72.000 478.000 L 70.000 478.000 70.000 480.000 L 70.000 482.000 68.000 482.000 L 66.000 482.000 66.000 484.000 L 66.000 486.000 64.000 486.000 L 62.000 486.000 62.000 494.000 L 62.000 502.000 64.000 502.000 L 66.000 502.000 66.000 504.000 L 66.000 506.000 68.000 506.000 L 70.000 506.000 70.000 508.000 L 70.000 510.000 72.000 510.000 L 74.000 510.000 74.000 512.000 L 74.000 514.000 76.000 514.000 L 78.000 514.000 78.000 518.000 L 78.000 522.000 80.000 522.000 L 82.000 522.000 82.000 524.000 L 82.000 526.000 84.000 526.000 L 86.000 526.000 86.000 528.000 L 86.000 530.000 88.000 530.000 L 90.000 530.000 90.000 532.000 L 90.000 534.000 168.000 534.000 L 246.000 534.000 246.000 532.000 L 246.000 530.000 248.000 530.000 L 250.000 530.000 250.000 528.000 L 250.000 526.000 252.000 526.000 L 254.000 526.000 254.000 524.000 L 254.000 522.000 256.000 522.000 L 258.000 522.000 258.000 520.000 L 258.000 518.000 260.000 518.000 L 262.000 518.000 262.000 516.000 L 262.000 514.000 264.000 514.000 L 266.000 514.000 266.000 512.000 L 266.000 510.000 268.000 510.000 L 270.000 510.000 270.000 508.000 L 270.000 506.000 272.000 506.000 L 274.000 506.000 274.000 504.000 L 274.000 502.000 276.000 502.000 L 278.000 502.000 278.000 500.000 L 278.000 498.000 280.000 498.000 L 282.000 498.000 282.000 490.000 L 282.000 482.000 280.000 482.000 L 278.000 482.000 278.000 480.000 L 278.000 478.000 276.000 478.000 L 274.000 478.000 274.000 476.000 L 274.000 474.000 272.000 474.000 L 270.000 474.000 270.000 472.000 L 270.000 470.000 268.000 470.000 L 266.000 470.000 266.000 466.000 L 266.000 462.000 264.000 462.000 L 262.000 462.000 262.000 460.000 L 262.000 458.000 260.000 458.000 L 258.000 458.000 258.000 456.000 L 258.000 454.000 256.000 454.000 L 254.000 454.000 254.000 452.000 L 254.000 450.000 176.000 450.000 L 98.000 450.000 98.000 452.000 " stroke="none" fill="#000000" fill-rule="evenodd"></path></g></svg>