<svg id="svg" version="1.1" width="400" height="548" xmlns="http://www.w3.org/2000/svg" xmlns:xlink="http://www.w3.org/1999/xlink" style="display: block;"><g id="svgg"><path id="path0" d="M150.000 488.000 L 150.000 534.000 194.000 534.000 L 238.000 534.000 238.000 488.000 L 238.000 442.000 194.000 442.000 L 150.000 442.000 150.000 488.000 " stroke="none" fill="#000000" fill-rule="evenodd"></path><path id="path1" d="M150.000 488.000 L 150.000 534.000 194.000 534.000 L 238.000 534.000 238.000 488.000 L 238.000 442.000 194.000 442.000 L 150.000 442.000 150.000 488.000 " stroke="none" fill="#000000" fill-rule="evenodd"></path><path id="path2" d="M150.000 488.000 L 150.000 534.000 194.000 534.000 L 238.000 534.000 238.000 488.000 L 238.000 442.000 194.000 442.000 L 150.000 442.000 150.000 488.000 " stroke="none" fill="#000000" fill-rule="evenodd"></path><path id="path3" d="M150.000 488.000 L 150.000 534.000 194.000 534.000 L 238.000 534.000 238.000 488.000 L 238.000 442.000 194.000 442.000 L 150.000 442.000 150.000 488.000 " stroke="none" fill="#000000" fill-rule="evenodd"></path><path id="path4" d="M150.000 488.000 L 150.000 534.000 194.000 534.000 L 238.000 534.000 238.000 488.000 L 238.000 442.000 194.000 442.000 L 150.000 442.000 150.000 488.000 " stroke="none" fill="#000000" fill-rule="evenodd"></path></g></svg>